<svg width="52" height="26" viewBox="0 0 52 26" fill="none" xmlns="http://www.w3.org/2000/svg">
<path fill-rule="evenodd" clip-rule="evenodd" d="M49.3787 2.2C49.3787 2.08954 49.2892 2 49.1787 2H2.04045C1.93 2 1.84045 2.08954 1.84045 2.2V3.13333C1.84045 3.24379 1.93 3.33333 2.04045 3.33333H47.716C47.8264 3.33333 47.916 3.42287 47.916 3.53333V23.8C47.916 23.9105 48.0055 24 48.116 24H49.1787C49.2892 24 49.3787 23.9105 49.3787 23.8V2.2Z" fill="#B6D1A8"/>
<path fill-rule="evenodd" clip-rule="evenodd" d="M51.3787 0.2C51.3787 0.089543 51.2892 0 51.1787 0H3.78392C3.67347 0 3.58392 0.0895433 3.58392 0.2V1.13334C3.58392 1.2438 3.67347 1.33334 3.78392 1.33334H49.7075C49.8179 1.33334 49.9075 1.42289 49.9075 1.53334V21.8C49.9075 21.9105 49.997 22 50.1075 22H51.1787C51.2892 22 51.3787 21.9105 51.3787 21.8V0.2Z" fill="#B6D1A8"/>
<path fill-rule="evenodd" clip-rule="evenodd" d="M47.3787 4.20012C47.3787 4.08967 47.2891 4.00012 47.1787 4.00012H0.2C0.0895431 4.00012 0 4.08967 0 4.20012V25.8001C0 25.9106 0.0895436 26.0001 0.200001 26.0001H47.1787C47.2891 26.0001 47.3787 25.9106 47.3787 25.8001V4.20012ZM10.1975 13.1193V13.3068V20.3881C10.1975 20.4985 10.287 20.5881 10.3975 20.5881H11.4662C11.5767 20.5881 11.6662 20.4985 11.6662 20.3881V10.0303C11.6662 9.9198 11.5767 9.83025 11.4662 9.83025H10.4426C10.4001 9.83025 10.3587 9.84376 10.3245 9.86916C10.2533 9.92224 10.164 9.99 10.0569 10.0724C9.92665 10.1714 9.77821 10.2834 9.61154 10.4084C9.44487 10.5334 9.26779 10.6636 9.08029 10.799C8.898 10.9292 8.71831 11.0568 8.54123 11.1818C8.36415 11.3068 8.19748 11.4214 8.04123 11.5256C7.94653 11.5855 7.86139 11.6379 7.78583 11.6825C7.70695 11.7292 7.66686 11.8221 7.69005 11.9107L7.93596 12.8506C7.96932 12.9781 8.11464 13.039 8.22746 12.9708C8.4579 12.8317 8.71874 12.665 9.00998 12.4709C9.29249 12.2825 9.58317 12.0642 9.88202 11.816C10.0162 11.7045 10.2231 11.8006 10.2194 11.975C10.2173 12.0751 10.2152 12.1727 10.2131 12.2678C10.2131 12.3667 10.2105 12.4683 10.2053 12.5724C10.2053 12.6714 10.2027 12.7678 10.1975 12.8615V13.1193ZM14.3225 13.8849C14.286 14.3224 14.2678 14.7469 14.2678 15.1584C14.2678 15.5698 14.286 15.9969 14.3225 16.4396C14.3589 16.8771 14.424 17.3042 14.5178 17.7209C14.6115 18.1375 14.7417 18.5334 14.9084 18.9084C15.0751 19.2782 15.2886 19.6037 15.549 19.8849C15.8095 20.161 16.122 20.3823 16.4865 20.549C16.8563 20.7105 17.2912 20.7912 17.7912 20.7912C18.26 20.7912 18.6714 20.7157 19.0256 20.5646C19.385 20.4084 19.6949 20.1974 19.9553 19.9318C20.2157 19.6662 20.4345 19.3537 20.6115 18.9943C20.7886 18.6297 20.9292 18.2391 21.0334 17.8224C21.1376 17.4058 21.2105 16.9709 21.2522 16.5178C21.299 16.0646 21.3225 15.6115 21.3225 15.1584C21.3225 14.7053 21.299 14.2521 21.2522 13.799C21.2105 13.3459 21.1376 12.911 21.0334 12.4943C20.9292 12.0776 20.7886 11.6896 20.6115 11.3303C20.4345 10.9657 20.2157 10.6506 19.9553 10.3849C19.6949 10.1193 19.385 9.91098 19.0256 9.75994C18.6714 9.60369 18.26 9.52557 17.7912 9.52557C17.2912 9.52557 16.8563 9.6089 16.4865 9.77557C16.122 9.93702 15.8095 10.1584 15.549 10.4396C15.2886 10.7157 15.0751 11.0412 14.9084 11.4162C14.7417 11.786 14.6115 12.1792 14.5178 12.5959C14.424 13.0125 14.3589 13.4422 14.3225 13.8849ZM19.7209 13.3537C19.7886 13.8849 19.8225 14.4865 19.8225 15.1584C19.8225 15.8303 19.7886 16.4344 19.7209 16.9709C19.6532 17.5021 19.5412 17.9553 19.385 18.3303C19.2287 18.7053 19.0204 18.9943 18.76 19.1974C18.4996 19.3954 18.1792 19.4943 17.799 19.4943C17.3824 19.4943 17.0412 19.3797 16.7756 19.1506C16.51 18.9162 16.3016 18.6037 16.1506 18.2131C15.9996 17.8172 15.8954 17.3563 15.8381 16.8303C15.7808 16.3042 15.7522 15.7469 15.7522 15.1584C15.7522 14.5698 15.7808 14.0125 15.8381 13.4865C15.8954 12.9605 15.9996 12.5021 16.1506 12.1115C16.3016 11.7157 16.51 11.4032 16.7756 11.174C17.0412 10.9396 17.3824 10.8224 17.799 10.8224C18.1792 10.8224 18.4996 10.924 18.76 11.1271C19.0204 11.325 19.2287 11.6115 19.385 11.9865C19.5412 12.3615 19.6532 12.8172 19.7209 13.3537ZM23.4162 13.8849C23.3798 14.3224 23.3615 14.7469 23.3615 15.1584C23.3615 15.5698 23.3798 15.9969 23.4162 16.4396C23.4527 16.8771 23.5178 17.3042 23.6115 17.7209C23.7053 18.1375 23.8355 18.5334 24.0022 18.9084C24.1688 19.2782 24.3824 19.6037 24.6428 19.8849C24.9032 20.161 25.2157 20.3823 25.5803 20.549C25.9501 20.7105 26.385 20.7912 26.885 20.7912C27.3537 20.7912 27.7652 20.7157 28.1194 20.5646C28.4787 20.4084 28.7886 20.1974 29.049 19.9318C29.3095 19.6662 29.5282 19.3537 29.7053 18.9943C29.8824 18.6297 30.023 18.2391 30.1272 17.8224C30.2313 17.4058 30.3042 16.9709 30.3459 16.5178C30.3928 16.0646 30.4162 15.6115 30.4162 15.1584C30.4162 14.7053 30.3928 14.2521 30.3459 13.799C30.3042 13.3459 30.2313 12.911 30.1272 12.4943C30.023 12.0776 29.8824 11.6896 29.7053 11.3303C29.5282 10.9657 29.3095 10.6506 29.049 10.3849C28.7886 10.1193 28.4787 9.91098 28.1194 9.75994C27.7652 9.60369 27.3537 9.52557 26.885 9.52557C26.385 9.52557 25.9501 9.6089 25.5803 9.77557C25.2157 9.93702 24.9032 10.1584 24.6428 10.4396C24.3824 10.7157 24.1688 11.0412 24.0022 11.4162C23.8355 11.786 23.7053 12.1792 23.6115 12.5959C23.5178 13.0125 23.4527 13.4422 23.4162 13.8849ZM28.8147 13.3537C28.8824 13.8849 28.9162 14.4865 28.9162 15.1584C28.9162 15.8303 28.8824 16.4344 28.8147 16.9709C28.747 17.5021 28.635 17.9553 28.4787 18.3303C28.3225 18.7053 28.1141 18.9943 27.8537 19.1974C27.5933 19.3954 27.273 19.4943 26.8928 19.4943C26.4761 19.4943 26.135 19.3797 25.8694 19.1506C25.6037 18.9162 25.3954 18.6037 25.2444 18.2131C25.0933 17.8172 24.9891 17.3563 24.9319 16.8303C24.8746 16.3042 24.8459 15.7469 24.8459 15.1584C24.8459 14.5698 24.8746 14.0125 24.9319 13.4865C24.9891 12.9605 25.0933 12.5021 25.2444 12.1115C25.3954 11.7157 25.6037 11.4032 25.8694 11.174C26.135 10.9396 26.4761 10.8224 26.8928 10.8224C27.273 10.8224 27.5933 10.924 27.8537 11.1271C28.1141 11.325 28.3225 11.6115 28.4787 11.9865C28.635 12.3615 28.747 12.8172 28.8147 13.3537ZM39.2043 18.6056C39.2276 18.4971 39.245 18.3967 39.2565 18.3043C39.2701 18.1953 39.1842 18.1031 39.0744 18.0986L38.2673 18.0662C38.1633 18.062 38.0744 18.1386 38.055 18.2408C37.9733 18.6719 37.7981 19.0077 37.5295 19.2482C37.2242 19.5217 36.8368 19.6584 36.3674 19.6584C36.0848 19.6584 35.8319 19.6037 35.6086 19.4943C35.3899 19.3804 35.1985 19.2277 35.0344 19.0363C34.8703 18.8403 34.7313 18.6102 34.6174 18.3459C34.5337 18.1517 34.4623 17.9451 34.4032 17.7263C34.3698 17.6029 34.4651 17.4846 34.5929 17.4846H36.5489C36.6362 17.4846 36.7134 17.428 36.7397 17.3448L36.9005 16.8356C36.9412 16.7067 36.8449 16.5754 36.7097 16.5754H34.4116C34.3135 16.5754 34.2292 16.5043 34.2186 16.4067C34.2065 16.2943 34.2004 16.1819 34.2004 16.0695C34.2004 15.992 34.2027 15.9146 34.2072 15.8371L34.2138 15.7813C34.2257 15.6806 34.311 15.6047 34.4124 15.6047H36.9738C37.0606 15.6047 37.1374 15.5487 37.1641 15.4662L37.3287 14.957C37.3705 14.8278 37.2742 14.6955 37.1384 14.6955H34.5693C34.4425 14.6955 34.3474 14.5788 34.379 14.456C34.4455 14.1971 34.5296 13.9556 34.6311 13.7316C34.7678 13.4354 34.9273 13.1825 35.1096 12.9728C35.2964 12.7586 35.5015 12.5946 35.7248 12.4806C35.9527 12.3622 36.1942 12.3029 36.4494 12.3029C36.4904 12.3029 36.5542 12.3075 36.6408 12.3166C36.732 12.3257 36.8322 12.3485 36.9416 12.3849C37.051 12.4214 37.1649 12.4761 37.2834 12.549C37.4019 12.6174 37.5113 12.7153 37.6115 12.8429C37.7118 12.966 37.7961 13.1209 37.8645 13.3078C37.9162 13.4457 37.9535 13.6071 37.9766 13.7919C37.9896 13.8962 38.0759 13.9777 38.181 13.9777H39.0421C39.1564 13.9777 39.248 13.882 39.2369 13.7682C39.1998 13.39 39.1138 13.0542 38.9787 12.7609C38.8192 12.41 38.6119 12.1183 38.3567 11.8859C38.106 11.6535 37.8166 11.4803 37.4885 11.3664C37.1604 11.2479 36.814 11.1887 36.4494 11.1887C35.9846 11.1887 35.5608 11.2752 35.1779 11.4484C34.7951 11.617 34.4579 11.8563 34.1662 12.1662C33.8746 12.4761 33.6307 12.8475 33.4348 13.2804C33.2601 13.6622 33.1289 14.0784 33.0411 14.529C33.0225 14.6249 32.9394 14.6955 32.8418 14.6955H32.4045C32.3178 14.6955 32.2409 14.7514 32.2142 14.834L32.0496 15.3431C32.0078 15.4723 32.1042 15.6047 32.2399 15.6047H32.6868C32.8078 15.6047 32.9021 15.7114 32.896 15.8322C32.8955 15.8406 32.8951 15.849 32.8947 15.8576C32.8902 15.9533 32.8879 16.0331 32.8879 16.0969C32.8879 16.1789 32.8902 16.2609 32.8947 16.3429C32.8949 16.3458 32.8951 16.3486 32.8952 16.3514C32.9025 16.4709 32.8101 16.5754 32.6903 16.5754H32.3998C32.312 16.5754 32.2345 16.6326 32.2087 16.7165L32.0517 17.2256C32.0121 17.3543 32.1082 17.4846 32.2428 17.4846H32.8562C32.9535 17.4846 33.0364 17.5547 33.0552 17.6502C33.1412 18.0862 33.2632 18.4845 33.4211 18.8449C33.6034 19.2505 33.8335 19.5969 34.1115 19.884C34.3895 20.1665 34.7177 20.3853 35.0959 20.5402C35.4787 20.6906 35.9139 20.7658 36.4016 20.7658C36.7798 20.7658 37.1125 20.7202 37.3996 20.6291C37.6913 20.5379 37.9419 20.4172 38.1516 20.2668C38.3612 20.1164 38.5367 19.9478 38.6779 19.7609C38.8192 19.5695 38.9332 19.3758 39.0197 19.1799C39.1063 18.9839 39.1679 18.7925 39.2043 18.6056Z" fill="#B6D1A8"/>
</svg>
