<svg width="52" height="26" viewBox="0 0 52 26" fill="none" xmlns="http://www.w3.org/2000/svg">
<path fill-rule="evenodd" clip-rule="evenodd" d="M49.3787 2.2C49.3787 2.08954 49.2892 2 49.1787 2H2.04048C1.93003 2 1.84048 2.08954 1.84048 2.2V3.13333C1.84048 3.24379 1.93003 3.33333 2.04048 3.33333H47.716C47.8264 3.33333 47.916 3.42287 47.916 3.53333V23.8C47.916 23.9105 48.0055 24 48.116 24H49.1787C49.2892 24 49.3787 23.9105 49.3787 23.8V2.2Z" fill="#C19F7C"/>
<path fill-rule="evenodd" clip-rule="evenodd" d="M51.3787 0.2C51.3787 0.089543 51.2892 0 51.1787 0H3.78392C3.67347 0 3.58392 0.0895433 3.58392 0.2V1.13334C3.58392 1.2438 3.67347 1.33334 3.78392 1.33334H49.7075C49.8179 1.33334 49.9075 1.42289 49.9075 1.53334V21.8C49.9075 21.9105 49.997 22 50.1075 22H51.1787C51.2892 22 51.3787 21.9105 51.3787 21.8V0.2Z" fill="#C19F7C"/>
<path fill-rule="evenodd" clip-rule="evenodd" d="M47.3787 4.20012C47.3787 4.08967 47.2891 4.00012 47.1787 4.00012H0.2C0.0895431 4.00012 0 4.08967 0 4.20012V25.8001C0 25.9106 0.0895436 26.0001 0.200001 26.0001H47.1787C47.2891 26.0001 47.3787 25.9106 47.3787 25.8001V4.20012ZM11.8303 13.0529V13.217V19.3881C11.8303 19.4985 11.9198 19.5881 12.0303 19.5881H12.9154C13.0259 19.5881 13.1154 19.4985 13.1154 19.3881V10.375C13.1154 10.2645 13.0259 10.175 12.9154 10.175H12.053C12.0105 10.175 11.969 10.1885 11.9349 10.2139C11.8736 10.2596 11.7978 10.3173 11.7072 10.3869C11.5933 10.4735 11.4634 10.5715 11.3176 10.6808C11.1718 10.7902 11.0168 10.9041 10.8528 11.0226C10.6932 11.1366 10.536 11.2482 10.3811 11.3576C10.2261 11.467 10.0803 11.5672 9.94357 11.6584C9.86764 11.7065 9.79873 11.7489 9.73685 11.7858C9.65813 11.8327 9.61803 11.9256 9.64122 12.0142L9.84318 12.7862C9.87654 12.9137 10.0218 12.9745 10.1345 12.9061C10.3292 12.7878 10.5481 12.6476 10.7912 12.4855C11.0245 12.33 11.2642 12.1511 11.5102 11.9489C11.645 11.8381 11.852 11.9344 11.8483 12.1088C11.8469 12.1765 11.8454 12.2428 11.844 12.3078C11.844 12.3944 11.8417 12.4832 11.8371 12.5744C11.8371 12.661 11.8348 12.7453 11.8303 12.8273V13.0529ZM15.4397 13.7228C15.4078 14.1056 15.3918 14.4771 15.3918 14.8371C15.3918 15.1971 15.4078 15.5708 15.4397 15.9582C15.4716 16.341 15.5285 16.7147 15.6106 17.0793C15.6926 17.4439 15.8065 17.7902 15.9524 18.1183C16.0982 18.4419 16.285 18.7267 16.5129 18.9728C16.7408 19.2144 17.0142 19.4081 17.3332 19.5539C17.6568 19.6952 18.0373 19.7658 18.4748 19.7658C18.885 19.7658 19.245 19.6997 19.5549 19.5676C19.8694 19.4308 20.1405 19.2463 20.3684 19.0138C20.5962 18.7814 20.7876 18.508 20.9426 18.1935C21.0975 17.8745 21.2206 17.5327 21.3117 17.1681C21.4029 16.8036 21.4667 16.423 21.5031 16.0265C21.5442 15.6301 21.5647 15.2336 21.5647 14.8371C21.5647 14.4406 21.5442 14.0441 21.5031 13.6476C21.4667 13.2512 21.4029 12.8706 21.3117 12.506C21.2206 12.1415 21.0975 11.8019 20.9426 11.4875C20.7876 11.1685 20.5962 10.8928 20.3684 10.6603C20.1405 10.4279 19.8694 10.2456 19.5549 10.1135C19.245 9.97674 18.885 9.90838 18.4748 9.90838C18.0373 9.90838 17.6568 9.9813 17.3332 10.1271C17.0142 10.2684 16.7408 10.4621 16.5129 10.7082C16.285 10.9497 16.0982 11.2346 15.9524 11.5627C15.8065 11.8862 15.6926 12.2303 15.6106 12.5949C15.5285 12.9595 15.4716 13.3355 15.4397 13.7228ZM20.1633 13.258C20.2225 13.7228 20.2522 14.2492 20.2522 14.8371C20.2522 15.425 20.2225 15.9536 20.1633 16.423C20.1041 16.8879 20.0061 17.2844 19.8694 17.6125C19.7326 17.9406 19.5503 18.1935 19.3225 18.3713C19.0946 18.5444 18.8143 18.631 18.4817 18.631C18.1171 18.631 17.8186 18.5308 17.5861 18.3303C17.3537 18.1252 17.1714 17.8517 17.0393 17.5099C16.9071 17.1636 16.816 16.7603 16.7658 16.3C16.7157 15.8397 16.6906 15.3521 16.6906 14.8371C16.6906 14.3221 16.7157 13.8345 16.7658 13.3742C16.816 12.9139 16.9071 12.5129 17.0393 12.1711C17.1714 11.8247 17.3537 11.5513 17.5861 11.3508C17.8186 11.1457 18.1171 11.0431 18.4817 11.0431C18.8143 11.0431 19.0946 11.132 19.3225 11.3097C19.5503 11.4829 19.7326 11.7336 19.8694 12.0617C20.0061 12.3898 20.1041 12.7886 20.1633 13.258ZM23.3967 13.7228C23.3648 14.1056 23.3488 14.4771 23.3488 14.8371C23.3488 15.1971 23.3648 15.5708 23.3967 15.9582C23.4286 16.341 23.4856 16.7147 23.5676 17.0793C23.6496 17.4439 23.7636 17.7902 23.9094 18.1183C24.0552 18.4419 24.2421 18.7267 24.4699 18.9728C24.6978 19.2144 24.9712 19.4081 25.2903 19.5539C25.6138 19.6952 25.9944 19.7658 26.4319 19.7658C26.842 19.7658 27.202 19.6997 27.5119 19.5676C27.8264 19.4308 28.0975 19.2463 28.3254 19.0138C28.5533 18.7814 28.7447 18.508 28.8996 18.1935C29.0546 17.8745 29.1776 17.5327 29.2688 17.1681C29.3599 16.8036 29.4237 16.423 29.4602 16.0265C29.5012 15.6301 29.5217 15.2336 29.5217 14.8371C29.5217 14.4406 29.5012 14.0441 29.4602 13.6476C29.4237 13.2512 29.3599 12.8706 29.2688 12.506C29.1776 12.1415 29.0546 11.8019 28.8996 11.4875C28.7447 11.1685 28.5533 10.8928 28.3254 10.6603C28.0975 10.4279 27.8264 10.2456 27.5119 10.1135C27.202 9.97674 26.842 9.90838 26.4319 9.90838C25.9944 9.90838 25.6138 9.9813 25.2903 10.1271C24.9712 10.2684 24.6978 10.4621 24.4699 10.7082C24.2421 10.9497 24.0552 11.2346 23.9094 11.5627C23.7636 11.8862 23.6496 12.2303 23.5676 12.5949C23.4856 12.9595 23.4286 13.3355 23.3967 13.7228ZM28.1203 13.258C28.1796 13.7228 28.2092 14.2492 28.2092 14.8371C28.2092 15.425 28.1796 15.9536 28.1203 16.423C28.0611 16.8879 27.9631 17.2844 27.8264 17.6125C27.6897 17.9406 27.5074 18.1935 27.2795 18.3713C27.0516 18.5444 26.7714 18.631 26.4387 18.631C26.0741 18.631 25.7756 18.5308 25.5432 18.3303C25.3108 18.1252 25.1285 17.8517 24.9963 17.5099C24.8641 17.1636 24.773 16.7603 24.7229 16.3C24.6727 15.8397 24.6477 15.3521 24.6477 14.8371C24.6477 14.3221 24.6727 13.8345 24.7229 13.3742C24.773 12.9139 24.8641 12.5129 24.9963 12.1711C25.1285 11.8247 25.3108 11.5513 25.5432 11.3508C25.7756 11.1457 26.0741 11.0431 26.4387 11.0431C26.7714 11.0431 27.0516 11.132 27.2795 11.3097C27.5074 11.4829 27.6897 11.7336 27.8264 12.0617C27.9631 12.3898 28.0611 12.7886 28.1203 13.258ZM31.9504 19.0701C32.5384 19.5087 33.3784 19.7281 34.4704 19.7281C35.0304 19.7281 35.5764 19.6674 36.1084 19.5461C36.5781 19.4389 36.9642 19.3209 37.2666 19.1919C37.3378 19.1615 37.3824 19.0906 37.3824 19.0131V18.3138C37.3824 18.1691 37.2331 18.0715 37.098 18.1236C36.8183 18.2316 36.493 18.3371 36.1224 18.4401C35.6277 18.5707 35.1144 18.6361 34.5824 18.6361C33.0797 18.6361 32.3284 18.0947 32.3284 17.0121C32.3284 16.7974 32.3424 16.6294 32.3704 16.5081C32.3911 16.4183 32.4246 16.3234 32.4708 16.2235C32.5018 16.1564 32.5705 16.1161 32.6444 16.1161H37.7704C37.8808 16.1161 37.9704 16.0265 37.9704 15.9161V15.4201C37.9704 15.3096 37.8808 15.2201 37.7704 15.2201H34.1599C34.0033 15.2201 33.9718 15.0596 34.1204 15.0101V15.0101C34.4004 14.9167 34.713 14.8047 35.0584 14.6741C35.4037 14.5434 35.735 14.4034 36.0524 14.2541C36.3297 14.1154 36.5429 13.9803 36.6919 13.8487C36.7317 13.8136 36.7822 13.7921 36.8352 13.7921H37.7704C37.8808 13.7921 37.9704 13.7025 37.9704 13.5921V13.0961C37.9704 12.9856 37.8808 12.8961 37.7704 12.8961H37.524C37.3753 12.8961 37.2754 12.7372 37.3132 12.5934C37.3302 12.5289 37.3439 12.4618 37.3544 12.3921C37.3824 12.1961 37.3964 12.0001 37.3964 11.8041C37.3964 11.0107 37.121 10.4227 36.5704 10.0401C36.029 9.64807 35.287 9.45207 34.3444 9.45207C33.859 9.45207 33.3597 9.50807 32.8464 9.62007C32.4074 9.71583 32.0265 9.83207 31.7036 9.96877C31.6115 10.0078 31.5669 10.1111 31.597 10.2064L31.8254 10.9281C31.8619 11.0435 31.9917 11.1001 32.1029 11.0525C32.3667 10.9397 32.6566 10.8355 32.9724 10.7401C33.383 10.6187 33.817 10.5581 34.2744 10.5581C34.909 10.5581 35.3757 10.6841 35.6744 10.9361C35.973 11.1787 36.1224 11.5194 36.1224 11.9581C36.1224 12.1727 36.1037 12.3501 36.0664 12.4901C36.0457 12.5936 36.0122 12.6947 35.9659 12.7931C35.9354 12.8581 35.8681 12.8961 35.7963 12.8961H30.7644C30.6539 12.8961 30.5644 12.9856 30.5644 13.0961V13.5921C30.5644 13.7025 30.6539 13.7921 30.7644 13.7921H34.3354C34.4702 13.7921 34.4993 13.9427 34.3724 13.9881V13.9881C34.111 14.0721 33.8077 14.1747 33.4624 14.2961C33.1264 14.4174 32.7997 14.5574 32.4824 14.7161C32.2062 14.85 31.9788 14.9989 31.8002 15.1628C31.7611 15.1987 31.7106 15.2201 31.6575 15.2201H30.7644C30.6539 15.2201 30.5644 15.3096 30.5644 15.4201V15.9161C30.5644 16.0265 30.6539 16.1161 30.7644 16.1161H30.9392C31.0773 16.1161 31.1744 16.2532 31.1432 16.3878C31.0933 16.6033 31.0684 16.8348 31.0684 17.0821C31.0684 17.9687 31.3624 18.6314 31.9504 19.0701Z" fill="#C19F7C"/>
</svg>
