<svg width="53" height="26" viewBox="0 0 53 26" fill="none" xmlns="http://www.w3.org/2000/svg">
<path fill-rule="evenodd" clip-rule="evenodd" d="M50.1362 2.2C50.1362 2.08954 50.0466 2 49.9362 2H2.79793C2.68747 2 2.59793 2.08954 2.59793 2.2V3.13333C2.59793 3.24379 2.68747 3.33333 2.79793 3.33333H48.4734C48.5839 3.33333 48.6734 3.42287 48.6734 3.53333V23.8C48.6734 23.9105 48.763 24 48.8734 24H49.9362C50.0466 24 50.1362 23.9105 50.1362 23.8V2.2Z" fill="#CDA987"/>
<path fill-rule="evenodd" clip-rule="evenodd" d="M52.1362 0.2C52.1362 0.089543 52.0466 0 51.9362 0H4.54137C4.43091 0 4.34137 0.0895433 4.34137 0.2V1.13334C4.34137 1.2438 4.43091 1.33334 4.54137 1.33334H50.4649C50.5754 1.33334 50.6649 1.42289 50.6649 1.53334V21.8C50.6649 21.9105 50.7545 22 50.8649 22H51.9362C52.0466 22 52.1362 21.9105 52.1362 21.8V0.2Z" fill="#CDA987"/>
<path fill-rule="evenodd" clip-rule="evenodd" d="M48.1361 4.20011C48.1361 4.08965 48.0466 4.00011 47.9361 4.00011H0.957446C0.846989 4.00011 0.757446 4.08965 0.757446 4.20011V25.8001C0.757446 25.9106 0.84699 26.0001 0.957447 26.0001H47.9361C48.0466 26.0001 48.1361 25.9106 48.1361 25.8001V4.20011ZM11.2079 13.1193V13.3068V20.3881C11.2079 20.4985 11.2974 20.5881 11.4079 20.5881H12.4766C12.5871 20.5881 12.6766 20.4985 12.6766 20.3881V10.0302C12.6766 9.91978 12.5871 9.83024 12.4766 9.83024H11.453C11.4105 9.83024 11.369 9.84374 11.3349 9.86915C11.2636 9.92223 11.1744 9.98999 11.0672 10.0724C10.937 10.1714 10.7886 10.2834 10.6219 10.4084C10.4552 10.5334 10.2782 10.6636 10.0907 10.799C9.90837 10.9292 9.72869 11.0568 9.5516 11.1818C9.37452 11.3068 9.20785 11.4214 9.0516 11.5256C8.9569 11.5855 8.87177 11.6379 8.7962 11.6825C8.71733 11.7291 8.67723 11.822 8.70042 11.9107L8.94633 12.8506C8.97969 12.9781 9.12502 13.039 9.23784 12.9708C9.46828 12.8317 9.72912 12.665 10.0204 12.4709C10.3029 12.2825 10.5935 12.0642 10.8924 11.8159C11.0266 11.7045 11.2335 11.8006 11.2298 11.975C11.2277 12.0751 11.2256 12.1727 11.2235 12.2677C11.2235 12.3667 11.2209 12.4683 11.2157 12.5724C11.2157 12.6714 11.2131 12.7677 11.2079 12.8615V13.1193ZM15.3329 13.8849C15.2964 14.3224 15.2782 14.7469 15.2782 15.1584C15.2782 15.5698 15.2964 15.9969 15.3329 16.4396C15.3693 16.8771 15.4344 17.3042 15.5282 17.7209C15.6219 18.1375 15.7521 18.5334 15.9188 18.9084C16.0855 19.2782 16.299 19.6037 16.5594 19.8849C16.8198 20.161 17.1323 20.3823 17.4969 20.549C17.8667 20.7104 18.3016 20.7912 18.8016 20.7912C19.2704 20.7912 19.6818 20.7157 20.036 20.5646C20.3954 20.4084 20.7052 20.1974 20.9657 19.9318C21.2261 19.6662 21.4448 19.3537 21.6219 18.9943C21.799 18.6297 21.9396 18.2391 22.0438 17.8224C22.148 17.4058 22.2209 16.9709 22.2625 16.5177C22.3094 16.0646 22.3329 15.6115 22.3329 15.1584C22.3329 14.7052 22.3094 14.2521 22.2625 13.799C22.2209 13.3459 22.148 12.911 22.0438 12.4943C21.9396 12.0776 21.799 11.6896 21.6219 11.3302C21.4448 10.9657 21.2261 10.6506 20.9657 10.3849C20.7052 10.1193 20.3954 9.91097 20.036 9.75993C19.6818 9.60368 19.2704 9.52555 18.8016 9.52555C18.3016 9.52555 17.8667 9.60888 17.4969 9.77555C17.1323 9.93701 16.8198 10.1584 16.5594 10.4396C16.299 10.7157 16.0855 11.0412 15.9188 11.4162C15.7521 11.786 15.6219 12.1792 15.5282 12.5959C15.4344 13.0125 15.3693 13.4422 15.3329 13.8849ZM20.7313 13.3537C20.799 13.8849 20.8329 14.4865 20.8329 15.1584C20.8329 15.8302 20.799 16.4344 20.7313 16.9709C20.6636 17.5021 20.5516 17.9552 20.3954 18.3302C20.2391 18.7052 20.0308 18.9943 19.7704 19.1974C19.5099 19.3953 19.1896 19.4943 18.8094 19.4943C18.3927 19.4943 18.0516 19.3797 17.786 19.1506C17.5204 18.9162 17.312 18.6037 17.161 18.2131C17.0099 17.8172 16.9058 17.3563 16.8485 16.8302C16.7912 16.3042 16.7625 15.7469 16.7625 15.1584C16.7625 14.5698 16.7912 14.0125 16.8485 13.4865C16.9058 12.9604 17.0099 12.5021 17.161 12.1115C17.312 11.7157 17.5204 11.4032 17.786 11.174C18.0516 10.9396 18.3927 10.8224 18.8094 10.8224C19.1896 10.8224 19.5099 10.924 19.7704 11.1271C20.0308 11.325 20.2391 11.6115 20.3954 11.9865C20.5516 12.3615 20.6636 12.8172 20.7313 13.3537ZM24.4266 13.8849C24.3901 14.3224 24.3719 14.7469 24.3719 15.1584C24.3719 15.5698 24.3901 15.9969 24.4266 16.4396C24.4631 16.8771 24.5282 17.3042 24.6219 17.7209C24.7157 18.1375 24.8459 18.5334 25.0125 18.9084C25.1792 19.2782 25.3927 19.6037 25.6532 19.8849C25.9136 20.161 26.2261 20.3823 26.5907 20.549C26.9605 20.7104 27.3954 20.7912 27.8954 20.7912C28.3641 20.7912 28.7756 20.7157 29.1297 20.5646C29.4891 20.4084 29.799 20.1974 30.0594 19.9318C30.3198 19.6662 30.5386 19.3537 30.7157 18.9943C30.8927 18.6297 31.0334 18.2391 31.1375 17.8224C31.2417 17.4058 31.3146 16.9709 31.3563 16.5177C31.4032 16.0646 31.4266 15.6115 31.4266 15.1584C31.4266 14.7052 31.4032 14.2521 31.3563 13.799C31.3146 13.3459 31.2417 12.911 31.1375 12.4943C31.0334 12.0776 30.8927 11.6896 30.7157 11.3302C30.5386 10.9657 30.3198 10.6506 30.0594 10.3849C29.799 10.1193 29.4891 9.91097 29.1297 9.75993C28.7756 9.60368 28.3641 9.52555 27.8954 9.52555C27.3954 9.52555 26.9605 9.60888 26.5907 9.77555C26.2261 9.93701 25.9136 10.1584 25.6532 10.4396C25.3927 10.7157 25.1792 11.0412 25.0125 11.4162C24.8459 11.786 24.7157 12.1792 24.6219 12.5959C24.5282 13.0125 24.4631 13.4422 24.4266 13.8849ZM29.825 13.3537C29.8927 13.8849 29.9266 14.4865 29.9266 15.1584C29.9266 15.8302 29.8927 16.4344 29.825 16.9709C29.7573 17.5021 29.6454 17.9552 29.4891 18.3302C29.3329 18.7052 29.1245 18.9943 28.8641 19.1974C28.6037 19.3953 28.2834 19.4943 27.9032 19.4943C27.4865 19.4943 27.1454 19.3797 26.8797 19.1506C26.6141 18.9162 26.4058 18.6037 26.2547 18.2131C26.1037 17.8172 25.9995 17.3563 25.9422 16.8302C25.8849 16.3042 25.8563 15.7469 25.8563 15.1584C25.8563 14.5698 25.8849 14.0125 25.9422 13.4865C25.9995 12.9604 26.1037 12.5021 26.2547 12.1115C26.4058 11.7157 26.6141 11.4032 26.8797 11.174C27.1454 10.9396 27.4865 10.8224 27.9032 10.8224C28.2834 10.8224 28.6037 10.924 28.8641 11.1271C29.1245 11.325 29.3329 11.6115 29.4891 11.9865C29.6454 12.3615 29.7573 12.8172 29.825 13.3537ZM33.6002 18.6841C33.7107 18.6841 33.8002 18.7736 33.8002 18.8841V20.3881C33.8002 20.4985 33.8898 20.5881 34.0002 20.5881H34.8602C34.9707 20.5881 35.0602 20.4985 35.0602 20.3881V18.8841C35.0602 18.7736 35.1498 18.6841 35.2602 18.6841H37.1702C37.2807 18.6841 37.3702 18.5945 37.3702 18.4841V17.9741C37.3702 17.8636 37.2807 17.7741 37.1702 17.7741H35.2602C35.1498 17.7741 35.0602 17.6845 35.0602 17.5741V16.7281C35.0602 16.6176 35.1498 16.5281 35.2602 16.5281H36.2362C37.4869 16.5281 38.4342 16.2621 39.0782 15.7301C39.7222 15.1887 40.0442 14.442 40.0442 13.4901C40.0442 12.5474 39.7456 11.8287 39.1482 11.3341C38.5602 10.8394 37.6549 10.5921 36.4322 10.5921H34.0002C33.8898 10.5921 33.8002 10.6816 33.8002 10.7921V15.2641C33.8002 15.3745 33.7107 15.4641 33.6002 15.4641H32.7822C32.6718 15.4641 32.5822 15.5536 32.5822 15.6641V16.3281C32.5822 16.4385 32.6718 16.5281 32.7822 16.5281H33.6002C33.7107 16.5281 33.8002 16.6176 33.8002 16.7281V17.5741C33.8002 17.6845 33.7107 17.7741 33.6002 17.7741H32.7822C32.6718 17.7741 32.5822 17.8636 32.5822 17.9741V18.4841C32.5822 18.5945 32.6718 18.6841 32.7822 18.6841H33.6002ZM38.0282 15.0441C37.5616 15.3241 36.9036 15.4641 36.0542 15.4641H35.2602C35.1498 15.4641 35.0602 15.3745 35.0602 15.2641V11.8561C35.0602 11.7456 35.1498 11.6561 35.2602 11.6561H36.3202C37.1509 11.6561 37.7622 11.8101 38.1542 12.1181C38.5462 12.4261 38.7422 12.8974 38.7422 13.5321C38.7422 14.2601 38.5042 14.7641 38.0282 15.0441Z" fill="#CDA987"/>
</svg>
