<svg width="52" height="26" viewBox="0 0 52 26" fill="none" xmlns="http://www.w3.org/2000/svg">
<path fill-rule="evenodd" clip-rule="evenodd" d="M49.3787 2.2C49.3787 2.08954 49.2892 2 49.1787 2H2.04048C1.93003 2 1.84048 2.08954 1.84048 2.2V3.13333C1.84048 3.24379 1.93003 3.33333 2.04048 3.33333H47.716C47.8264 3.33333 47.916 3.42287 47.916 3.53333V23.8C47.916 23.9105 48.0055 24 48.116 24H49.1787C49.2892 24 49.3787 23.9105 49.3787 23.8V2.2Z" fill="#B2CCC5"/>
<path fill-rule="evenodd" clip-rule="evenodd" d="M51.3787 0.2C51.3787 0.089543 51.2892 0 51.1787 0H3.78392C3.67347 0 3.58392 0.0895433 3.58392 0.2V1.13334C3.58392 1.2438 3.67347 1.33334 3.78392 1.33334H49.7075C49.8179 1.33334 49.9075 1.42289 49.9075 1.53334V21.8C49.9075 21.9105 49.997 22 50.1075 22H51.1787C51.2892 22 51.3787 21.9105 51.3787 21.8V0.2Z" fill="#B2CCC5"/>
<path fill-rule="evenodd" clip-rule="evenodd" d="M47.3787 4.20012C47.3787 4.08967 47.2891 4.00012 47.1787 4.00012H0.2C0.0895431 4.00012 0 4.08967 0 4.20012V25.8001C0 25.9106 0.0895436 26.0001 0.200001 26.0001H47.1787C47.2891 26.0001 47.3787 25.9106 47.3787 25.8001V4.20012ZM10.7649 13.1193V13.3068V20.3881C10.7649 20.4985 10.8544 20.5881 10.9649 20.5881H12.0336C12.1441 20.5881 12.2336 20.4985 12.2336 20.3881V10.0303C12.2336 9.9198 12.1441 9.83025 12.0336 9.83025H11.01C10.9675 9.83025 10.926 9.84376 10.8919 9.86916C10.8206 9.92224 10.7314 9.99 10.6242 10.0724C10.494 10.1714 10.3456 10.2834 10.1789 10.4084C10.0123 10.5334 9.83517 10.6636 9.64767 10.799C9.46538 10.9292 9.28569 11.0568 9.10861 11.1818C8.93153 11.3068 8.76486 11.4214 8.60861 11.5256C8.51391 11.5855 8.42878 11.6379 8.35321 11.6825C8.27433 11.7292 8.23424 11.8221 8.25743 11.9107L8.50334 12.8506C8.5367 12.9781 8.68203 13.039 8.79484 12.9708C9.02528 12.8317 9.28612 12.665 9.57736 12.4709C9.85987 12.2825 10.1506 12.0642 10.4494 11.816C10.5836 11.7045 10.7905 11.8006 10.7868 11.975C10.7847 12.0751 10.7826 12.1727 10.7805 12.2678C10.7805 12.3667 10.7779 12.4683 10.7727 12.5724C10.7727 12.6714 10.7701 12.7678 10.7649 12.8615V13.1193ZM14.8899 13.8849C14.8534 14.3224 14.8352 14.7469 14.8352 15.1584C14.8352 15.5698 14.8534 15.9969 14.8899 16.4396C14.9263 16.8771 14.9914 17.3042 15.0852 17.7209C15.1789 18.1375 15.3091 18.5334 15.4758 18.9084C15.6425 19.2782 15.856 19.6037 16.1164 19.8849C16.3768 20.161 16.6893 20.3823 17.0539 20.549C17.4237 20.7105 17.8586 20.7912 18.3586 20.7912C18.8274 20.7912 19.2388 20.7157 19.593 20.5646C19.9524 20.4084 20.2623 20.1974 20.5227 19.9318C20.7831 19.6662 21.0018 19.3537 21.1789 18.9943C21.356 18.6297 21.4966 18.2391 21.6008 17.8224C21.705 17.4058 21.7779 16.9709 21.8195 16.5178C21.8664 16.0646 21.8899 15.6115 21.8899 15.1584C21.8899 14.7053 21.8664 14.2521 21.8195 13.799C21.7779 13.3459 21.705 12.911 21.6008 12.4943C21.4966 12.0776 21.356 11.6896 21.1789 11.3303C21.0018 10.9657 20.7831 10.6506 20.5227 10.3849C20.2623 10.1193 19.9524 9.91098 19.593 9.75994C19.2388 9.60369 18.8274 9.52557 18.3586 9.52557C17.8586 9.52557 17.4237 9.6089 17.0539 9.77557C16.6893 9.93702 16.3768 10.1584 16.1164 10.4396C15.856 10.7157 15.6425 11.0412 15.4758 11.4162C15.3091 11.786 15.1789 12.1792 15.0852 12.5959C14.9914 13.0125 14.9263 13.4422 14.8899 13.8849ZM20.2883 13.3537C20.356 13.8849 20.3899 14.4865 20.3899 15.1584C20.3899 15.8303 20.356 16.4344 20.2883 16.9709C20.2206 17.5021 20.1086 17.9553 19.9524 18.3303C19.7961 18.7053 19.5878 18.9943 19.3274 19.1974C19.0669 19.3954 18.7466 19.4943 18.3664 19.4943C17.9498 19.4943 17.6086 19.3797 17.343 19.1506C17.0774 18.9162 16.869 18.6037 16.718 18.2131C16.5669 17.8172 16.4628 17.3563 16.4055 16.8303C16.3482 16.3042 16.3195 15.7469 16.3195 15.1584C16.3195 14.5698 16.3482 14.0125 16.4055 13.4865C16.4628 12.9605 16.5669 12.5021 16.718 12.1115C16.869 11.7157 17.0774 11.4032 17.343 11.174C17.6086 10.9396 17.9498 10.8224 18.3664 10.8224C18.7466 10.8224 19.0669 10.924 19.3274 11.1271C19.5878 11.325 19.7961 11.6115 19.9524 11.9865C20.1086 12.3615 20.2206 12.8172 20.2883 13.3537ZM23.9836 13.8849C23.9472 14.3224 23.9289 14.7469 23.9289 15.1584C23.9289 15.5698 23.9472 15.9969 23.9836 16.4396C24.0201 16.8771 24.0852 17.3042 24.1789 17.7209C24.2727 18.1375 24.4029 18.5334 24.5695 18.9084C24.7362 19.2782 24.9498 19.6037 25.2102 19.8849C25.4706 20.161 25.7831 20.3823 26.1477 20.549C26.5175 20.7105 26.9524 20.7912 27.4524 20.7912C27.9211 20.7912 28.3326 20.7157 28.6867 20.5646C29.0461 20.4084 29.356 20.1974 29.6164 19.9318C29.8768 19.6662 30.0956 19.3537 30.2727 18.9943C30.4498 18.6297 30.5904 18.2391 30.6945 17.8224C30.7987 17.4058 30.8716 16.9709 30.9133 16.5178C30.9602 16.0646 30.9836 15.6115 30.9836 15.1584C30.9836 14.7053 30.9602 14.2521 30.9133 13.799C30.8716 13.3459 30.7987 12.911 30.6945 12.4943C30.5904 12.0776 30.4498 11.6896 30.2727 11.3303C30.0956 10.9657 29.8768 10.6506 29.6164 10.3849C29.356 10.1193 29.0461 9.91098 28.6867 9.75994C28.3326 9.60369 27.9211 9.52557 27.4524 9.52557C26.9524 9.52557 26.5175 9.6089 26.1477 9.77557C25.7831 9.93702 25.4706 10.1584 25.2102 10.4396C24.9498 10.7157 24.7362 11.0412 24.5695 11.4162C24.4029 11.786 24.2727 12.1792 24.1789 12.5959C24.0852 13.0125 24.0201 13.4422 23.9836 13.8849ZM29.382 13.3537C29.4498 13.8849 29.4836 14.4865 29.4836 15.1584C29.4836 15.8303 29.4498 16.4344 29.382 16.9709C29.3143 17.5021 29.2024 17.9553 29.0461 18.3303C28.8899 18.7053 28.6815 18.9943 28.4211 19.1974C28.1607 19.3954 27.8404 19.4943 27.4602 19.4943C27.0435 19.4943 26.7024 19.3797 26.4367 19.1506C26.1711 18.9162 25.9628 18.6037 25.8117 18.2131C25.6607 17.8172 25.5565 17.3563 25.4992 16.8303C25.4419 16.3042 25.4133 15.7469 25.4133 15.1584C25.4133 14.5698 25.4419 14.0125 25.4992 13.4865C25.5565 12.9605 25.6607 12.5021 25.8117 12.1115C25.9628 11.7157 26.1711 11.4032 26.4367 11.174C26.7024 10.9396 27.0435 10.8224 27.4602 10.8224C27.8404 10.8224 28.1607 10.924 28.4211 11.1271C28.6815 11.325 28.8899 11.6115 29.0461 11.9865C29.2024 12.3615 29.3143 12.8172 29.382 13.3537ZM34.4465 20.2258C34.6597 20.2719 34.8812 20.3015 35.111 20.3145C35.2201 20.3206 35.3078 20.4092 35.3078 20.5185V21.4887C35.3078 21.5991 35.3974 21.6887 35.5078 21.6887H35.9487C36.0591 21.6887 36.1487 21.5991 36.1487 21.4887V20.4709C36.1487 20.37 36.224 20.2853 36.3237 20.2694C36.6285 20.2207 36.9188 20.1446 37.1945 20.0412C37.5227 19.9181 37.8098 19.7541 38.0559 19.549C38.3065 19.3439 38.5048 19.0978 38.6506 18.8107C38.7964 18.5191 38.8694 18.1795 38.8694 17.7922C38.8694 17.4048 38.7896 17.0721 38.6301 16.7941C38.4706 16.5116 38.2632 16.27 38.008 16.0695C37.7528 15.869 37.4634 15.7004 37.1399 15.5637C36.8667 15.4466 36.5902 15.3429 36.3104 15.2525C36.2267 15.2255 36.1692 15.1481 36.1692 15.0602V12.7569C36.1692 12.6384 36.2718 12.5453 36.3889 12.5634C36.4858 12.5784 36.5789 12.5964 36.6682 12.6174C36.8277 12.6538 36.9735 12.704 37.1057 12.7678C37.2424 12.8316 37.3632 12.9113 37.468 13.007C37.5276 13.0614 37.5813 13.1225 37.6291 13.1902C37.6912 13.2781 37.8053 13.3203 37.9033 13.2758L38.5617 12.976C38.652 12.9349 38.6997 12.8333 38.6641 12.7407C38.6112 12.6032 38.5452 12.4801 38.466 12.3713C38.3567 12.2163 38.2291 12.0864 38.0832 11.9816C37.9374 11.8722 37.7802 11.7834 37.6115 11.715C37.4475 11.6467 37.2789 11.592 37.1057 11.551C36.9371 11.5054 36.773 11.4735 36.6135 11.4553C36.5255 11.4452 36.4417 11.4365 36.3621 11.4293C36.2574 11.4197 36.176 11.3327 36.176 11.2276V10.5137C36.176 10.4032 36.0865 10.3137 35.976 10.3137H35.5283C35.4179 10.3137 35.3283 10.4032 35.3283 10.5137V11.2573C35.3283 11.3586 35.2526 11.4434 35.1526 11.4591C34.8744 11.5028 34.6071 11.5699 34.3508 11.6603C34.0455 11.7697 33.7743 11.9201 33.5373 12.1115C33.3049 12.2984 33.118 12.5285 32.9768 12.8019C32.8401 13.0708 32.7717 13.383 32.7717 13.7385C32.7717 14.0757 32.8127 14.3719 32.8947 14.6271C32.9813 14.8778 33.1226 15.1034 33.3186 15.3039C33.5191 15.4999 33.7811 15.6776 34.1047 15.8371C34.3959 15.9765 34.7497 16.1122 35.1663 16.2443C35.2502 16.2709 35.3078 16.3484 35.3078 16.4364V18.9622C35.3078 19.0768 35.2116 19.1687 35.0978 19.1553C34.9211 19.1345 34.7587 19.0994 34.6106 19.05C34.41 18.9771 34.2323 18.8905 34.0774 18.7902C33.9224 18.6854 33.7903 18.5737 33.6809 18.4553C33.6257 18.3932 33.5752 18.3317 33.5293 18.2708C33.4592 18.1778 33.3272 18.1513 33.2315 18.2176C33.158 18.2686 33.0845 18.3182 33.011 18.3664C32.9221 18.4235 32.8311 18.485 32.7379 18.5509C32.6645 18.6028 32.6359 18.6983 32.6717 18.7807C32.7766 19.0218 32.9056 19.2323 33.0588 19.4123C33.2411 19.6219 33.4485 19.7951 33.6809 19.9318C33.9179 20.064 34.1731 20.162 34.4465 20.2258ZM37.4133 17.4162C37.4862 17.5484 37.5227 17.7033 37.5227 17.881C37.5227 18.0269 37.4953 18.1681 37.4406 18.3049C37.3905 18.4416 37.3108 18.5669 37.2014 18.6808C37.092 18.7948 36.9507 18.8928 36.7776 18.9748C36.6641 19.03 36.5351 19.0728 36.3907 19.1033C36.2737 19.1279 36.1692 19.034 36.1692 18.9144V16.8435C36.1692 16.7038 36.3086 16.6073 36.4367 16.6629C36.523 16.7004 36.607 16.7396 36.6887 16.7804C36.8528 16.8579 36.9963 16.9491 37.1194 17.0539C37.2424 17.1587 37.3404 17.2795 37.4133 17.4162ZM34.1731 14.1486C34.1138 14.021 34.0842 13.8683 34.0842 13.6906C34.0842 13.5995 34.0979 13.4992 34.1252 13.3898C34.1571 13.2759 34.2164 13.1665 34.3029 13.0617C34.3941 12.9523 34.5194 12.8543 34.6789 12.7678C34.7912 12.7054 34.9269 12.6526 35.0861 12.6095C35.2071 12.5767 35.3215 12.6719 35.3215 12.7973V14.6573C35.3215 14.7957 35.1842 14.8923 35.0565 14.8388C34.9776 14.8058 34.9018 14.7717 34.8293 14.7365C34.6789 14.6636 34.5468 14.5793 34.4328 14.4836C34.3235 14.3879 34.2369 14.2762 34.1731 14.1486Z" fill="#B2CCC5"/>
</svg>
