<svg width="52" height="26" viewBox="0 0 52 26" fill="none" xmlns="http://www.w3.org/2000/svg">
<path fill-rule="evenodd" clip-rule="evenodd" d="M49.3787 2.2C49.3787 2.08954 49.2892 2 49.1787 2H2.04048C1.93003 2 1.84048 2.08954 1.84048 2.2V3.13333C1.84048 3.24379 1.93003 3.33333 2.04048 3.33333H47.716C47.8264 3.33333 47.916 3.42287 47.916 3.53333V23.8C47.916 23.9105 48.0055 24 48.116 24H49.1787C49.2892 24 49.3787 23.9105 49.3787 23.8V2.2Z" fill="#E7A6AE"/>
<path fill-rule="evenodd" clip-rule="evenodd" d="M51.3787 0.2C51.3787 0.089543 51.2892 0 51.1787 0H3.78392C3.67347 0 3.58392 0.0895433 3.58392 0.2V1.13334C3.58392 1.2438 3.67347 1.33334 3.78392 1.33334H49.7075C49.8179 1.33334 49.9075 1.42289 49.9075 1.53334V21.8C49.9075 21.9105 49.997 22 50.1075 22H51.1787C51.2892 22 51.3787 21.9105 51.3787 21.8V0.2Z" fill="#E7A6AE"/>
<path fill-rule="evenodd" clip-rule="evenodd" d="M47.3787 4.20012C47.3787 4.08967 47.2891 4.00012 47.1787 4.00012H0.2C0.0895431 4.00012 0 4.08967 0 4.20012V25.8001C0 25.9106 0.0895436 26.0001 0.200001 26.0001H47.1787C47.2891 26.0001 47.3787 25.9106 47.3787 25.8001V4.20012ZM14.7444 13.1193V13.3068V20.3881C14.7444 20.4985 14.8339 20.5881 14.9444 20.5881H16.0131C16.1236 20.5881 16.2131 20.4985 16.2131 20.3881V10.0303C16.2131 9.9198 16.1236 9.83025 16.0131 9.83025H14.9895C14.947 9.83025 14.9055 9.84376 14.8714 9.86916C14.8001 9.92224 14.7109 9.99 14.6037 10.0724C14.4735 10.1714 14.3251 10.2834 14.1584 10.4084C13.9917 10.5334 13.8147 10.6636 13.6272 10.799C13.4449 10.9292 13.2652 11.0568 13.0881 11.1818C12.911 11.3068 12.7444 11.4214 12.5881 11.5256C12.4934 11.5855 12.4083 11.6379 12.3327 11.6825C12.2538 11.7292 12.2137 11.8221 12.2369 11.9107L12.4828 12.8506C12.5162 12.9781 12.6615 13.039 12.7743 12.9708C13.0048 12.8317 13.2656 12.665 13.5569 12.4709C13.8394 12.2825 14.13 12.0642 14.4289 11.816C14.5631 11.7045 14.77 11.8006 14.7663 11.975C14.7642 12.0751 14.7621 12.1727 14.76 12.2678C14.76 12.3667 14.7574 12.4683 14.7522 12.5724C14.7522 12.6714 14.7496 12.7678 14.7444 12.8615V13.1193ZM18.8694 13.8849C18.8329 14.3224 18.8147 14.7469 18.8147 15.1584C18.8147 15.5698 18.8329 15.9969 18.8694 16.4396C18.9058 16.8771 18.9709 17.3042 19.0647 17.7209C19.1584 18.1375 19.2886 18.5334 19.4553 18.9084C19.622 19.2782 19.8355 19.6037 20.0959 19.8849C20.3563 20.161 20.6688 20.3823 21.0334 20.549C21.4032 20.7105 21.8381 20.7912 22.3381 20.7912C22.8069 20.7912 23.2183 20.7157 23.5725 20.5646C23.9319 20.4084 24.2417 20.1974 24.5022 19.9318C24.7626 19.6662 24.9813 19.3537 25.1584 18.9943C25.3355 18.6297 25.4761 18.2391 25.5803 17.8224C25.6845 17.4058 25.7574 16.9709 25.799 16.5178C25.8459 16.0646 25.8694 15.6115 25.8694 15.1584C25.8694 14.7053 25.8459 14.2521 25.799 13.799C25.7574 13.3459 25.6845 12.911 25.5803 12.4943C25.4761 12.0776 25.3355 11.6896 25.1584 11.3303C24.9813 10.9657 24.7626 10.6506 24.5022 10.3849C24.2417 10.1193 23.9319 9.91098 23.5725 9.75994C23.2183 9.60369 22.8069 9.52557 22.3381 9.52557C21.8381 9.52557 21.4032 9.6089 21.0334 9.77557C20.6688 9.93702 20.3563 10.1584 20.0959 10.4396C19.8355 10.7157 19.622 11.0412 19.4553 11.4162C19.2886 11.786 19.1584 12.1792 19.0647 12.5959C18.9709 13.0125 18.9058 13.4422 18.8694 13.8849ZM24.2678 13.3537C24.3355 13.8849 24.3694 14.4865 24.3694 15.1584C24.3694 15.8303 24.3355 16.4344 24.2678 16.9709C24.2001 17.5021 24.0881 17.9553 23.9319 18.3303C23.7756 18.7053 23.5673 18.9943 23.3069 19.1974C23.0464 19.3954 22.7261 19.4943 22.3459 19.4943C21.9292 19.4943 21.5881 19.3797 21.3225 19.1506C21.0569 18.9162 20.8485 18.6037 20.6975 18.2131C20.5464 17.8172 20.4423 17.3563 20.385 16.8303C20.3277 16.3042 20.299 15.7469 20.299 15.1584C20.299 14.5698 20.3277 14.0125 20.385 13.4865C20.4423 12.9605 20.5464 12.5021 20.6975 12.1115C20.8485 11.7157 21.0569 11.4032 21.3225 11.174C21.5881 10.9396 21.9292 10.8224 22.3459 10.8224C22.7261 10.8224 23.0464 10.924 23.3069 11.1271C23.5673 11.325 23.7756 11.6115 23.9319 11.9865C24.0881 12.3615 24.2001 12.8172 24.2678 13.3537ZM34.6574 18.6056C34.6807 18.4971 34.6981 18.3967 34.7096 18.3043C34.7232 18.1953 34.6373 18.1031 34.5275 18.0986L33.7204 18.0662C33.6164 18.062 33.5275 18.1386 33.5081 18.2408C33.4264 18.6719 33.2513 19.0077 32.9826 19.2482C32.6773 19.5217 32.2899 19.6584 31.8205 19.6584C31.538 19.6584 31.285 19.6037 31.0617 19.4943C30.843 19.3804 30.6516 19.2277 30.4875 19.0363C30.3235 18.8403 30.1845 18.6102 30.0705 18.3459C29.9868 18.1517 29.9154 17.9451 29.8563 17.7263C29.823 17.6029 29.9182 17.4846 30.046 17.4846H32.0021C32.0893 17.4846 32.1665 17.428 32.1928 17.3448L32.3536 16.8356C32.3943 16.7067 32.298 16.5754 32.1629 16.5754H29.8647C29.7666 16.5754 29.6823 16.5043 29.6718 16.4067C29.6596 16.2943 29.6535 16.1819 29.6535 16.0695C29.6535 15.992 29.6558 15.9146 29.6604 15.8371L29.6669 15.7813C29.6788 15.6806 29.7641 15.6047 29.8656 15.6047H32.4269C32.5137 15.6047 32.5906 15.5487 32.6172 15.4662L32.7819 14.957C32.8236 14.8278 32.7273 14.6955 32.5916 14.6955H30.0224C29.8956 14.6955 29.8005 14.5788 29.8321 14.456C29.8987 14.1971 29.9827 13.9556 30.0842 13.7316C30.2209 13.4354 30.3804 13.1825 30.5627 12.9728C30.7496 12.7586 30.9546 12.5946 31.1779 12.4806C31.4058 12.3622 31.6473 12.3029 31.9026 12.3029C31.9436 12.3029 32.0074 12.3075 32.094 12.3166C32.1851 12.3257 32.2854 12.3485 32.3947 12.3849C32.5041 12.4214 32.618 12.4761 32.7365 12.549C32.855 12.6174 32.9644 12.7153 33.0647 12.8429C33.1649 12.966 33.2492 13.1209 33.3176 13.3078C33.3693 13.4457 33.4067 13.6071 33.4297 13.7919C33.4427 13.8962 33.529 13.9777 33.6342 13.9777H34.4952C34.6095 13.9777 34.7011 13.882 34.69 13.7682C34.653 13.39 34.5669 13.0542 34.4319 12.7609C34.2723 12.41 34.065 12.1183 33.8098 11.8859C33.5591 11.6535 33.2697 11.4803 32.9416 11.3664C32.6135 11.2479 32.2671 11.1887 31.9026 11.1887C31.4377 11.1887 31.0139 11.2752 30.6311 11.4484C30.2483 11.617 29.911 11.8563 29.6194 12.1662C29.3277 12.4761 29.0839 12.8475 28.8879 13.2804C28.7133 13.6622 28.582 14.0784 28.4943 14.529C28.4756 14.6249 28.3926 14.6955 28.2949 14.6955H27.8577C27.7709 14.6955 27.694 14.7514 27.6674 14.834L27.5027 15.3431C27.461 15.4723 27.5573 15.6047 27.693 15.6047H28.1399C28.2609 15.6047 28.3552 15.7114 28.3491 15.8322C28.3487 15.8406 28.3483 15.849 28.3479 15.8576C28.3433 15.9533 28.341 16.0331 28.341 16.0969C28.341 16.1789 28.3433 16.2609 28.3479 16.3429C28.348 16.3458 28.3482 16.3486 28.3484 16.3514C28.3557 16.4709 28.2632 16.5754 28.1435 16.5754H27.8529C27.7652 16.5754 27.6877 16.6326 27.6618 16.7165L27.5048 17.2256C27.4652 17.3543 27.5614 17.4846 27.696 17.4846H28.3093C28.4067 17.4846 28.4895 17.5547 28.5084 17.6502C28.5943 18.0862 28.7163 18.4845 28.8742 18.8449C29.0565 19.2505 29.2867 19.5969 29.5647 19.884C29.8427 20.1665 30.1708 20.3853 30.549 20.5402C30.9319 20.6906 31.3671 20.7658 31.8547 20.7658C32.233 20.7658 32.5656 20.7202 32.8528 20.6291C33.1444 20.5379 33.3951 20.4172 33.6047 20.2668C33.8143 20.1164 33.9898 19.9478 34.1311 19.7609C34.2723 19.5695 34.3863 19.3758 34.4729 19.1799C34.5595 18.9839 34.621 18.7925 34.6574 18.6056Z" fill="#E7A6AE"/>
</svg>
