<svg width="52" height="26" viewBox="0 0 52 26" fill="none" xmlns="http://www.w3.org/2000/svg">
<path fill-rule="evenodd" clip-rule="evenodd" d="M49.3787 2.2C49.3787 2.08954 49.2892 2 49.1787 2H2.04045C1.93 2 1.84045 2.08954 1.84045 2.2V3.13333C1.84045 3.24379 1.93 3.33333 2.04045 3.33333H47.716C47.8264 3.33333 47.916 3.42287 47.916 3.53333V23.8C47.916 23.9105 48.0055 24 48.116 24H49.1787C49.2892 24 49.3787 23.9105 49.3787 23.8V2.2Z" fill="#C2796A"/>
<path fill-rule="evenodd" clip-rule="evenodd" d="M51.3787 0.2C51.3787 0.089543 51.2892 0 51.1787 0H3.78392C3.67347 0 3.58392 0.0895433 3.58392 0.2V1.13334C3.58392 1.2438 3.67347 1.33334 3.78392 1.33334H49.7075C49.8179 1.33334 49.9075 1.42289 49.9075 1.53334V21.8C49.9075 21.9105 49.997 22 50.1075 22H51.1787C51.2892 22 51.3787 21.9105 51.3787 21.8V0.2Z" fill="#C2796A"/>
<path fill-rule="evenodd" clip-rule="evenodd" d="M47.3787 4.20011C47.3787 4.08965 47.2891 4.00011 47.1787 4.00011H0.2C0.0895431 4.00011 0 4.08965 0 4.20011V25.8001C0 25.9106 0.0895436 26.0001 0.200001 26.0001H47.1787C47.2891 26.0001 47.3787 25.9106 47.3787 25.8001V4.20011ZM15.2297 13.1193V13.3068V20.3881C15.2297 20.4985 15.3192 20.5881 15.4297 20.5881H16.4985C16.6089 20.5881 16.6985 20.4985 16.6985 20.3881V10.0302C16.6985 9.91978 16.6089 9.83024 16.4985 9.83024H15.4749C15.4323 9.83024 15.3909 9.84374 15.3568 9.86915C15.2855 9.92223 15.1963 9.98999 15.0891 10.0724C14.9589 10.1714 14.8104 10.2834 14.6438 10.4084C14.4771 10.5334 14.3 10.6636 14.1125 10.799C13.9302 10.9292 13.7505 11.0568 13.5735 11.1818C13.3964 11.3068 13.2297 11.4214 13.0735 11.5256C12.9788 11.5855 12.8936 11.6379 12.8181 11.6825C12.7392 11.7291 12.6991 11.822 12.7223 11.9107L12.9682 12.8506C13.0015 12.9781 13.1469 13.039 13.2597 12.9708C13.4901 12.8317 13.751 12.665 14.0422 12.4709C14.3247 12.2825 14.6154 12.0642 14.9143 11.8159C15.0484 11.7045 15.2553 11.8006 15.2517 11.975C15.2496 12.0751 15.2474 12.1727 15.2453 12.2677C15.2453 12.3667 15.2427 12.4683 15.2375 12.5724C15.2375 12.6714 15.2349 12.7677 15.2297 12.8615V13.1193ZM19.3547 13.8849C19.3182 14.3224 19.3 14.7469 19.3 15.1584C19.3 15.5698 19.3182 15.9969 19.3547 16.4396C19.3912 16.8771 19.4563 17.3042 19.55 17.7209C19.6438 18.1375 19.774 18.5334 19.9406 18.9084C20.1073 19.2782 20.3209 19.6037 20.5813 19.8849C20.8417 20.161 21.1542 20.3823 21.5188 20.549C21.8886 20.7104 22.3235 20.7912 22.8235 20.7912C23.2922 20.7912 23.7037 20.7157 24.0578 20.5646C24.4172 20.4084 24.7271 20.1974 24.9875 19.9318C25.2479 19.6662 25.4667 19.3537 25.6438 18.9943C25.8209 18.6297 25.9615 18.2391 26.0656 17.8224C26.1698 17.4058 26.2427 16.9709 26.2844 16.5177C26.3313 16.0646 26.3547 15.6115 26.3547 15.1584C26.3547 14.7052 26.3313 14.2521 26.2844 13.799C26.2427 13.3459 26.1698 12.911 26.0656 12.4943C25.9615 12.0776 25.8209 11.6896 25.6438 11.3302C25.4667 10.9657 25.2479 10.6506 24.9875 10.3849C24.7271 10.1193 24.4172 9.91097 24.0578 9.75993C23.7037 9.60368 23.2922 9.52555 22.8235 9.52555C22.3235 9.52555 21.8886 9.60888 21.5188 9.77555C21.1542 9.93701 20.8417 10.1584 20.5813 10.4396C20.3209 10.7157 20.1073 11.0412 19.9406 11.4162C19.774 11.786 19.6438 12.1792 19.55 12.5959C19.4563 13.0125 19.3912 13.4422 19.3547 13.8849ZM24.7531 13.3537C24.8209 13.8849 24.8547 14.4865 24.8547 15.1584C24.8547 15.8302 24.8209 16.4344 24.7531 16.9709C24.6854 17.5021 24.5735 17.9552 24.4172 18.3302C24.261 18.7052 24.0526 18.9943 23.7922 19.1974C23.5318 19.3953 23.2115 19.4943 22.8313 19.4943C22.4146 19.4943 22.0735 19.3797 21.8078 19.1506C21.5422 18.9162 21.3339 18.6037 21.1828 18.2131C21.0318 17.8172 20.9276 17.3563 20.8703 16.8302C20.813 16.3042 20.7844 15.7469 20.7844 15.1584C20.7844 14.5698 20.813 14.0125 20.8703 13.4865C20.9276 12.9604 21.0318 12.5021 21.1828 12.1115C21.3339 11.7157 21.5422 11.4032 21.8078 11.174C22.0735 10.9396 22.4146 10.8224 22.8313 10.8224C23.2115 10.8224 23.5318 10.924 23.7922 11.1271C24.0526 11.325 24.261 11.6115 24.4172 11.9865C24.5735 12.3615 24.6854 12.8172 24.7531 13.3537ZM28.9103 20.0701C29.4983 20.5087 30.3383 20.7281 31.4303 20.7281C31.9903 20.7281 32.5363 20.6674 33.0683 20.5461C33.5381 20.4389 33.9242 20.3209 34.2265 20.1919C34.2978 20.1615 34.3423 20.0906 34.3423 20.0131V19.3138C34.3423 19.1691 34.193 19.0715 34.058 19.1236C33.7782 19.2316 33.453 19.3371 33.0823 19.4401C32.5877 19.5707 32.0743 19.6361 31.5423 19.6361C30.0397 19.6361 29.2883 19.0947 29.2883 18.0121C29.2883 17.7974 29.3023 17.6294 29.3303 17.5081C29.351 17.4183 29.3845 17.3234 29.4308 17.2234C29.4618 17.1564 29.5305 17.1161 29.6043 17.1161H34.7303C34.8408 17.1161 34.9303 17.0265 34.9303 16.9161V16.4201C34.9303 16.3096 34.8408 16.2201 34.7303 16.2201H31.1199C30.9633 16.2201 30.9318 16.0596 31.0803 16.0101V16.0101C31.3603 15.9167 31.673 15.8047 32.0183 15.6741C32.3637 15.5434 32.695 15.4034 33.0123 15.2541C33.2897 15.1154 33.5029 14.9802 33.6519 14.8487C33.6917 14.8136 33.7421 14.7921 33.7952 14.7921H34.7303C34.8408 14.7921 34.9303 14.7025 34.9303 14.5921V14.0961C34.9303 13.9856 34.8408 13.8961 34.7303 13.8961H34.4839C34.3353 13.8961 34.2354 13.7372 34.2732 13.5934C34.2902 13.5289 34.3039 13.4618 34.3143 13.3921C34.3423 13.1961 34.3563 13.0001 34.3563 12.8041C34.3563 12.0107 34.081 11.4227 33.5303 11.0401C32.989 10.6481 32.247 10.4521 31.3043 10.4521C30.819 10.4521 30.3197 10.5081 29.8063 10.6201C29.3674 10.7158 28.9865 10.8321 28.6636 10.9688C28.5715 11.0077 28.5268 11.1111 28.557 11.2064L28.7854 11.9281C28.8219 12.0435 28.9516 12.1001 29.0629 12.0525C29.3267 11.9397 29.6165 11.8355 29.9323 11.7401C30.343 11.6187 30.777 11.5581 31.2343 11.5581C31.869 11.5581 32.3357 11.6841 32.6343 11.9361C32.933 12.1787 33.0823 12.5194 33.0823 12.9581C33.0823 13.1727 33.0637 13.3501 33.0263 13.4901C33.0056 13.5936 32.9721 13.6946 32.9259 13.7931C32.8954 13.8581 32.828 13.8961 32.7563 13.8961H27.7243C27.6139 13.8961 27.5243 13.9856 27.5243 14.0961V14.5921C27.5243 14.7025 27.6139 14.7921 27.7243 14.7921H31.2954C31.4301 14.7921 31.4592 14.9427 31.3323 14.9881V14.9881C31.071 15.0721 30.7677 15.1747 30.4223 15.2961C30.0863 15.4174 29.7597 15.5574 29.4423 15.7161C29.1662 15.85 28.9388 15.9989 28.7601 16.1628C28.7211 16.1986 28.6705 16.2201 28.6175 16.2201H27.7243C27.6139 16.2201 27.5243 16.3096 27.5243 16.4201V16.9161C27.5243 17.0265 27.6139 17.1161 27.7243 17.1161H27.8991C28.0373 17.1161 28.1344 17.2532 28.1032 17.3878C28.0533 17.6033 28.0283 17.8347 28.0283 18.0821C28.0283 18.9687 28.3223 19.6314 28.9103 20.0701Z" fill="#C2796A"/>
</svg>
