<svg width="52" height="26" viewBox="0 0 52 26" fill="none" xmlns="http://www.w3.org/2000/svg">
<path fill-rule="evenodd" clip-rule="evenodd" d="M49.3787 2.2C49.3787 2.08954 49.2892 2 49.1787 2H2.04048C1.93003 2 1.84048 2.08954 1.84048 2.2V3.13333C1.84048 3.24379 1.93003 3.33333 2.04048 3.33333H47.716C47.8264 3.33333 47.916 3.42287 47.916 3.53333V23.8C47.916 23.9105 48.0055 24 48.116 24H49.1787C49.2892 24 49.3787 23.9105 49.3787 23.8V2.2Z" fill="#C0C8B1"/>
<path fill-rule="evenodd" clip-rule="evenodd" d="M51.3787 0.2C51.3787 0.089543 51.2892 0 51.1787 0H3.78392C3.67347 0 3.58392 0.0895433 3.58392 0.2V1.13334C3.58392 1.2438 3.67347 1.33334 3.78392 1.33334H49.7075C49.8179 1.33334 49.9075 1.42289 49.9075 1.53334V21.8C49.9075 21.9105 49.997 22 50.1075 22H51.1787C51.2892 22 51.3787 21.9105 51.3787 21.8V0.2Z" fill="#C0C8B1"/>
<path fill-rule="evenodd" clip-rule="evenodd" d="M47.3787 4.20011C47.3787 4.08965 47.2891 4.00011 47.1787 4.00011H0.2C0.0895431 4.00011 0 4.08965 0 4.20011V25.8001C0 25.9106 0.0895436 26.0001 0.200001 26.0001H47.1787C47.2891 26.0001 47.3787 25.9106 47.3787 25.8001V4.20011ZM14.9973 13.1193V13.3068V20.3881C14.9973 20.4985 15.0868 20.5881 15.1973 20.5881H16.266C16.3765 20.5881 16.466 20.4985 16.466 20.3881V10.0302C16.466 9.91978 16.3765 9.83024 16.266 9.83024H15.2424C15.1999 9.83024 15.1585 9.84374 15.1243 9.86915C15.0531 9.92223 14.9638 9.98999 14.8567 10.0724C14.7264 10.1714 14.578 10.2834 14.4113 10.4084C14.2447 10.5334 14.0676 10.6636 13.8801 10.799C13.6978 10.9292 13.5181 11.0568 13.341 11.1818C13.1639 11.3068 12.9973 11.4214 12.841 11.5256C12.7463 11.5855 12.6612 11.6379 12.5856 11.6825C12.5068 11.7291 12.4667 11.822 12.4899 11.9107L12.7358 12.8506C12.7691 12.9781 12.9144 13.039 13.0273 12.9708C13.2577 12.8317 13.5185 12.665 13.8098 12.4709C14.0923 12.2825 14.383 12.0642 14.6818 11.8159C14.816 11.7045 15.0229 11.8006 15.0192 11.975C15.0171 12.0751 15.015 12.1727 15.0129 12.2677C15.0129 12.3667 15.0103 12.4683 15.0051 12.5724C15.0051 12.6714 15.0025 12.7677 14.9973 12.8615V13.1193ZM19.1223 13.8849C19.0858 14.3224 19.0676 14.7469 19.0676 15.1584C19.0676 15.5698 19.0858 15.9969 19.1223 16.4396C19.1587 16.8771 19.2238 17.3042 19.3176 17.7209C19.4113 18.1375 19.5416 18.5334 19.7082 18.9084C19.8749 19.2782 20.0884 19.6037 20.3488 19.8849C20.6093 20.161 20.9218 20.3823 21.2863 20.549C21.6561 20.7104 22.091 20.7912 22.591 20.7912C23.0598 20.7912 23.4712 20.7157 23.8254 20.5646C24.1848 20.4084 24.4947 20.1974 24.7551 19.9318C25.0155 19.6662 25.2343 19.3537 25.4113 18.9943C25.5884 18.6297 25.7291 18.2391 25.8332 17.8224C25.9374 17.4058 26.0103 16.9709 26.052 16.5177C26.0988 16.0646 26.1223 15.6115 26.1223 15.1584C26.1223 14.7052 26.0988 14.2521 26.052 13.799C26.0103 13.3459 25.9374 12.911 25.8332 12.4943C25.7291 12.0776 25.5884 11.6896 25.4113 11.3302C25.2343 10.9657 25.0155 10.6506 24.7551 10.3849C24.4947 10.1193 24.1848 9.91097 23.8254 9.75993C23.4712 9.60368 23.0598 9.52555 22.591 9.52555C22.091 9.52555 21.6561 9.60888 21.2863 9.77555C20.9218 9.93701 20.6093 10.1584 20.3488 10.4396C20.0884 10.7157 19.8749 11.0412 19.7082 11.4162C19.5416 11.786 19.4113 12.1792 19.3176 12.5959C19.2238 13.0125 19.1587 13.4422 19.1223 13.8849ZM24.5207 13.3537C24.5884 13.8849 24.6223 14.4865 24.6223 15.1584C24.6223 15.8302 24.5884 16.4344 24.5207 16.9709C24.453 17.5021 24.341 17.9552 24.1848 18.3302C24.0285 18.7052 23.8202 18.9943 23.5598 19.1974C23.2994 19.3953 22.9791 19.4943 22.5988 19.4943C22.1822 19.4943 21.841 19.3797 21.5754 19.1506C21.3098 18.9162 21.1014 18.6037 20.9504 18.2131C20.7994 17.8172 20.6952 17.3563 20.6379 16.8302C20.5806 16.3042 20.552 15.7469 20.552 15.1584C20.552 14.5698 20.5806 14.0125 20.6379 13.4865C20.6952 12.9604 20.7994 12.5021 20.9504 12.1115C21.1014 11.7157 21.3098 11.4032 21.5754 11.174C21.841 10.9396 22.1822 10.8224 22.5988 10.8224C22.9791 10.8224 23.2994 10.924 23.5598 11.1271C23.8202 11.325 24.0285 11.6115 24.1848 11.9865C24.341 12.3615 24.453 12.8172 24.5207 13.3537ZM28.2959 18.6841C28.4064 18.6841 28.4959 18.7736 28.4959 18.8841V20.3881C28.4959 20.4985 28.5855 20.5881 28.6959 20.5881H29.5559C29.6664 20.5881 29.7559 20.4985 29.7559 20.3881V18.8841C29.7559 18.7736 29.8455 18.6841 29.9559 18.6841H31.8659C31.9764 18.6841 32.0659 18.5945 32.0659 18.4841V17.9741C32.0659 17.8636 31.9764 17.7741 31.8659 17.7741H29.9559C29.8455 17.7741 29.7559 17.6845 29.7559 17.5741V16.7281C29.7559 16.6176 29.8455 16.5281 29.9559 16.5281H30.9319C32.1826 16.5281 33.1299 16.2621 33.7739 15.7301C34.4179 15.1887 34.7399 14.442 34.7399 13.4901C34.7399 12.5474 34.4412 11.8287 33.8439 11.3341C33.2559 10.8394 32.3506 10.5921 31.1279 10.5921H28.6959C28.5855 10.5921 28.4959 10.6816 28.4959 10.7921V15.2641C28.4959 15.3745 28.4064 15.4641 28.2959 15.4641H27.4779C27.3675 15.4641 27.2779 15.5536 27.2779 15.6641V16.3281C27.2779 16.4385 27.3675 16.5281 27.4779 16.5281H28.2959C28.4064 16.5281 28.4959 16.6176 28.4959 16.7281V17.5741C28.4959 17.6845 28.4064 17.7741 28.2959 17.7741H27.4779C27.3675 17.7741 27.2779 17.8636 27.2779 17.9741V18.4841C27.2779 18.5945 27.3675 18.6841 27.4779 18.6841H28.2959ZM32.7239 15.0441C32.2572 15.3241 31.5992 15.4641 30.7499 15.4641H29.9559C29.8455 15.4641 29.7559 15.3745 29.7559 15.2641V11.8561C29.7559 11.7456 29.8455 11.6561 29.9559 11.6561H31.0159C31.8466 11.6561 32.4579 11.8101 32.8499 12.1181C33.2419 12.4261 33.4379 12.8974 33.4379 13.5321C33.4379 14.2601 33.1999 14.7641 32.7239 15.0441Z" fill="#C0C8B1"/>
</svg>
