<svg width="52" height="26" viewBox="0 0 52 26" fill="none" xmlns="http://www.w3.org/2000/svg">
<path fill-rule="evenodd" clip-rule="evenodd" d="M49.3787 2.2C49.3787 2.08954 49.2892 2 49.1787 2H2.04045C1.93 2 1.84045 2.08954 1.84045 2.2V3.13333C1.84045 3.24379 1.93 3.33333 2.04045 3.33333H47.716C47.8264 3.33333 47.916 3.42287 47.916 3.53333V23.8C47.916 23.9105 48.0055 24 48.116 24H49.1787C49.2892 24 49.3787 23.9105 49.3787 23.8V2.2Z" fill="#E6D4B3"/>
<path fill-rule="evenodd" clip-rule="evenodd" d="M51.3787 0.2C51.3787 0.089543 51.2892 0 51.1787 0H3.78392C3.67347 0 3.58392 0.0895433 3.58392 0.2V1.13334C3.58392 1.2438 3.67347 1.33334 3.78392 1.33334H49.7075C49.8179 1.33334 49.9075 1.42289 49.9075 1.53334V21.8C49.9075 21.9105 49.997 22 50.1075 22H51.1787C51.2892 22 51.3787 21.9105 51.3787 21.8V0.2Z" fill="#E6D4B3"/>
<path fill-rule="evenodd" clip-rule="evenodd" d="M47.3787 4.20012C47.3787 4.08967 47.2891 4.00012 47.1787 4.00012H0.2C0.0895431 4.00012 0 4.08967 0 4.20012V25.8001C0 25.9106 0.0895436 26.0001 0.200001 26.0001H47.1787C47.2891 26.0001 47.3787 25.9106 47.3787 25.8001V4.20012ZM15.3117 13.1193V13.3068V20.3881C15.3117 20.4985 15.4013 20.5881 15.5117 20.5881H16.5805C16.6909 20.5881 16.7805 20.4985 16.7805 20.3881V10.0303C16.7805 9.9198 16.6909 9.83025 16.5805 9.83025H15.5569C15.5144 9.83025 15.4729 9.84376 15.4388 9.86916C15.3675 9.92224 15.2783 9.99 15.1711 10.0724C15.0409 10.1714 14.8925 10.2834 14.7258 10.4084C14.5591 10.5334 14.382 10.6636 14.1945 10.799C14.0123 10.9292 13.8326 11.0568 13.6555 11.1818C13.4784 11.3068 13.3117 11.4214 13.1555 11.5256C13.0608 11.5855 12.9757 11.6379 12.9001 11.6825C12.8212 11.7292 12.7811 11.8221 12.8043 11.9107L13.0502 12.8506C13.0836 12.9781 13.2289 13.039 13.3417 12.9708C13.5722 12.8317 13.833 12.665 14.1242 12.4709C14.4067 12.2825 14.6974 12.0642 14.9963 11.816C15.1305 11.7045 15.3374 11.8006 15.3337 11.975C15.3316 12.0751 15.3295 12.1727 15.3274 12.2678C15.3274 12.3667 15.3248 12.4683 15.3195 12.5724C15.3195 12.6714 15.3169 12.7678 15.3117 12.8615V13.1193ZM19.4367 13.8849C19.4003 14.3224 19.382 14.7469 19.382 15.1584C19.382 15.5698 19.4003 15.9969 19.4367 16.4396C19.4732 16.8771 19.5383 17.3042 19.632 17.7209C19.7258 18.1375 19.856 18.5334 20.0227 18.9084C20.1893 19.2782 20.4029 19.6037 20.6633 19.8849C20.9237 20.161 21.2362 20.3823 21.6008 20.549C21.9706 20.7105 22.4055 20.7912 22.9055 20.7912C23.3742 20.7912 23.7857 20.7157 24.1399 20.5646C24.4992 20.4084 24.8091 20.1974 25.0695 19.9318C25.33 19.6662 25.5487 19.3537 25.7258 18.9943C25.9029 18.6297 26.0435 18.2391 26.1477 17.8224C26.2518 17.4058 26.3248 16.9709 26.3664 16.5178C26.4133 16.0646 26.4367 15.6115 26.4367 15.1584C26.4367 14.7053 26.4133 14.2521 26.3664 13.799C26.3248 13.3459 26.2518 12.911 26.1477 12.4943C26.0435 12.0776 25.9029 11.6896 25.7258 11.3303C25.5487 10.9657 25.33 10.6506 25.0695 10.3849C24.8091 10.1193 24.4992 9.91098 24.1399 9.75994C23.7857 9.60369 23.3742 9.52557 22.9055 9.52557C22.4055 9.52557 21.9706 9.6089 21.6008 9.77557C21.2362 9.93702 20.9237 10.1584 20.6633 10.4396C20.4029 10.7157 20.1893 11.0412 20.0227 11.4162C19.856 11.786 19.7258 12.1792 19.632 12.5959C19.5383 13.0125 19.4732 13.4422 19.4367 13.8849ZM24.8352 13.3537C24.9029 13.8849 24.9367 14.4865 24.9367 15.1584C24.9367 15.8303 24.9029 16.4344 24.8352 16.9709C24.7675 17.5021 24.6555 17.9553 24.4992 18.3303C24.343 18.7053 24.1347 18.9943 23.8742 19.1974C23.6138 19.3954 23.2935 19.4943 22.9133 19.4943C22.4966 19.4943 22.1555 19.3797 21.8899 19.1506C21.6242 18.9162 21.4159 18.6037 21.2649 18.2131C21.1138 17.8172 21.0097 17.3563 20.9524 16.8303C20.8951 16.3042 20.8664 15.7469 20.8664 15.1584C20.8664 14.5698 20.8951 14.0125 20.9524 13.4865C21.0097 12.9605 21.1138 12.5021 21.2649 12.1115C21.4159 11.7157 21.6242 11.4032 21.8899 11.174C22.1555 10.9396 22.4966 10.8224 22.9133 10.8224C23.2935 10.8224 23.6138 10.924 23.8742 11.1271C24.1347 11.325 24.343 11.6115 24.4992 11.9865C24.6555 12.3615 24.7675 12.8172 24.8352 13.3537ZM29.8996 20.2258C30.1128 20.2719 30.3343 20.3015 30.5641 20.3145C30.6732 20.3206 30.761 20.4092 30.761 20.5185V21.4887C30.761 21.5991 30.8505 21.6887 30.961 21.6887H31.4018C31.5122 21.6887 31.6018 21.5991 31.6018 21.4887V20.4709C31.6018 20.37 31.6771 20.2853 31.7769 20.2694C32.0816 20.2207 32.3719 20.1446 32.6477 20.0412C32.9758 19.9181 33.2629 19.7541 33.509 19.549C33.7597 19.3439 33.9579 19.0978 34.1037 18.8107C34.2496 18.5191 34.3225 18.1795 34.3225 17.7922C34.3225 17.4048 34.2427 17.0721 34.0832 16.7941C33.9237 16.5116 33.7164 16.27 33.4612 16.0695C33.2059 15.869 32.9166 15.7004 32.593 15.5637C32.3198 15.4466 32.0433 15.3429 31.7635 15.2525C31.6798 15.2255 31.6223 15.1481 31.6223 15.0602V12.7569C31.6223 12.6384 31.7249 12.5453 31.842 12.5634C31.9389 12.5784 32.032 12.5964 32.1213 12.6174C32.2808 12.6538 32.4266 12.704 32.5588 12.7678C32.6955 12.8316 32.8163 12.9113 32.9211 13.007C32.9807 13.0614 33.0344 13.1225 33.0822 13.1902C33.1443 13.2781 33.2584 13.3203 33.3564 13.2758L34.0149 12.976C34.1052 12.9349 34.1529 12.8333 34.1172 12.7407C34.0643 12.6032 33.9983 12.4801 33.9192 12.3713C33.8098 12.2163 33.6822 12.0864 33.5363 11.9816C33.3905 11.8722 33.2333 11.7834 33.0647 11.715C32.9006 11.6467 32.732 11.592 32.5588 11.551C32.3902 11.5054 32.2261 11.4735 32.0666 11.4553C31.9786 11.4452 31.8948 11.4365 31.8152 11.4293C31.7105 11.4197 31.6291 11.3327 31.6291 11.2276V10.5137C31.6291 10.4032 31.5396 10.3137 31.4291 10.3137H30.9815C30.871 10.3137 30.7815 10.4032 30.7815 10.5137V11.2573C30.7815 11.3586 30.7057 11.4434 30.6057 11.4591C30.3275 11.5028 30.0603 11.5699 29.8039 11.6603C29.4986 11.7697 29.2274 11.9201 28.9904 12.1115C28.758 12.2984 28.5712 12.5285 28.4299 12.8019C28.2932 13.0708 28.2248 13.383 28.2248 13.7385C28.2248 14.0757 28.2658 14.3719 28.3479 14.6271C28.4345 14.8778 28.5757 15.1034 28.7717 15.3039C28.9722 15.4999 29.2343 15.6776 29.5578 15.8371C29.849 15.9765 30.2029 16.1122 30.6195 16.2443C30.7034 16.2709 30.761 16.3484 30.761 16.4364V18.9622C30.761 19.0768 30.6647 19.1687 30.5509 19.1553C30.3742 19.1345 30.2118 19.0994 30.0637 19.05C29.8632 18.9771 29.6854 18.8905 29.5305 18.7902C29.3755 18.6854 29.2434 18.5737 29.134 18.4553C29.0788 18.3932 29.0283 18.3317 28.9824 18.2708C28.9123 18.1778 28.7803 18.1513 28.6847 18.2176C28.6111 18.2686 28.5376 18.3182 28.4641 18.3664C28.3753 18.4235 28.2842 18.485 28.191 18.5509C28.1176 18.6028 28.089 18.6983 28.1248 18.7807C28.2297 19.0218 28.3588 19.2323 28.5119 19.4123C28.6942 19.6219 28.9016 19.7951 29.134 19.9318C29.371 20.064 29.6262 20.162 29.8996 20.2258ZM32.8664 17.4162C32.9393 17.5484 32.9758 17.7033 32.9758 17.881C32.9758 18.0269 32.9485 18.1681 32.8938 18.3049C32.8436 18.4416 32.7639 18.5669 32.6545 18.6808C32.5451 18.7948 32.4039 18.8928 32.2307 18.9748C32.1172 19.03 31.9882 19.0728 31.8438 19.1033C31.7268 19.1279 31.6223 19.034 31.6223 18.9144V16.8435C31.6223 16.7038 31.7618 16.6073 31.8898 16.6629C31.9761 16.7004 32.0601 16.7396 32.1418 16.7804C32.3059 16.8579 32.4494 16.9491 32.5725 17.0539C32.6955 17.1587 32.7935 17.2795 32.8664 17.4162ZM29.6262 14.1486C29.5669 14.021 29.5373 13.8683 29.5373 13.6906C29.5373 13.5995 29.551 13.4992 29.5783 13.3898C29.6102 13.2759 29.6695 13.1665 29.7561 13.0617C29.8472 12.9523 29.9725 12.8543 30.132 12.7678C30.2443 12.7054 30.38 12.6526 30.5392 12.6095C30.6602 12.5767 30.7746 12.6719 30.7746 12.7973V14.6573C30.7746 14.7957 30.6373 14.8923 30.5096 14.8388C30.4307 14.8058 30.355 14.7717 30.2824 14.7365C30.132 14.6636 29.9999 14.5793 29.886 14.4836C29.7766 14.3879 29.69 14.2762 29.6262 14.1486Z" fill="#E6D4B3"/>
</svg>
