<svg width="52" height="26" viewBox="0 0 52 26" fill="none" xmlns="http://www.w3.org/2000/svg">
<path fill-rule="evenodd" clip-rule="evenodd" d="M49.3787 2.20012C49.3787 2.08967 49.2892 2.00012 49.1787 2.00012H2.04048C1.93003 2.00012 1.84048 2.08967 1.84048 2.20012V3.13345C1.84048 3.24391 1.93003 3.33345 2.04048 3.33345H47.716C47.8264 3.33345 47.916 3.423 47.916 3.53345V23.8001C47.916 23.9106 48.0055 24.0001 48.116 24.0001H49.1787C49.2892 24.0001 49.3787 23.9106 49.3787 23.8001V2.20012Z" fill="#E0BF7F"/>
<path fill-rule="evenodd" clip-rule="evenodd" d="M51.3787 0.200122C51.3787 0.0896651 51.2892 0.00012207 51.1787 0.00012207H3.78392C3.67347 0.00012207 3.58392 0.0896653 3.58392 0.200122V1.13347C3.58392 1.24392 3.67347 1.33347 3.78392 1.33347H49.7075C49.8179 1.33347 49.9075 1.42301 49.9075 1.53347V21.8001C49.9075 21.9106 49.997 22.0001 50.1075 22.0001H51.1787C51.2892 22.0001 51.3787 21.9106 51.3787 21.8001V0.200122Z" fill="#E0BF7F"/>
<path fill-rule="evenodd" clip-rule="evenodd" d="M47.3787 4.20023C47.3787 4.08977 47.2891 4.00023 47.1787 4.00023H0.2C0.0895431 4.00023 0 4.08977 0 4.20023V25.8002C0 25.9107 0.0895436 26.0002 0.200001 26.0002H47.1787C47.2891 26.0002 47.3787 25.9107 47.3787 25.8002V4.20023ZM19.7766 13.1194V13.3069V20.3882C19.7766 20.4986 19.8661 20.5882 19.9766 20.5882H21.0453C21.1558 20.5882 21.2453 20.4986 21.2453 20.3882V10.0304C21.2453 9.9199 21.1558 9.83036 21.0453 9.83036H20.0217C19.9792 9.83036 19.9378 9.84387 19.9036 9.86927C19.8324 9.92235 19.7431 9.99011 19.636 10.0725C19.5057 10.1715 19.3573 10.2835 19.1906 10.4085C19.024 10.5335 18.8469 10.6637 18.6594 10.7991C18.4771 10.9293 18.2974 11.0569 18.1203 11.1819C17.9432 11.3069 17.7766 11.4215 17.6203 11.5257C17.5256 11.5856 17.4405 11.638 17.3649 11.6826C17.2861 11.7293 17.246 11.8222 17.2691 11.9108L17.5151 12.8507C17.5484 12.9782 17.6937 13.0391 17.8066 12.971C18.037 12.8318 18.2978 12.6651 18.5891 12.471C18.8716 12.2826 19.1623 12.0643 19.4611 11.8161C19.5953 11.7046 19.8022 11.8007 19.7985 11.9751C19.7964 12.0752 19.7943 12.1728 19.7922 12.2679C19.7922 12.3668 19.7896 12.4684 19.7844 12.5725C19.7844 12.6715 19.7818 12.7679 19.7766 12.8616V13.1194ZM24.3635 20.0702C24.9515 20.5088 25.7915 20.7282 26.8835 20.7282C27.4435 20.7282 27.9895 20.6675 28.5215 20.5462C28.9912 20.439 29.3773 20.321 29.6797 20.192C29.7509 20.1616 29.7955 20.0907 29.7955 20.0133V19.3139C29.7955 19.1692 29.6462 19.0716 29.5111 19.1237C29.2313 19.2317 28.9061 19.3372 28.5355 19.4402C28.0408 19.5708 27.5275 19.6362 26.9955 19.6362C25.4928 19.6362 24.7415 19.0948 24.7415 18.0122C24.7415 17.7975 24.7555 17.6295 24.7835 17.5082C24.8042 17.4184 24.8377 17.3235 24.8839 17.2236C24.9149 17.1565 24.9836 17.1162 25.0575 17.1162H30.1835C30.2939 17.1162 30.3835 17.0266 30.3835 16.9162V16.4202C30.3835 16.3097 30.2939 16.2202 30.1835 16.2202H26.573C26.4164 16.2202 26.3849 16.0597 26.5335 16.0102V16.0102C26.8135 15.9168 27.1261 15.8048 27.4715 15.6742C27.8168 15.5435 28.1481 15.4035 28.4655 15.2542C28.7428 15.1155 28.956 14.9804 29.105 14.8488C29.1448 14.8137 29.1953 14.7922 29.2483 14.7922H30.1835C30.2939 14.7922 30.3835 14.7026 30.3835 14.5922V14.0962C30.3835 13.9857 30.2939 13.8962 30.1835 13.8962H29.9371C29.7884 13.8962 29.6885 13.7373 29.7263 13.5935C29.7433 13.529 29.757 13.4619 29.7675 13.3922C29.7955 13.1962 29.8095 13.0002 29.8095 12.8042C29.8095 12.0108 29.5341 11.4228 28.9835 11.0402C28.4421 10.6482 27.7001 10.4522 26.7575 10.4522C26.2721 10.4522 25.7728 10.5082 25.2595 10.6202C24.8205 10.7159 24.4396 10.8322 24.1167 10.9689C24.0246 11.0079 23.9799 11.1112 24.0101 11.2066L24.2385 11.9282C24.275 12.0436 24.4048 12.1002 24.516 12.0526C24.7798 11.9398 25.0696 11.8357 25.3855 11.7402C25.7961 11.6188 26.2301 11.5582 26.6875 11.5582C27.3221 11.5582 27.7888 11.6842 28.0875 11.9362C28.3861 12.1788 28.5355 12.5195 28.5355 12.9582C28.5355 13.1728 28.5168 13.3502 28.4795 13.4902C28.4587 13.5937 28.4253 13.6948 28.379 13.7932C28.3485 13.8582 28.2812 13.8962 28.2094 13.8962H23.1775C23.067 13.8962 22.9775 13.9857 22.9775 14.0962V14.5922C22.9775 14.7026 23.067 14.7922 23.1775 14.7922H26.7485C26.8832 14.7922 26.9124 14.9428 26.7855 14.9882V14.9882C26.5241 15.0722 26.2208 15.1748 25.8755 15.2962C25.5395 15.4175 25.2128 15.5575 24.8955 15.7162C24.6193 15.8501 24.3919 15.999 24.2133 16.1629C24.1742 16.1988 24.1237 16.2202 24.0706 16.2202H23.1775C23.067 16.2202 22.9775 16.3097 22.9775 16.4202V16.9162C22.9775 17.0266 23.067 17.1162 23.1775 17.1162H23.3523C23.4904 17.1162 23.5875 17.2533 23.5563 17.3879C23.5064 17.6034 23.4815 17.8349 23.4815 18.0822C23.4815 18.9688 23.7755 19.6315 24.3635 20.0702Z" fill="#E0BF7F"/>
</svg>
