<svg width="52" height="26" viewBox="0 0 52 26" fill="none" xmlns="http://www.w3.org/2000/svg">
<path fill-rule="evenodd" clip-rule="evenodd" d="M49.3787 2.2C49.3787 2.08954 49.2892 2 49.1787 2H2.04048C1.93003 2 1.84048 2.08954 1.84048 2.2V3.13333C1.84048 3.24379 1.93003 3.33333 2.04048 3.33333H47.716C47.8264 3.33333 47.916 3.42287 47.916 3.53333V23.8C47.916 23.9105 48.0055 24 48.116 24H49.1787C49.2892 24 49.3787 23.9105 49.3787 23.8V2.2Z" fill="#EAE5D2"/>
<path fill-rule="evenodd" clip-rule="evenodd" d="M51.3787 0.2C51.3787 0.089543 51.2892 0 51.1787 0H3.78392C3.67347 0 3.58392 0.0895433 3.58392 0.2V1.13334C3.58392 1.2438 3.67347 1.33334 3.78392 1.33334H49.7075C49.8179 1.33334 49.9075 1.42289 49.9075 1.53334V21.8C49.9075 21.9105 49.997 22 50.1075 22H51.1787C51.2892 22 51.3787 21.9105 51.3787 21.8V0.2Z" fill="#EAE5D2"/>
<path fill-rule="evenodd" clip-rule="evenodd" d="M47.3787 4.20012C47.3787 4.08967 47.2891 4.00012 47.1787 4.00012H0.2C0.0895431 4.00012 0 4.08967 0 4.20012V25.8001C0 25.9106 0.0895436 26.0001 0.200001 26.0001H47.1787C47.2891 26.0001 47.3787 25.9106 47.3787 25.8001V4.20012ZM19.8586 13.1193V13.3068V20.3881C19.8586 20.4985 19.9482 20.5881 20.0586 20.5881H21.1274C21.2378 20.5881 21.3274 20.4985 21.3274 20.3881V10.0303C21.3274 9.9198 21.2378 9.83025 21.1274 9.83025H20.1038C20.0612 9.83025 20.0198 9.84376 19.9857 9.86916C19.9144 9.92224 19.8252 9.99 19.718 10.0724C19.5878 10.1714 19.4393 10.2834 19.2727 10.4084C19.106 10.5334 18.9289 10.6636 18.7414 10.799C18.5591 10.9292 18.3794 11.0568 18.2024 11.1818C18.0253 11.3068 17.8586 11.4214 17.7024 11.5256C17.6077 11.5855 17.5225 11.6379 17.447 11.6825C17.3681 11.7292 17.328 11.8221 17.3512 11.9107L17.5971 12.8506C17.6304 12.9781 17.7758 13.039 17.8886 12.9708C18.119 12.8317 18.3799 12.665 18.6711 12.4709C18.9536 12.2825 19.2443 12.0642 19.5432 11.816C19.6773 11.7045 19.8842 11.8006 19.8806 11.975C19.8785 12.0751 19.8763 12.1727 19.8742 12.2678C19.8742 12.3667 19.8716 12.4683 19.8664 12.5724C19.8664 12.6714 19.8638 12.7678 19.8586 12.8615V13.1193ZM25.3528 20.2258C25.5659 20.2719 25.7874 20.3015 26.0172 20.3145C26.1263 20.3206 26.2141 20.4092 26.2141 20.5185V21.4887C26.2141 21.5991 26.3036 21.6887 26.4141 21.6887H26.8549C26.9654 21.6887 27.0549 21.5991 27.0549 21.4887V20.4709C27.0549 20.37 27.1303 20.2853 27.23 20.2694C27.5347 20.2207 27.825 20.1446 28.1008 20.0412C28.4289 19.9181 28.716 19.7541 28.9621 19.549C29.2128 19.3439 29.411 19.0978 29.5569 18.8107C29.7027 18.5191 29.7756 18.1795 29.7756 17.7922C29.7756 17.4048 29.6959 17.0721 29.5363 16.7941C29.3768 16.5116 29.1695 16.27 28.9143 16.0695C28.6591 15.869 28.3697 15.7004 28.0461 15.5637C27.773 15.4466 27.4965 15.3429 27.2166 15.2525C27.1329 15.2255 27.0754 15.1481 27.0754 15.0602V12.7569C27.0754 12.6384 27.178 12.5453 27.2952 12.5634C27.392 12.5784 27.4851 12.5964 27.5744 12.6174C27.7339 12.6538 27.8798 12.704 28.0119 12.7678C28.1486 12.8316 28.2694 12.9113 28.3742 13.007C28.4338 13.0614 28.4875 13.1225 28.5354 13.1902C28.5975 13.2781 28.7116 13.3203 28.8095 13.2758L29.468 12.976C29.5583 12.9349 29.606 12.8333 29.5703 12.7407C29.5175 12.6032 29.4514 12.4801 29.3723 12.3713C29.2629 12.2163 29.1353 12.0864 28.9895 11.9816C28.8436 11.8722 28.6864 11.7834 28.5178 11.715C28.3537 11.6467 28.1851 11.592 28.0119 11.551C27.8433 11.5054 27.6792 11.4735 27.5197 11.4553C27.4318 11.4452 27.348 11.4365 27.2683 11.4293C27.1636 11.4197 27.0822 11.3327 27.0822 11.2276V10.5137C27.0822 10.4032 26.9927 10.3137 26.8822 10.3137H26.4346C26.3241 10.3137 26.2346 10.4032 26.2346 10.5137V11.2573C26.2346 11.3586 26.1588 11.4434 26.0588 11.4591C25.7807 11.5028 25.5134 11.5699 25.257 11.6603C24.9517 11.7697 24.6806 11.9201 24.4436 12.1115C24.2111 12.2984 24.0243 12.5285 23.883 12.8019C23.7463 13.0708 23.6779 13.383 23.6779 13.7385C23.6779 14.0757 23.719 14.3719 23.801 14.6271C23.8876 14.8778 24.0289 15.1034 24.2248 15.3039C24.4253 15.4999 24.6874 15.6776 25.011 15.8371C25.3021 15.9765 25.656 16.1122 26.0726 16.2443C26.1565 16.2709 26.2141 16.3484 26.2141 16.4364V18.9622C26.2141 19.0768 26.1178 19.1687 26.0041 19.1553C25.8274 19.1345 25.665 19.0994 25.5168 19.05C25.3163 18.9771 25.1386 18.8905 24.9836 18.7902C24.8287 18.6854 24.6965 18.5737 24.5871 18.4553C24.5319 18.3932 24.4814 18.3317 24.4355 18.2708C24.3655 18.1778 24.2334 18.1513 24.1378 18.2176C24.0643 18.2686 23.9907 18.3182 23.9172 18.3664C23.8284 18.4235 23.7373 18.485 23.6441 18.5509C23.5707 18.6028 23.5421 18.6983 23.578 18.7807C23.6829 19.0218 23.8119 19.2323 23.9651 19.4123C24.1473 19.6219 24.3547 19.7951 24.5871 19.9318C24.8241 20.064 25.0793 20.162 25.3528 20.2258ZM28.3195 17.4162C28.3925 17.5484 28.4289 17.7033 28.4289 17.881C28.4289 18.0269 28.4016 18.1681 28.3469 18.3049C28.2968 18.4416 28.217 18.5669 28.1076 18.6808C27.9983 18.7948 27.857 18.8928 27.6838 18.9748C27.5703 19.03 27.4414 19.0728 27.2969 19.1033C27.1799 19.1279 27.0754 19.034 27.0754 18.9144V16.8435C27.0754 16.7038 27.2149 16.6073 27.343 16.6629C27.4292 16.7004 27.5132 16.7396 27.5949 16.7804C27.759 16.8579 27.9026 16.9491 28.0256 17.0539C28.1486 17.1587 28.2466 17.2795 28.3195 17.4162ZM25.0793 14.1486C25.0201 14.021 24.9904 13.8683 24.9904 13.6906C24.9904 13.5995 25.0041 13.4992 25.0315 13.3898C25.0634 13.2759 25.1226 13.1665 25.2092 13.0617C25.3003 12.9523 25.4257 12.8543 25.5852 12.7678C25.6974 12.7054 25.8331 12.6526 25.9923 12.6095C26.1134 12.5767 26.2278 12.6719 26.2278 12.7973V14.6573C26.2278 14.7957 26.0904 14.8923 25.9627 14.8388C25.8838 14.8058 25.8081 14.7717 25.7356 14.7365C25.5852 14.6636 25.453 14.5793 25.3391 14.4836C25.2297 14.3879 25.1431 14.2762 25.0793 14.1486Z" fill="#EAE5D2"/>
</svg>
