<svg width="52" height="26" viewBox="0 0 52 26" fill="none" xmlns="http://www.w3.org/2000/svg">
<path fill-rule="evenodd" clip-rule="evenodd" d="M49.3787 2.2C49.3787 2.08954 49.2892 2 49.1787 2H2.04048C1.93003 2 1.84048 2.08954 1.84048 2.2V3.13333C1.84048 3.24379 1.93003 3.33333 2.04048 3.33333H47.716C47.8264 3.33333 47.916 3.42287 47.916 3.53333V23.8C47.916 23.9105 48.0055 24 48.116 24H49.1787C49.2892 24 49.3787 23.9105 49.3787 23.8V2.2Z" fill="#EED88E"/>
<path fill-rule="evenodd" clip-rule="evenodd" d="M51.3787 0.2C51.3787 0.089543 51.2892 0 51.1787 0H3.78392C3.67347 0 3.58392 0.0895433 3.58392 0.2V1.13334C3.58392 1.2438 3.67347 1.33334 3.78392 1.33334H49.7075C49.8179 1.33334 49.9075 1.42289 49.9075 1.53334V21.8C49.9075 21.9105 49.997 22 50.1075 22H51.1787C51.2892 22 51.3787 21.9105 51.3787 21.8V0.2Z" fill="#EED88E"/>
<path fill-rule="evenodd" clip-rule="evenodd" d="M47.3787 4.20012C47.3787 4.08967 47.2891 4.00012 47.1787 4.00012H0.2C0.0895431 4.00012 0 4.08967 0 4.20012V25.8001C0 25.9106 0.0895436 26.0001 0.200001 26.0001H47.1787C47.2891 26.0001 47.3787 25.9106 47.3787 25.8001V4.20012ZM8.28342 10.1818C7.7867 10.5257 7.37538 11.0492 7.04948 11.7522C7.00087 11.857 7.05554 11.9796 7.16469 12.0175L8.06394 12.33C8.16489 12.3651 8.27523 12.3145 8.31963 12.2172C8.36642 12.1148 8.41945 12.0092 8.47873 11.9006C8.57248 11.7287 8.69487 11.5698 8.84592 11.424C8.99696 11.2782 9.18446 11.1584 9.40842 11.0646C9.63237 10.9657 9.90581 10.9162 10.2287 10.9162C10.5412 10.9162 10.8042 10.9683 11.0178 11.0724C11.2313 11.1766 11.4032 11.312 11.5334 11.4787C11.6636 11.6401 11.7574 11.8224 11.8147 12.0256C11.872 12.2235 11.9006 12.4188 11.9006 12.6115C11.9006 12.8928 11.8355 13.187 11.7053 13.4943C11.5803 13.8016 11.4084 14.1167 11.1897 14.4396C10.9709 14.7625 10.7183 15.0907 10.4319 15.424C10.1454 15.7573 9.84592 16.0881 9.53342 16.4162L6.90132 19.1707C6.86576 19.2079 6.84592 19.2574 6.84592 19.3089V20.3881C6.84592 20.4985 6.93546 20.5881 7.04592 20.5881H13.435C13.5454 20.5881 13.635 20.4985 13.635 20.3881V19.4599C13.635 19.3495 13.5454 19.2599 13.435 19.2599H9.05345C8.87665 19.2599 8.78681 19.0474 8.91 18.9206L10.4475 17.3381C10.9944 16.7704 11.4553 16.2625 11.8303 15.8146C12.2105 15.3667 12.5152 14.9579 12.7444 14.5881C12.9787 14.2131 13.1454 13.8641 13.2444 13.5412C13.3485 13.2183 13.4006 12.9006 13.4006 12.5881C13.4006 12.0776 13.3199 11.6375 13.1584 11.2678C12.997 10.8928 12.7782 10.5829 12.5022 10.3381C12.2261 10.0933 11.9032 9.91359 11.5334 9.799C11.1636 9.67921 10.7704 9.61932 10.3537 9.61932C9.51519 9.61932 8.82508 9.80682 8.28342 10.1818ZM15.5725 13.8849C15.536 14.3224 15.5178 14.7469 15.5178 15.1584C15.5178 15.5698 15.536 15.9969 15.5725 16.4396C15.6089 16.8771 15.674 17.3042 15.7678 17.7209C15.8615 18.1375 15.9917 18.5334 16.1584 18.9084C16.3251 19.2782 16.5386 19.6037 16.799 19.8849C17.0595 20.161 17.372 20.3823 17.7365 20.549C18.1063 20.7105 18.5412 20.7912 19.0412 20.7912C19.51 20.7912 19.9214 20.7157 20.2756 20.5646C20.635 20.4084 20.9449 20.1974 21.2053 19.9318C21.4657 19.6662 21.6845 19.3537 21.8615 18.9943C22.0386 18.6297 22.1792 18.2391 22.2834 17.8224C22.3876 17.4058 22.4605 16.9709 22.5022 16.5178C22.549 16.0646 22.5725 15.6115 22.5725 15.1584C22.5725 14.7053 22.549 14.2521 22.5022 13.799C22.4605 13.3459 22.3876 12.911 22.2834 12.4943C22.1792 12.0776 22.0386 11.6896 21.8615 11.3303C21.6845 10.9657 21.4657 10.6506 21.2053 10.3849C20.9449 10.1193 20.635 9.91098 20.2756 9.75994C19.9214 9.60369 19.51 9.52557 19.0412 9.52557C18.5412 9.52557 18.1063 9.6089 17.7365 9.77557C17.372 9.93702 17.0595 10.1584 16.799 10.4396C16.5386 10.7157 16.3251 11.0412 16.1584 11.4162C15.9917 11.786 15.8615 12.1792 15.7678 12.5959C15.674 13.0125 15.6089 13.4422 15.5725 13.8849ZM20.9709 13.3537C21.0386 13.8849 21.0725 14.4865 21.0725 15.1584C21.0725 15.8303 21.0386 16.4344 20.9709 16.9709C20.9032 17.5021 20.7912 17.9553 20.635 18.3303C20.4787 18.7053 20.2704 18.9943 20.01 19.1974C19.7496 19.3954 19.4292 19.4943 19.049 19.4943C18.6324 19.4943 18.2912 19.3797 18.0256 19.1506C17.76 18.9162 17.5516 18.6037 17.4006 18.2131C17.2496 17.8172 17.1454 17.3563 17.0881 16.8303C17.0308 16.3042 17.0022 15.7469 17.0022 15.1584C17.0022 14.5698 17.0308 14.0125 17.0881 13.4865C17.1454 12.9605 17.2496 12.5021 17.4006 12.1115C17.5516 11.7157 17.76 11.4032 18.0256 11.174C18.2912 10.9396 18.6324 10.8224 19.049 10.8224C19.4292 10.8224 19.7496 10.924 20.01 11.1271C20.2704 11.325 20.4787 11.6115 20.635 11.9865C20.7912 12.3615 20.9032 12.8172 20.9709 13.3537ZM24.6662 13.8849C24.6298 14.3224 24.6115 14.7469 24.6115 15.1584C24.6115 15.5698 24.6298 15.9969 24.6662 16.4396C24.7027 16.8771 24.7678 17.3042 24.8615 17.7209C24.9553 18.1375 25.0855 18.5334 25.2522 18.9084C25.4188 19.2782 25.6324 19.6037 25.8928 19.8849C26.1532 20.161 26.4657 20.3823 26.8303 20.549C27.2001 20.7105 27.635 20.7912 28.135 20.7912C28.6037 20.7912 29.0152 20.7157 29.3694 20.5646C29.7287 20.4084 30.0386 20.1974 30.299 19.9318C30.5595 19.6662 30.7782 19.3537 30.9553 18.9943C31.1324 18.6297 31.273 18.2391 31.3772 17.8224C31.4813 17.4058 31.5542 16.9709 31.5959 16.5178C31.6428 16.0646 31.6662 15.6115 31.6662 15.1584C31.6662 14.7053 31.6428 14.2521 31.5959 13.799C31.5542 13.3459 31.4813 12.911 31.3772 12.4943C31.273 12.0776 31.1324 11.6896 30.9553 11.3303C30.7782 10.9657 30.5595 10.6506 30.299 10.3849C30.0386 10.1193 29.7287 9.91098 29.3694 9.75994C29.0152 9.60369 28.6037 9.52557 28.135 9.52557C27.635 9.52557 27.2001 9.6089 26.8303 9.77557C26.4657 9.93702 26.1532 10.1584 25.8928 10.4396C25.6324 10.7157 25.4188 11.0412 25.2522 11.4162C25.0855 11.786 24.9553 12.1792 24.8615 12.5959C24.7678 13.0125 24.7027 13.4422 24.6662 13.8849ZM30.0647 13.3537C30.1324 13.8849 30.1662 14.4865 30.1662 15.1584C30.1662 15.8303 30.1324 16.4344 30.0647 16.9709C29.997 17.5021 29.885 17.9553 29.7287 18.3303C29.5725 18.7053 29.3641 18.9943 29.1037 19.1974C28.8433 19.3954 28.523 19.4943 28.1428 19.4943C27.7261 19.4943 27.385 19.3797 27.1194 19.1506C26.8537 18.9162 26.6454 18.6037 26.4944 18.2131C26.3433 17.8172 26.2391 17.3563 26.1819 16.8303C26.1246 16.3042 26.0959 15.7469 26.0959 15.1584C26.0959 14.5698 26.1246 14.0125 26.1819 13.4865C26.2391 12.9605 26.3433 12.5021 26.4944 12.1115C26.6454 11.7157 26.8537 11.4032 27.1194 11.174C27.385 10.9396 27.7261 10.8224 28.1428 10.8224C28.523 10.8224 28.8433 10.924 29.1037 11.1271C29.3641 11.325 29.5725 11.6115 29.7287 11.9865C29.885 12.3615 29.997 12.8172 30.0647 13.3537ZM40.4543 18.6056C40.4776 18.4971 40.495 18.3967 40.5065 18.3043C40.5201 18.1953 40.4342 18.1031 40.3244 18.0986L39.5173 18.0662C39.4133 18.062 39.3244 18.1386 39.305 18.2408C39.2233 18.6719 39.0481 19.0077 38.7795 19.2482C38.4742 19.5217 38.0868 19.6584 37.6174 19.6584C37.3348 19.6584 37.0819 19.6037 36.8586 19.4943C36.6399 19.3804 36.4485 19.2277 36.2844 19.0363C36.1203 18.8403 35.9813 18.6102 35.8674 18.3459C35.7837 18.1517 35.7123 17.9451 35.6532 17.7263C35.6198 17.6029 35.7151 17.4846 35.8429 17.4846H37.7989C37.8862 17.4846 37.9634 17.428 37.9897 17.3448L38.1505 16.8356C38.1912 16.7067 38.0949 16.5754 37.9597 16.5754H35.6616C35.5635 16.5754 35.4792 16.5043 35.4686 16.4067C35.4565 16.2943 35.4504 16.1819 35.4504 16.0695C35.4504 15.992 35.4527 15.9146 35.4572 15.8371L35.4638 15.7813C35.4757 15.6806 35.561 15.6047 35.6624 15.6047H38.2238C38.3106 15.6047 38.3874 15.5487 38.4141 15.4662L38.5787 14.957C38.6205 14.8278 38.5242 14.6955 38.3884 14.6955H35.8193C35.6925 14.6955 35.5974 14.5788 35.629 14.456C35.6955 14.1971 35.7796 13.9556 35.8811 13.7316C36.0178 13.4354 36.1773 13.1825 36.3596 12.9728C36.5464 12.7586 36.7515 12.5946 36.9748 12.4806C37.2027 12.3622 37.4442 12.3029 37.6994 12.3029C37.7404 12.3029 37.8042 12.3075 37.8908 12.3166C37.982 12.3257 38.0822 12.3485 38.1916 12.3849C38.301 12.4214 38.4149 12.4761 38.5334 12.549C38.6519 12.6174 38.7613 12.7153 38.8615 12.8429C38.9618 12.966 39.0461 13.1209 39.1145 13.3078C39.1662 13.4457 39.2035 13.6071 39.2266 13.7919C39.2396 13.8962 39.3259 13.9777 39.431 13.9777H40.2921C40.4064 13.9777 40.498 13.882 40.4869 13.7682C40.4498 13.39 40.3638 13.0542 40.2287 12.7609C40.0692 12.41 39.8619 12.1183 39.6067 11.8859C39.356 11.6535 39.0666 11.4803 38.7385 11.3664C38.4104 11.2479 38.064 11.1887 37.6994 11.1887C37.2346 11.1887 36.8108 11.2752 36.4279 11.4484C36.0451 11.617 35.7079 11.8563 35.4162 12.1662C35.1246 12.4761 34.8807 12.8475 34.6848 13.2804C34.5101 13.6622 34.3789 14.0784 34.2911 14.529C34.2725 14.6249 34.1894 14.6955 34.0918 14.6955H33.6545C33.5678 14.6955 33.4909 14.7514 33.4642 14.834L33.2996 15.3431C33.2578 15.4723 33.3542 15.6047 33.4899 15.6047H33.9368C34.0578 15.6047 34.1521 15.7114 34.146 15.8322C34.1455 15.8406 34.1451 15.849 34.1447 15.8576C34.1402 15.9533 34.1379 16.0331 34.1379 16.0969C34.1379 16.1789 34.1402 16.2609 34.1447 16.3429C34.1449 16.3458 34.1451 16.3486 34.1452 16.3514C34.1525 16.4709 34.0601 16.5754 33.9403 16.5754H33.6498C33.562 16.5754 33.4845 16.6326 33.4587 16.7165L33.3017 17.2256C33.2621 17.3543 33.3582 17.4846 33.4928 17.4846H34.1062C34.2035 17.4846 34.2864 17.5547 34.3052 17.6502C34.3912 18.0862 34.5132 18.4845 34.6711 18.8449C34.8534 19.2505 35.0835 19.5969 35.3615 19.884C35.6395 20.1665 35.9677 20.3853 36.3459 20.5402C36.7287 20.6906 37.1639 20.7658 37.6516 20.7658C38.0298 20.7658 38.3625 20.7202 38.6496 20.6291C38.9413 20.5379 39.1919 20.4172 39.4016 20.2668C39.6112 20.1164 39.7867 19.9478 39.9279 19.7609C40.0692 19.5695 40.1832 19.3758 40.2697 19.1799C40.3563 18.9839 40.4179 18.7925 40.4543 18.6056Z" fill="#EED88E"/>
</svg>
