<svg width="52" height="26" viewBox="0 0 52 26" fill="none" xmlns="http://www.w3.org/2000/svg">
<path fill-rule="evenodd" clip-rule="evenodd" d="M49.3787 2.2C49.3787 2.08954 49.2892 2 49.1787 2H2.04048C1.93003 2 1.84048 2.08954 1.84048 2.2V3.13333C1.84048 3.24379 1.93003 3.33333 2.04048 3.33333H47.716C47.8264 3.33333 47.916 3.42287 47.916 3.53333V23.8C47.916 23.9105 48.0055 24 48.116 24H49.1787C49.2892 24 49.3787 23.9105 49.3787 23.8V2.2Z" fill="#BC9AB2"/>
<path fill-rule="evenodd" clip-rule="evenodd" d="M51.3787 0.2C51.3787 0.089543 51.2892 0 51.1787 0H3.78392C3.67347 0 3.58392 0.0895433 3.58392 0.2V1.13334C3.58392 1.2438 3.67347 1.33334 3.78392 1.33334H49.7075C49.8179 1.33334 49.9075 1.42289 49.9075 1.53334V21.8C49.9075 21.9105 49.997 22 50.1075 22H51.1787C51.2892 22 51.3787 21.9105 51.3787 21.8V0.2Z" fill="#BC9AB2"/>
<path fill-rule="evenodd" clip-rule="evenodd" d="M47.3787 4.20012C47.3787 4.08967 47.2891 4.00012 47.1787 4.00012H0.2C0.0895431 4.00012 0 4.08967 0 4.20012V25.8001C0 25.9106 0.0895436 26.0001 0.200001 26.0001H47.1787C47.2891 26.0001 47.3787 25.9106 47.3787 25.8001V4.20012ZM8.76877 10.1818C8.27205 10.5257 7.86073 11.0492 7.53483 11.7522C7.48623 11.857 7.54089 11.9796 7.65004 12.0175L8.54929 12.33C8.65024 12.3651 8.76058 12.3145 8.80498 12.2172C8.85177 12.1148 8.9048 12.0092 8.96408 11.9006C9.05783 11.7287 9.18023 11.5698 9.33127 11.424C9.48231 11.2782 9.66981 11.1584 9.89377 11.0646C10.1177 10.9657 10.3912 10.9162 10.7141 10.9162C11.0266 10.9162 11.2896 10.9683 11.5031 11.0724C11.7167 11.1766 11.8886 11.312 12.0188 11.4787C12.149 11.6401 12.2427 11.8224 12.3 12.0256C12.3573 12.2235 12.386 12.4188 12.386 12.6115C12.386 12.8928 12.3209 13.187 12.1906 13.4943C12.0656 13.8016 11.8938 14.1167 11.675 14.4396C11.4563 14.7625 11.2037 15.0907 10.9172 15.424C10.6307 15.7573 10.3313 16.0881 10.0188 16.4162L7.38667 19.1707C7.35111 19.2079 7.33127 19.2574 7.33127 19.3089V20.3881C7.33127 20.4985 7.42081 20.5881 7.53127 20.5881H13.9203C14.0308 20.5881 14.1203 20.4985 14.1203 20.3881V19.4599C14.1203 19.3495 14.0308 19.2599 13.9203 19.2599H9.5388C9.36201 19.2599 9.27216 19.0474 9.39535 18.9206L10.9328 17.3381C11.4797 16.7704 11.9406 16.2625 12.3156 15.8146C12.6959 15.3667 13.0005 14.9579 13.2297 14.5881C13.4641 14.2131 13.6307 13.8641 13.7297 13.5412C13.8339 13.2183 13.886 12.9006 13.886 12.5881C13.886 12.0776 13.8052 11.6375 13.6438 11.2678C13.4823 10.8928 13.2636 10.5829 12.9875 10.3381C12.7115 10.0933 12.3886 9.91359 12.0188 9.799C11.649 9.67921 11.2557 9.61932 10.8391 9.61932C10.0005 9.61932 9.31043 9.80682 8.76877 10.1818ZM16.0578 13.8849C16.0214 14.3224 16.0031 14.7469 16.0031 15.1584C16.0031 15.5698 16.0214 15.9969 16.0578 16.4396C16.0943 16.8771 16.1594 17.3042 16.2531 17.7209C16.3469 18.1375 16.4771 18.5334 16.6438 18.9084C16.8104 19.2782 17.024 19.6037 17.2844 19.8849C17.5448 20.161 17.8573 20.3823 18.2219 20.549C18.5917 20.7105 19.0266 20.7912 19.5266 20.7912C19.9953 20.7912 20.4068 20.7157 20.761 20.5646C21.1203 20.4084 21.4302 20.1974 21.6906 19.9318C21.9511 19.6662 22.1698 19.3537 22.3469 18.9943C22.524 18.6297 22.6646 18.2391 22.7688 17.8224C22.8729 17.4058 22.9459 16.9709 22.9875 16.5178C23.0344 16.0646 23.0578 15.6115 23.0578 15.1584C23.0578 14.7053 23.0344 14.2521 22.9875 13.799C22.9459 13.3459 22.8729 12.911 22.7688 12.4943C22.6646 12.0776 22.524 11.6896 22.3469 11.3303C22.1698 10.9657 21.9511 10.6506 21.6906 10.3849C21.4302 10.1193 21.1203 9.91098 20.761 9.75994C20.4068 9.60369 19.9953 9.52557 19.5266 9.52557C19.0266 9.52557 18.5917 9.6089 18.2219 9.77557C17.8573 9.93702 17.5448 10.1584 17.2844 10.4396C17.024 10.7157 16.8104 11.0412 16.6438 11.4162C16.4771 11.786 16.3469 12.1792 16.2531 12.5959C16.1594 13.0125 16.0943 13.4422 16.0578 13.8849ZM21.4563 13.3537C21.524 13.8849 21.5578 14.4865 21.5578 15.1584C21.5578 15.8303 21.524 16.4344 21.4563 16.9709C21.3886 17.5021 21.2766 17.9553 21.1203 18.3303C20.9641 18.7053 20.7557 18.9943 20.4953 19.1974C20.2349 19.3954 19.9146 19.4943 19.5344 19.4943C19.1177 19.4943 18.7766 19.3797 18.511 19.1506C18.2453 18.9162 18.037 18.6037 17.886 18.2131C17.7349 17.8172 17.6307 17.3563 17.5735 16.8303C17.5162 16.3042 17.4875 15.7469 17.4875 15.1584C17.4875 14.5698 17.5162 14.0125 17.5735 13.4865C17.6307 12.9605 17.7349 12.5021 17.886 12.1115C18.037 11.7157 18.2453 11.4032 18.511 11.174C18.7766 10.9396 19.1177 10.8224 19.5344 10.8224C19.9146 10.8224 20.2349 10.924 20.4953 11.1271C20.7557 11.325 20.9641 11.6115 21.1203 11.9865C21.2766 12.3615 21.3886 12.8172 21.4563 13.3537ZM25.1516 13.8849C25.1151 14.3224 25.0969 14.7469 25.0969 15.1584C25.0969 15.5698 25.1151 15.9969 25.1516 16.4396C25.188 16.8771 25.2531 17.3042 25.3469 17.7209C25.4406 18.1375 25.5709 18.5334 25.7375 18.9084C25.9042 19.2782 26.1177 19.6037 26.3781 19.8849C26.6386 20.161 26.9511 20.3823 27.3156 20.549C27.6854 20.7105 28.1203 20.7912 28.6203 20.7912C29.0891 20.7912 29.5005 20.7157 29.8547 20.5646C30.2141 20.4084 30.524 20.1974 30.7844 19.9318C31.0448 19.6662 31.2636 19.3537 31.4406 18.9943C31.6177 18.6297 31.7584 18.2391 31.8625 17.8224C31.9667 17.4058 32.0396 16.9709 32.0813 16.5178C32.1281 16.0646 32.1516 15.6115 32.1516 15.1584C32.1516 14.7053 32.1281 14.2521 32.0813 13.799C32.0396 13.3459 31.9667 12.911 31.8625 12.4943C31.7584 12.0776 31.6177 11.6896 31.4406 11.3303C31.2636 10.9657 31.0448 10.6506 30.7844 10.3849C30.524 10.1193 30.2141 9.91098 29.8547 9.75994C29.5005 9.60369 29.0891 9.52557 28.6203 9.52557C28.1203 9.52557 27.6854 9.6089 27.3156 9.77557C26.9511 9.93702 26.6386 10.1584 26.3781 10.4396C26.1177 10.7157 25.9042 11.0412 25.7375 11.4162C25.5709 11.786 25.4406 12.1792 25.3469 12.5959C25.2531 13.0125 25.188 13.4422 25.1516 13.8849ZM30.55 13.3537C30.6177 13.8849 30.6516 14.4865 30.6516 15.1584C30.6516 15.8303 30.6177 16.4344 30.55 16.9709C30.4823 17.5021 30.3703 17.9553 30.2141 18.3303C30.0578 18.7053 29.8495 18.9943 29.5891 19.1974C29.3287 19.3954 29.0084 19.4943 28.6281 19.4943C28.2115 19.4943 27.8703 19.3797 27.6047 19.1506C27.3391 18.9162 27.1307 18.6037 26.9797 18.2131C26.8287 17.8172 26.7245 17.3563 26.6672 16.8303C26.6099 16.3042 26.5813 15.7469 26.5813 15.1584C26.5813 14.5698 26.6099 14.0125 26.6672 13.4865C26.7245 12.9605 26.8287 12.5021 26.9797 12.1115C27.1307 11.7157 27.3391 11.4032 27.6047 11.174C27.8703 10.9396 28.2115 10.8224 28.6281 10.8224C29.0084 10.8224 29.3287 10.924 29.5891 11.1271C29.8495 11.325 30.0578 11.6115 30.2141 11.9865C30.3703 12.3615 30.4823 12.8172 30.55 13.3537ZM34.7072 20.0701C35.2952 20.5087 36.1352 20.7281 37.2272 20.7281C37.7872 20.7281 38.3332 20.6674 38.8652 20.5461C39.335 20.4389 39.721 20.3209 40.0234 20.1919C40.0947 20.1615 40.1392 20.0906 40.1392 20.0131V19.3138C40.1392 19.1691 39.9899 19.0715 39.8549 19.1236C39.5751 19.2316 39.2499 19.3371 38.8792 19.4401C38.3845 19.5707 37.8712 19.6361 37.3392 19.6361C35.8365 19.6361 35.0852 19.0947 35.0852 18.0121C35.0852 17.7974 35.0992 17.6294 35.1272 17.5081C35.1479 17.4183 35.1814 17.3234 35.2277 17.2235C35.2587 17.1564 35.3273 17.1161 35.4012 17.1161H40.5272C40.6377 17.1161 40.7272 17.0265 40.7272 16.9161V16.4201C40.7272 16.3096 40.6377 16.2201 40.5272 16.2201H36.9167C36.7602 16.2201 36.7287 16.0596 36.8772 16.0101V16.0101C37.1572 15.9167 37.4699 15.8047 37.8152 15.6741C38.1605 15.5434 38.4919 15.4034 38.8092 15.2541C39.0866 15.1154 39.2998 14.9803 39.4488 14.8487C39.4885 14.8136 39.539 14.7921 39.592 14.7921H40.5272C40.6377 14.7921 40.7272 14.7025 40.7272 14.5921V14.0961C40.7272 13.9856 40.6377 13.8961 40.5272 13.8961H40.2808C40.1321 13.8961 40.0323 13.7372 40.0701 13.5934C40.087 13.5289 40.1007 13.4618 40.1112 13.3921C40.1392 13.1961 40.1532 13.0001 40.1532 12.8041C40.1532 12.0107 39.8779 11.4227 39.3272 11.0401C38.7859 10.6481 38.0439 10.4521 37.1012 10.4521C36.6159 10.4521 36.1165 10.5081 35.6032 10.6201C35.1643 10.7158 34.7834 10.8321 34.4604 10.9688C34.3684 11.0078 34.3237 11.1111 34.3539 11.2064L34.5822 11.9281C34.6187 12.0435 34.7485 12.1001 34.8598 12.0525C35.1236 11.9397 35.4134 11.8355 35.7292 11.7401C36.1399 11.6187 36.5739 11.5581 37.0312 11.5581C37.6659 11.5581 38.1325 11.6841 38.4312 11.9361C38.7299 12.1787 38.8792 12.5194 38.8792 12.9581C38.8792 13.1727 38.8605 13.3501 38.8232 13.4901C38.8025 13.5936 38.769 13.6947 38.7227 13.7931C38.6922 13.8581 38.6249 13.8961 38.5531 13.8961H33.5212C33.4107 13.8961 33.3212 13.9856 33.3212 14.0961V14.5921C33.3212 14.7025 33.4107 14.7921 33.5212 14.7921H37.0922C37.227 14.7921 37.2561 14.9427 37.1292 14.9881V14.9881C36.8679 15.0721 36.5645 15.1747 36.2192 15.2961C35.8832 15.4174 35.5565 15.5574 35.2392 15.7161C34.963 15.85 34.7356 15.9989 34.557 16.1628C34.5179 16.1987 34.4674 16.2201 34.4144 16.2201H33.5212C33.4107 16.2201 33.3212 16.3096 33.3212 16.4201V16.9161C33.3212 17.0265 33.4107 17.1161 33.5212 17.1161H33.696C33.8342 17.1161 33.9312 17.2532 33.9001 17.3878C33.8502 17.6033 33.8252 17.8348 33.8252 18.0821C33.8252 18.9687 34.1192 19.6314 34.7072 20.0701Z" fill="#BC9AB2"/>
</svg>
