<svg width="52" height="26" viewBox="0 0 52 26" fill="none" xmlns="http://www.w3.org/2000/svg">
<path fill-rule="evenodd" clip-rule="evenodd" d="M49.5149 2.2C49.5149 2.08954 49.4253 2 49.3149 2H2.17662C2.06617 2 1.97662 2.08954 1.97662 2.2V3.13333C1.97662 3.24379 2.06617 3.33333 2.17662 3.33333H47.8521C47.9626 3.33333 48.0521 3.42287 48.0521 3.53333V23.8C48.0521 23.9105 48.1417 24 48.2521 24H49.3149C49.4253 24 49.5149 23.9105 49.5149 23.8V2.2Z" fill="#84A370"/>
<path fill-rule="evenodd" clip-rule="evenodd" d="M51.5149 0.2C51.5149 0.089543 51.4254 0 51.3149 0H3.92009C3.80964 0 3.72009 0.0895433 3.72009 0.2V1.13334C3.72009 1.2438 3.80964 1.33334 3.92009 1.33334H49.8437C49.9541 1.33334 50.0437 1.42289 50.0437 1.53334V21.8C50.0437 21.9105 50.1332 22 50.2437 22H51.3149C51.4254 22 51.5149 21.9105 51.5149 21.8V0.2Z" fill="#84A370"/>
<path fill-rule="evenodd" clip-rule="evenodd" d="M47.5148 4.20011C47.5148 4.08965 47.4253 4.00011 47.3148 4.00011H0.336169C0.225712 4.00011 0.136169 4.08965 0.136169 4.20011V25.8001C0.136169 25.9106 0.225713 26.0001 0.33617 26.0001H47.3148C47.4253 26.0001 47.5148 25.9106 47.5148 25.8001V4.20011ZM8.67251 10.1818C8.1758 10.5257 7.76448 11.0491 7.43858 11.7522C7.38997 11.857 7.44464 11.9796 7.55379 12.0175L8.45303 12.33C8.55399 12.3651 8.66432 12.3144 8.70873 12.2172C8.75551 12.1148 8.80855 12.0092 8.86783 11.9006C8.96158 11.7287 9.08397 11.5698 9.23501 11.424C9.38606 11.2782 9.57356 11.1584 9.79751 11.0646C10.0215 10.9657 10.2949 10.9162 10.6178 10.9162C10.9303 10.9162 11.1933 10.9683 11.4069 11.0724C11.6204 11.1766 11.7923 11.312 11.9225 11.4787C12.0527 11.6401 12.1465 11.8224 12.2038 12.0256C12.2611 12.2235 12.2897 12.4188 12.2897 12.6115C12.2897 12.8927 12.2246 13.187 12.0944 13.4943C11.9694 13.8016 11.7975 14.1167 11.5788 14.4396C11.36 14.7625 11.1074 15.0907 10.821 15.424C10.5345 15.7573 10.235 16.0881 9.92251 16.4162L7.29042 19.1707C7.25486 19.2079 7.23501 19.2574 7.23501 19.3089V20.3881C7.23501 20.4985 7.32456 20.5881 7.43501 20.5881H13.8241C13.9345 20.5881 14.0241 20.4985 14.0241 20.3881V19.4599C14.0241 19.3495 13.9345 19.2599 13.8241 19.2599H9.44255C9.26575 19.2599 9.1759 19.0474 9.2991 18.9206L10.8366 17.3381C11.3835 16.7703 11.8444 16.2625 12.2194 15.8146C12.5996 15.3667 12.9043 14.9578 13.1335 14.5881C13.3678 14.2131 13.5345 13.8641 13.6335 13.5412C13.7376 13.2183 13.7897 12.9006 13.7897 12.5881C13.7897 12.0776 13.709 11.6375 13.5475 11.2677C13.3861 10.8927 13.1673 10.5828 12.8913 10.3381C12.6152 10.0933 12.2923 9.91357 11.9225 9.79899C11.5527 9.6792 11.1595 9.6193 10.7428 9.6193C9.90429 9.6193 9.21418 9.8068 8.67251 10.1818ZM15.9616 13.8849C15.9251 14.3224 15.9069 14.7469 15.9069 15.1584C15.9069 15.5698 15.9251 15.9969 15.9616 16.4396C15.998 16.8771 16.0631 17.3042 16.1569 17.7209C16.2506 18.1375 16.3808 18.5334 16.5475 18.9084C16.7142 19.2782 16.9277 19.6037 17.1881 19.8849C17.4486 20.161 17.7611 20.3823 18.1256 20.549C18.4954 20.7104 18.9303 20.7912 19.4303 20.7912C19.8991 20.7912 20.3105 20.7157 20.6647 20.5646C21.0241 20.4084 21.334 20.1974 21.5944 19.9318C21.8548 19.6662 22.0736 19.3537 22.2506 18.9943C22.4277 18.6297 22.5683 18.2391 22.6725 17.8224C22.7767 17.4058 22.8496 16.9709 22.8913 16.5177C22.9381 16.0646 22.9616 15.6115 22.9616 15.1584C22.9616 14.7052 22.9381 14.2521 22.8913 13.799C22.8496 13.3459 22.7767 12.911 22.6725 12.4943C22.5683 12.0776 22.4277 11.6896 22.2506 11.3302C22.0736 10.9657 21.8548 10.6506 21.5944 10.3849C21.334 10.1193 21.0241 9.91097 20.6647 9.75993C20.3105 9.60368 19.8991 9.52555 19.4303 9.52555C18.9303 9.52555 18.4954 9.60888 18.1256 9.77555C17.7611 9.93701 17.4486 10.1584 17.1881 10.4396C16.9277 10.7157 16.7142 11.0412 16.5475 11.4162C16.3808 11.786 16.2506 12.1792 16.1569 12.5959C16.0631 13.0125 15.998 13.4422 15.9616 13.8849ZM21.36 13.3537C21.4277 13.8849 21.4616 14.4865 21.4616 15.1584C21.4616 15.8302 21.4277 16.4344 21.36 16.9709C21.2923 17.5021 21.1803 17.9552 21.0241 18.3302C20.8678 18.7052 20.6595 18.9943 20.3991 19.1974C20.1387 19.3953 19.8183 19.4943 19.4381 19.4943C19.0215 19.4943 18.6803 19.3797 18.4147 19.1506C18.1491 18.9162 17.9407 18.6037 17.7897 18.2131C17.6387 17.8172 17.5345 17.3563 17.4772 16.8302C17.4199 16.3042 17.3913 15.7469 17.3913 15.1584C17.3913 14.5698 17.4199 14.0125 17.4772 13.4865C17.5345 12.9604 17.6387 12.5021 17.7897 12.1115C17.9407 11.7157 18.1491 11.4032 18.4147 11.174C18.6803 10.9396 19.0215 10.8224 19.4381 10.8224C19.8183 10.8224 20.1387 10.924 20.3991 11.1271C20.6595 11.325 20.8678 11.6115 21.0241 11.9865C21.1803 12.3615 21.2923 12.8172 21.36 13.3537ZM25.0553 13.8849C25.0189 14.3224 25.0006 14.7469 25.0006 15.1584C25.0006 15.5698 25.0189 15.9969 25.0553 16.4396C25.0918 16.8771 25.1569 17.3042 25.2506 17.7209C25.3444 18.1375 25.4746 18.5334 25.6413 18.9084C25.8079 19.2782 26.0215 19.6037 26.2819 19.8849C26.5423 20.161 26.8548 20.3823 27.2194 20.549C27.5892 20.7104 28.0241 20.7912 28.5241 20.7912C28.9928 20.7912 29.4043 20.7157 29.7585 20.5646C30.1178 20.4084 30.4277 20.1974 30.6881 19.9318C30.9486 19.6662 31.1673 19.3537 31.3444 18.9943C31.5215 18.6297 31.6621 18.2391 31.7663 17.8224C31.8704 17.4058 31.9433 16.9709 31.985 16.5177C32.0319 16.0646 32.0553 15.6115 32.0553 15.1584C32.0553 14.7052 32.0319 14.2521 31.985 13.799C31.9433 13.3459 31.8704 12.911 31.7663 12.4943C31.6621 12.0776 31.5215 11.6896 31.3444 11.3302C31.1673 10.9657 30.9486 10.6506 30.6881 10.3849C30.4277 10.1193 30.1178 9.91097 29.7585 9.75993C29.4043 9.60368 28.9928 9.52555 28.5241 9.52555C28.0241 9.52555 27.5892 9.60888 27.2194 9.77555C26.8548 9.93701 26.5423 10.1584 26.2819 10.4396C26.0215 10.7157 25.8079 11.0412 25.6413 11.4162C25.4746 11.786 25.3444 12.1792 25.2506 12.5959C25.1569 13.0125 25.0918 13.4422 25.0553 13.8849ZM30.4538 13.3537C30.5215 13.8849 30.5553 14.4865 30.5553 15.1584C30.5553 15.8302 30.5215 16.4344 30.4538 16.9709C30.3861 17.5021 30.2741 17.9552 30.1178 18.3302C29.9616 18.7052 29.7532 18.9943 29.4928 19.1974C29.2324 19.3953 28.9121 19.4943 28.5319 19.4943C28.1152 19.4943 27.7741 19.3797 27.5085 19.1506C27.2428 18.9162 27.0345 18.6037 26.8835 18.2131C26.7324 17.8172 26.6282 17.3563 26.571 16.8302C26.5137 16.3042 26.485 15.7469 26.485 15.1584C26.485 14.5698 26.5137 14.0125 26.571 13.4865C26.6282 12.9604 26.7324 12.5021 26.8835 12.1115C27.0345 11.7157 27.2428 11.4032 27.5085 11.174C27.7741 10.9396 28.1152 10.8224 28.5319 10.8224C28.9121 10.8224 29.2324 10.924 29.4928 11.1271C29.7532 11.325 29.9616 11.6115 30.1178 11.9865C30.2741 12.3615 30.3861 12.8172 30.4538 13.3537ZM34.229 18.6841C34.3394 18.6841 34.429 18.7736 34.429 18.8841V20.3881C34.429 20.4985 34.5185 20.5881 34.629 20.5881H35.489C35.5994 20.5881 35.689 20.4985 35.689 20.3881V18.8841C35.689 18.7736 35.7785 18.6841 35.889 18.6841H37.799C37.9094 18.6841 37.999 18.5945 37.999 18.4841V17.9741C37.999 17.8636 37.9094 17.7741 37.799 17.7741H35.889C35.7785 17.7741 35.689 17.6845 35.689 17.5741V16.7281C35.689 16.6176 35.7785 16.5281 35.889 16.5281H36.865C38.1156 16.5281 39.063 16.2621 39.707 15.7301C40.351 15.1887 40.673 14.442 40.673 13.4901C40.673 12.5474 40.3743 11.8287 39.777 11.3341C39.189 10.8394 38.2836 10.5921 37.061 10.5921H34.629C34.5185 10.5921 34.429 10.6816 34.429 10.7921V15.2641C34.429 15.3745 34.3394 15.4641 34.229 15.4641H33.411C33.3005 15.4641 33.211 15.5536 33.211 15.6641V16.3281C33.211 16.4385 33.3005 16.5281 33.411 16.5281H34.229C34.3394 16.5281 34.429 16.6176 34.429 16.7281V17.5741C34.429 17.6845 34.3394 17.7741 34.229 17.7741H33.411C33.3005 17.7741 33.211 17.8636 33.211 17.9741V18.4841C33.211 18.5945 33.3005 18.6841 33.411 18.6841H34.229ZM38.657 15.0441C38.1903 15.3241 37.5323 15.4641 36.683 15.4641H35.889C35.7785 15.4641 35.689 15.3745 35.689 15.2641V11.8561C35.689 11.7456 35.7785 11.6561 35.889 11.6561H36.949C37.7796 11.6561 38.391 11.8101 38.783 12.1181C39.175 12.4261 39.371 12.8974 39.371 13.5321C39.371 14.2601 39.133 14.7641 38.657 15.0441Z" fill="#84A370"/>
</svg>
