<svg width="52" height="26" viewBox="0 0 52 26" fill="none" xmlns="http://www.w3.org/2000/svg">
<path fill-rule="evenodd" clip-rule="evenodd" d="M49.3787 2.2C49.3787 2.08954 49.2892 2 49.1787 2H2.04048C1.93003 2 1.84048 2.08954 1.84048 2.2V3.13333C1.84048 3.24379 1.93003 3.33333 2.04048 3.33333H47.716C47.8264 3.33333 47.916 3.42287 47.916 3.53333V23.8C47.916 23.9105 48.0055 24 48.116 24H49.1787C49.2892 24 49.3787 23.9105 49.3787 23.8V2.2Z" fill="#B3D5D7"/>
<path fill-rule="evenodd" clip-rule="evenodd" d="M51.3787 0.2C51.3787 0.089543 51.2892 0 51.1787 0H3.78392C3.67347 0 3.58392 0.0895433 3.58392 0.2V1.13334C3.58392 1.2438 3.67347 1.33334 3.78392 1.33334H49.7075C49.8179 1.33334 49.9075 1.42289 49.9075 1.53334V21.8C49.9075 21.9105 49.997 22 50.1075 22H51.1787C51.2892 22 51.3787 21.9105 51.3787 21.8V0.2Z" fill="#B3D5D7"/>
<path fill-rule="evenodd" clip-rule="evenodd" d="M47.3787 4.20012C47.3787 4.08967 47.2891 4.00012 47.1787 4.00012H0.2C0.0895431 4.00012 0 4.08967 0 4.20012V25.8001C0 25.9106 0.0895436 26.0001 0.200001 26.0001H47.1787C47.2891 26.0001 47.3787 25.9106 47.3787 25.8001V4.20012ZM12.8303 10.1818C12.3336 10.5257 11.9223 11.0492 11.5964 11.7522C11.5478 11.857 11.6024 11.9796 11.7116 12.0175L12.6108 12.33C12.7118 12.3651 12.8221 12.3145 12.8665 12.2172C12.9133 12.1148 12.9663 12.0092 13.0256 11.9006C13.1194 11.7287 13.2417 11.5698 13.3928 11.424C13.5438 11.2782 13.7313 11.1584 13.9553 11.0646C14.1792 10.9657 14.4527 10.9162 14.7756 10.9162C15.0881 10.9162 15.3511 10.9683 15.5647 11.0724C15.7782 11.1766 15.9501 11.312 16.0803 11.4787C16.2105 11.6401 16.3042 11.8224 16.3615 12.0256C16.4188 12.2235 16.4475 12.4188 16.4475 12.6115C16.4475 12.8928 16.3824 13.187 16.2522 13.4943C16.1272 13.8016 15.9553 14.1167 15.7365 14.4396C15.5178 14.7625 15.2652 15.0907 14.9787 15.424C14.6923 15.7573 14.3928 16.0881 14.0803 16.4162L11.4482 19.1707C11.4126 19.2079 11.3928 19.2574 11.3928 19.3089V20.3881C11.3928 20.4985 11.4823 20.5881 11.5928 20.5881H17.9819C18.0923 20.5881 18.1819 20.4985 18.1819 20.3881V19.4599C18.1819 19.3495 18.0923 19.2599 17.9819 19.2599H13.6003C13.4235 19.2599 13.3337 19.0474 13.4569 18.9206L14.9944 17.3381C15.5412 16.7704 16.0022 16.2625 16.3772 15.8146C16.7574 15.3667 17.0621 14.9579 17.2912 14.5881C17.5256 14.2131 17.6923 13.8641 17.7912 13.5412C17.8954 13.2183 17.9475 12.9006 17.9475 12.5881C17.9475 12.0776 17.8667 11.6375 17.7053 11.2678C17.5438 10.8928 17.3251 10.5829 17.049 10.3381C16.773 10.0933 16.4501 9.91359 16.0803 9.799C15.7105 9.67921 15.3173 9.61932 14.9006 9.61932C14.0621 9.61932 13.372 9.80682 12.8303 10.1818ZM20.1194 13.8849C20.0829 14.3224 20.0647 14.7469 20.0647 15.1584C20.0647 15.5698 20.0829 15.9969 20.1194 16.4396C20.1558 16.8771 20.2209 17.3042 20.3147 17.7209C20.4084 18.1375 20.5386 18.5334 20.7053 18.9084C20.872 19.2782 21.0855 19.6037 21.3459 19.8849C21.6063 20.161 21.9188 20.3823 22.2834 20.549C22.6532 20.7105 23.0881 20.7912 23.5881 20.7912C24.0569 20.7912 24.4683 20.7157 24.8225 20.5646C25.1819 20.4084 25.4917 20.1974 25.7522 19.9318C26.0126 19.6662 26.2313 19.3537 26.4084 18.9943C26.5855 18.6297 26.7261 18.2391 26.8303 17.8224C26.9345 17.4058 27.0074 16.9709 27.049 16.5178C27.0959 16.0646 27.1194 15.6115 27.1194 15.1584C27.1194 14.7053 27.0959 14.2521 27.049 13.799C27.0074 13.3459 26.9345 12.911 26.8303 12.4943C26.7261 12.0776 26.5855 11.6896 26.4084 11.3303C26.2313 10.9657 26.0126 10.6506 25.7522 10.3849C25.4917 10.1193 25.1819 9.91098 24.8225 9.75994C24.4683 9.60369 24.0569 9.52557 23.5881 9.52557C23.0881 9.52557 22.6532 9.6089 22.2834 9.77557C21.9188 9.93702 21.6063 10.1584 21.3459 10.4396C21.0855 10.7157 20.872 11.0412 20.7053 11.4162C20.5386 11.786 20.4084 12.1792 20.3147 12.5959C20.2209 13.0125 20.1558 13.4422 20.1194 13.8849ZM25.5178 13.3537C25.5855 13.8849 25.6194 14.4865 25.6194 15.1584C25.6194 15.8303 25.5855 16.4344 25.5178 16.9709C25.4501 17.5021 25.3381 17.9553 25.1819 18.3303C25.0256 18.7053 24.8173 18.9943 24.5569 19.1974C24.2964 19.3954 23.9761 19.4943 23.5959 19.4943C23.1792 19.4943 22.8381 19.3797 22.5725 19.1506C22.3069 18.9162 22.0985 18.6037 21.9475 18.2131C21.7964 17.8172 21.6923 17.3563 21.635 16.8303C21.5777 16.3042 21.549 15.7469 21.549 15.1584C21.549 14.5698 21.5777 14.0125 21.635 13.4865C21.6923 12.9605 21.7964 12.5021 21.9475 12.1115C22.0985 11.7157 22.3069 11.4032 22.5725 11.174C22.8381 10.9396 23.1792 10.8224 23.5959 10.8224C23.9761 10.8224 24.2964 10.924 24.5569 11.1271C24.8173 11.325 25.0256 11.6115 25.1819 11.9865C25.3381 12.3615 25.4501 12.8172 25.5178 13.3537ZM35.9074 18.6056C35.9307 18.4971 35.9481 18.3967 35.9596 18.3043C35.9732 18.1953 35.8873 18.1031 35.7775 18.0986L34.9704 18.0662C34.8664 18.062 34.7775 18.1386 34.7581 18.2408C34.6764 18.6719 34.5013 19.0077 34.2326 19.2482C33.9273 19.5217 33.5399 19.6584 33.0705 19.6584C32.788 19.6584 32.535 19.6037 32.3117 19.4943C32.093 19.3804 31.9016 19.2277 31.7375 19.0363C31.5735 18.8403 31.4345 18.6102 31.3205 18.3459C31.2368 18.1517 31.1654 17.9451 31.1063 17.7263C31.073 17.6029 31.1682 17.4846 31.296 17.4846H33.2521C33.3393 17.4846 33.4165 17.428 33.4428 17.3448L33.6036 16.8356C33.6443 16.7067 33.548 16.5754 33.4129 16.5754H31.1147C31.0166 16.5754 30.9323 16.5043 30.9218 16.4067C30.9096 16.2943 30.9035 16.1819 30.9035 16.0695C30.9035 15.992 30.9058 15.9146 30.9104 15.8371L30.9169 15.7813C30.9288 15.6806 31.0141 15.6047 31.1156 15.6047H33.6769C33.7637 15.6047 33.8406 15.5487 33.8672 15.4662L34.0319 14.957C34.0736 14.8278 33.9773 14.6955 33.8416 14.6955H31.2724C31.1456 14.6955 31.0505 14.5788 31.0821 14.456C31.1487 14.1971 31.2327 13.9556 31.3342 13.7316C31.4709 13.4354 31.6304 13.1825 31.8127 12.9728C31.9996 12.7586 32.2046 12.5946 32.4279 12.4806C32.6558 12.3622 32.8973 12.3029 33.1526 12.3029C33.1936 12.3029 33.2574 12.3075 33.344 12.3166C33.4351 12.3257 33.5354 12.3485 33.6447 12.3849C33.7541 12.4214 33.868 12.4761 33.9865 12.549C34.105 12.6174 34.2144 12.7153 34.3147 12.8429C34.4149 12.966 34.4992 13.1209 34.5676 13.3078C34.6193 13.4457 34.6567 13.6071 34.6797 13.7919C34.6927 13.8962 34.779 13.9777 34.8842 13.9777H35.7452C35.8595 13.9777 35.9511 13.882 35.94 13.7682C35.903 13.39 35.8169 13.0542 35.6819 12.7609C35.5223 12.41 35.315 12.1183 35.0598 11.8859C34.8091 11.6535 34.5197 11.4803 34.1916 11.3664C33.8635 11.2479 33.5171 11.1887 33.1526 11.1887C32.6877 11.1887 32.2639 11.2752 31.8811 11.4484C31.4983 11.617 31.161 11.8563 30.8694 12.1662C30.5777 12.4761 30.3339 12.8475 30.1379 13.2804C29.9633 13.6622 29.832 14.0784 29.7443 14.529C29.7256 14.6249 29.6426 14.6955 29.5449 14.6955H29.1077C29.0209 14.6955 28.944 14.7514 28.9174 14.834L28.7527 15.3431C28.711 15.4723 28.8073 15.6047 28.943 15.6047H29.3899C29.5109 15.6047 29.6052 15.7114 29.5991 15.8322C29.5987 15.8406 29.5983 15.849 29.5979 15.8576C29.5933 15.9533 29.591 16.0331 29.591 16.0969C29.591 16.1789 29.5933 16.2609 29.5979 16.3429C29.598 16.3458 29.5982 16.3486 29.5984 16.3514C29.6057 16.4709 29.5132 16.5754 29.3935 16.5754H29.1029C29.0152 16.5754 28.9377 16.6326 28.9118 16.7165L28.7548 17.2256C28.7152 17.3543 28.8114 17.4846 28.946 17.4846H29.5593C29.6567 17.4846 29.7395 17.5547 29.7584 17.6502C29.8443 18.0862 29.9663 18.4845 30.1242 18.8449C30.3065 19.2505 30.5367 19.5969 30.8147 19.884C31.0927 20.1665 31.4208 20.3853 31.799 20.5402C32.1819 20.6906 32.6171 20.7658 33.1047 20.7658C33.483 20.7658 33.8156 20.7202 34.1028 20.6291C34.3944 20.5379 34.6451 20.4172 34.8547 20.2668C35.0643 20.1164 35.2398 19.9478 35.3811 19.7609C35.5223 19.5695 35.6363 19.3758 35.7229 19.1799C35.8095 18.9839 35.871 18.7925 35.9074 18.6056Z" fill="#B3D5D7"/>
</svg>
