<svg width="52" height="26" viewBox="0 0 52 26" fill="none" xmlns="http://www.w3.org/2000/svg">
<path fill-rule="evenodd" clip-rule="evenodd" d="M49.3787 2.2C49.3787 2.08954 49.2892 2 49.1787 2H2.04045C1.93 2 1.84045 2.08954 1.84045 2.2V3.13333C1.84045 3.24379 1.93 3.33333 2.04045 3.33333H47.716C47.8264 3.33333 47.916 3.42287 47.916 3.53333V23.8C47.916 23.9105 48.0055 24 48.116 24H49.1787C49.2892 24 49.3787 23.9105 49.3787 23.8V2.2Z" fill="#7BAB74"/>
<path fill-rule="evenodd" clip-rule="evenodd" d="M51.3787 0.2C51.3787 0.089543 51.2892 0 51.1787 0H3.78392C3.67347 0 3.58392 0.0895433 3.58392 0.2V1.13334C3.58392 1.2438 3.67347 1.33334 3.78392 1.33334H49.7075C49.8179 1.33334 49.9075 1.42289 49.9075 1.53334V21.8C49.9075 21.9105 49.997 22 50.1075 22H51.1787C51.2892 22 51.3787 21.9105 51.3787 21.8V0.2Z" fill="#7BAB74"/>
<path fill-rule="evenodd" clip-rule="evenodd" d="M47.3787 4.20011C47.3787 4.08965 47.2891 4.00011 47.1787 4.00011H0.2C0.0895431 4.00011 0 4.08965 0 4.20011V25.8001C0 25.9106 0.0895436 26.0001 0.200001 26.0001H47.1787C47.2891 26.0001 47.3787 25.9106 47.3787 25.8001V4.20011ZM14.134 10.4826C13.7051 10.7795 13.3489 11.2295 13.0656 11.8325C13.0164 11.9371 13.0712 12.0596 13.1803 12.0976L13.9194 12.3544C14.0204 12.3895 14.1307 12.3388 14.1757 12.2419C14.2141 12.1591 14.2572 12.0739 14.3049 11.9865C14.3869 11.8361 14.494 11.6971 14.6262 11.5695C14.7584 11.4419 14.9224 11.3371 15.1184 11.255C15.3143 11.1685 15.5536 11.1252 15.8362 11.1252C16.1096 11.1252 16.3397 11.1707 16.5266 11.2619C16.7134 11.353 16.8638 11.4715 16.9778 11.6173C17.0917 11.7586 17.1737 11.9181 17.2238 12.0959C17.274 12.269 17.299 12.4399 17.299 12.6086C17.299 12.8547 17.2421 13.1121 17.1281 13.381C17.0188 13.6499 16.8684 13.9256 16.677 14.2082C16.4856 14.4907 16.2645 14.7778 16.0139 15.0695C15.7632 15.3612 15.5012 15.6506 15.2278 15.9377L12.9316 18.3406C12.896 18.3778 12.8762 18.4273 12.8762 18.4788V19.3881C12.8762 19.4985 12.9657 19.5881 13.0762 19.5881H18.6166C18.7271 19.5881 18.8166 19.4985 18.8166 19.3881V18.6259C18.8166 18.5155 18.7271 18.4259 18.6166 18.4259H14.8669C14.6901 18.4259 14.6003 18.2134 14.7235 18.0866L16.0276 16.7443C16.5061 16.2476 16.9094 15.8032 17.2375 15.4113C17.5702 15.0194 17.8368 14.6616 18.0373 14.3381C18.2424 14.0099 18.3882 13.7046 18.4748 13.422C18.566 13.1395 18.6115 12.8615 18.6115 12.5881C18.6115 12.1414 18.5409 11.7563 18.3996 11.4328C18.2584 11.1047 18.0669 10.8335 17.8254 10.6193C17.5839 10.4051 17.3013 10.2479 16.9778 10.1476C16.6542 10.0428 16.3101 9.99039 15.9455 9.99039C15.2118 9.99039 14.608 10.1545 14.134 10.4826ZM20.5119 13.7228C20.48 14.1056 20.4641 14.477 20.4641 14.8371C20.4641 15.1971 20.48 15.5708 20.5119 15.9582C20.5438 16.341 20.6008 16.7147 20.6828 17.0793C20.7649 17.4438 20.8788 17.7902 21.0246 18.1183C21.1705 18.4419 21.3573 18.7267 21.5852 18.9728C21.813 19.2144 22.0865 19.408 22.4055 19.5539C22.7291 19.6951 23.1096 19.7658 23.5471 19.7658C23.9572 19.7658 24.3173 19.6997 24.6272 19.5675C24.9416 19.4308 25.2128 19.2463 25.4406 19.0138C25.6685 18.7814 25.8599 18.508 26.0149 18.1935C26.1698 17.8745 26.2929 17.5327 26.384 17.1681C26.4751 16.8035 26.5389 16.423 26.5754 16.0265C26.6164 15.63 26.6369 15.2336 26.6369 14.8371C26.6369 14.4406 26.6164 14.0441 26.5754 13.6476C26.5389 13.2511 26.4751 12.8706 26.384 12.506C26.2929 12.1414 26.1698 11.8019 26.0149 11.4875C25.8599 11.1685 25.6685 10.8927 25.4406 10.6603C25.2128 10.4279 24.9416 10.2456 24.6272 10.1134C24.3173 9.97672 23.9572 9.90836 23.5471 9.90836C23.1096 9.90836 22.7291 9.98128 22.4055 10.1271C22.0865 10.2684 21.813 10.4621 21.5852 10.7082C21.3573 10.9497 21.1705 11.2345 21.0246 11.5627C20.8788 11.8862 20.7649 12.2303 20.6828 12.5949C20.6008 12.9595 20.5438 13.3354 20.5119 13.7228ZM25.2356 13.258C25.2948 13.7228 25.3244 14.2492 25.3244 14.8371C25.3244 15.425 25.2948 15.9536 25.2356 16.423C25.1763 16.8879 25.0783 17.2843 24.9416 17.6125C24.8049 17.9406 24.6226 18.1935 24.3947 18.3713C24.1669 18.5444 23.8866 18.631 23.5539 18.631C23.1893 18.631 22.8908 18.5308 22.6584 18.3302C22.426 18.1252 22.2437 17.8517 22.1115 17.5099C21.9794 17.1636 21.8882 16.7603 21.8381 16.3C21.788 15.8397 21.7629 15.352 21.7629 14.8371C21.7629 14.3221 21.788 13.8345 21.8381 13.3742C21.8882 12.9139 21.9794 12.5129 22.1115 12.1711C22.2437 11.8247 22.426 11.5513 22.6584 11.3507C22.8908 11.1457 23.1893 11.0431 23.5539 11.0431C23.8866 11.0431 24.1669 11.132 24.3947 11.3097C24.6226 11.4829 24.8049 11.7336 24.9416 12.0617C25.0783 12.3898 25.1763 12.7886 25.2356 13.258ZM29.0656 19.0701C29.6536 19.5087 30.4936 19.7281 31.5856 19.7281C32.1456 19.7281 32.6916 19.6674 33.2236 19.5461C33.6934 19.4389 34.0794 19.3209 34.3818 19.1919C34.4531 19.1615 34.4976 19.0906 34.4976 19.0131V18.3138C34.4976 18.1691 34.3483 18.0715 34.2133 18.1236C33.9335 18.2316 33.6083 18.3371 33.2376 18.4401C32.7429 18.5707 32.2296 18.6361 31.6976 18.6361C30.1949 18.6361 29.4436 18.0947 29.4436 17.0121C29.4436 16.7974 29.4576 16.6294 29.4856 16.5081C29.5063 16.4183 29.5398 16.3234 29.5861 16.2234C29.6171 16.1564 29.6857 16.1161 29.7596 16.1161H34.8856C34.9961 16.1161 35.0856 16.0265 35.0856 15.9161V15.4201C35.0856 15.3096 34.9961 15.2201 34.8856 15.2201H31.2751C31.1186 15.2201 31.0871 15.0596 31.2356 15.0101V15.0101C31.5156 14.9167 31.8283 14.8047 32.1736 14.6741C32.5189 14.5434 32.8503 14.4034 33.1676 14.2541C33.445 14.1154 33.6582 13.9802 33.8072 13.8487C33.8469 13.8136 33.8974 13.7921 33.9504 13.7921H34.8856C34.9961 13.7921 35.0856 13.7025 35.0856 13.5921V13.0961C35.0856 12.9856 34.9961 12.8961 34.8856 12.8961H34.6392C34.4905 12.8961 34.3907 12.7372 34.4285 12.5934C34.4454 12.5289 34.4591 12.4618 34.4696 12.3921C34.4976 12.1961 34.5116 12.0001 34.5116 11.804C34.5116 11.0107 34.2363 10.4227 33.6856 10.0401C33.1443 9.64805 32.4023 9.45205 31.4596 9.45205C30.9743 9.45205 30.4749 9.50805 29.9616 9.62005C29.5227 9.71582 29.1418 9.83205 28.8188 9.96876C28.7268 10.0077 28.6821 10.1111 28.7123 10.2064L28.9406 10.9281C28.9771 11.0435 29.1069 11.1001 29.2182 11.0525C29.482 10.9397 29.7718 10.8355 30.0876 10.7401C30.4983 10.6187 30.9323 10.5581 31.3896 10.5581C32.0243 10.5581 32.4909 10.6841 32.7896 10.9361C33.0883 11.1787 33.2376 11.5194 33.2376 11.9581C33.2376 12.1727 33.2189 12.3501 33.1816 12.4901C33.1609 12.5936 33.1274 12.6946 33.0811 12.7931C33.0506 12.8581 32.9833 12.8961 32.9115 12.8961H27.8796C27.7691 12.8961 27.6796 12.9856 27.6796 13.0961V13.5921C27.6796 13.7025 27.7691 13.7921 27.8796 13.7921H31.4506C31.5854 13.7921 31.6145 13.9427 31.4876 13.9881V13.9881C31.2263 14.0721 30.9229 14.1747 30.5776 14.2961C30.2416 14.4174 29.9149 14.5574 29.5976 14.7161C29.3214 14.85 29.094 14.9989 28.9154 15.1628C28.8763 15.1986 28.8258 15.2201 28.7728 15.2201H27.8796C27.7691 15.2201 27.6796 15.3096 27.6796 15.4201V15.9161C27.6796 16.0265 27.7691 16.1161 27.8796 16.1161H28.0544C28.1926 16.1161 28.2896 16.2532 28.2585 16.3878C28.2086 16.6033 28.1836 16.8347 28.1836 17.0821C28.1836 17.9687 28.4776 18.6314 29.0656 19.0701Z" fill="#7BAB74"/>
</svg>
