<svg width="52" height="26" viewBox="0 0 52 26" fill="none" xmlns="http://www.w3.org/2000/svg">
<path fill-rule="evenodd" clip-rule="evenodd" d="M49.3787 2.2C49.3787 2.08954 49.2892 2 49.1787 2H2.04045C1.93 2 1.84045 2.08954 1.84045 2.2V3.13333C1.84045 3.24379 1.93 3.33333 2.04045 3.33333H47.716C47.8264 3.33333 47.916 3.42287 47.916 3.53333V23.8C47.916 23.9105 48.0055 24 48.116 24H49.1787C49.2892 24 49.3787 23.9105 49.3787 23.8V2.2Z" fill="#DEE0CA"/>
<path fill-rule="evenodd" clip-rule="evenodd" d="M51.3787 0.2C51.3787 0.089543 51.2892 0 51.1787 0H3.78392C3.67347 0 3.58392 0.0895433 3.58392 0.2V1.13334C3.58392 1.2438 3.67347 1.33334 3.78392 1.33334H49.7075C49.8179 1.33334 49.9075 1.42289 49.9075 1.53334V21.8C49.9075 21.9105 49.997 22 50.1075 22H51.1787C51.2892 22 51.3787 21.9105 51.3787 21.8V0.2Z" fill="#DEE0CA"/>
<path fill-rule="evenodd" clip-rule="evenodd" d="M47.3787 4.20012C47.3787 4.08967 47.2891 4.00012 47.1787 4.00012H0.2C0.0895431 4.00012 0 4.08967 0 4.20012V25.8001C0 25.9106 0.0895436 26.0001 0.200001 26.0001H47.1787C47.2891 26.0001 47.3787 25.9106 47.3787 25.8001V4.20012ZM13.3977 10.1818C12.901 10.5257 12.4896 11.0492 12.1637 11.7522C12.1151 11.857 12.1698 11.9796 12.279 12.0175L13.1782 12.33C13.2792 12.3651 13.3895 12.3145 13.4339 12.2172C13.4807 12.1148 13.5337 12.0092 13.593 11.9006C13.6867 11.7287 13.8091 11.5698 13.9602 11.424C14.1112 11.2782 14.2987 11.1584 14.5227 11.0646C14.7466 10.9657 15.0201 10.9162 15.343 10.9162C15.6555 10.9162 15.9185 10.9683 16.132 11.0724C16.3456 11.1766 16.5175 11.312 16.6477 11.4787C16.7779 11.6401 16.8716 11.8224 16.9289 12.0256C16.9862 12.2235 17.0149 12.4188 17.0149 12.6115C17.0149 12.8928 16.9498 13.187 16.8195 13.4943C16.6945 13.8016 16.5227 14.1167 16.3039 14.4396C16.0852 14.7625 15.8326 15.0907 15.5461 15.424C15.2597 15.7573 14.9602 16.0881 14.6477 16.4162L12.0156 19.1707C11.98 19.2079 11.9602 19.2574 11.9602 19.3089V20.3881C11.9602 20.4985 12.0497 20.5881 12.1602 20.5881H18.5492C18.6597 20.5881 18.7492 20.4985 18.7492 20.3881V19.4599C18.7492 19.3495 18.6597 19.2599 18.5492 19.2599H14.1677C13.9909 19.2599 13.9011 19.0474 14.0243 18.9206L15.5617 17.3381C16.1086 16.7704 16.5695 16.2625 16.9445 15.8146C17.3248 15.3667 17.6294 14.9579 17.8586 14.5881C18.093 14.2131 18.2597 13.8641 18.3586 13.5412C18.4628 13.2183 18.5149 12.9006 18.5149 12.5881C18.5149 12.0776 18.4341 11.6375 18.2727 11.2678C18.1112 10.8928 17.8925 10.5829 17.6164 10.3381C17.3404 10.0933 17.0175 9.91359 16.6477 9.799C16.2779 9.67921 15.8847 9.61932 15.468 9.61932C14.6294 9.61932 13.9393 9.80682 13.3977 10.1818ZM20.6867 13.8849C20.6503 14.3224 20.632 14.7469 20.632 15.1584C20.632 15.5698 20.6503 15.9969 20.6867 16.4396C20.7232 16.8771 20.7883 17.3042 20.882 17.7209C20.9758 18.1375 21.106 18.5334 21.2727 18.9084C21.4393 19.2782 21.6529 19.6037 21.9133 19.8849C22.1737 20.161 22.4862 20.3823 22.8508 20.549C23.2206 20.7105 23.6555 20.7912 24.1555 20.7912C24.6242 20.7912 25.0357 20.7157 25.3899 20.5646C25.7492 20.4084 26.0591 20.1974 26.3195 19.9318C26.58 19.6662 26.7987 19.3537 26.9758 18.9943C27.1529 18.6297 27.2935 18.2391 27.3977 17.8224C27.5018 17.4058 27.5748 16.9709 27.6164 16.5178C27.6633 16.0646 27.6867 15.6115 27.6867 15.1584C27.6867 14.7053 27.6633 14.2521 27.6164 13.799C27.5748 13.3459 27.5018 12.911 27.3977 12.4943C27.2935 12.0776 27.1529 11.6896 26.9758 11.3303C26.7987 10.9657 26.58 10.6506 26.3195 10.3849C26.0591 10.1193 25.7492 9.91098 25.3899 9.75994C25.0357 9.60369 24.6242 9.52557 24.1555 9.52557C23.6555 9.52557 23.2206 9.6089 22.8508 9.77557C22.4862 9.93702 22.1737 10.1584 21.9133 10.4396C21.6529 10.7157 21.4393 11.0412 21.2727 11.4162C21.106 11.786 20.9758 12.1792 20.882 12.5959C20.7883 13.0125 20.7232 13.4422 20.6867 13.8849ZM26.0852 13.3537C26.1529 13.8849 26.1867 14.4865 26.1867 15.1584C26.1867 15.8303 26.1529 16.4344 26.0852 16.9709C26.0175 17.5021 25.9055 17.9553 25.7492 18.3303C25.593 18.7053 25.3847 18.9943 25.1242 19.1974C24.8638 19.3954 24.5435 19.4943 24.1633 19.4943C23.7466 19.4943 23.4055 19.3797 23.1399 19.1506C22.8742 18.9162 22.6659 18.6037 22.5149 18.2131C22.3638 17.8172 22.2597 17.3563 22.2024 16.8303C22.1451 16.3042 22.1164 15.7469 22.1164 15.1584C22.1164 14.5698 22.1451 14.0125 22.2024 13.4865C22.2597 12.9605 22.3638 12.5021 22.5149 12.1115C22.6659 11.7157 22.8742 11.4032 23.1399 11.174C23.4055 10.9396 23.7466 10.8224 24.1633 10.8224C24.5435 10.8224 24.8638 10.924 25.1242 11.1271C25.3847 11.325 25.593 11.6115 25.7492 11.9865C25.9055 12.3615 26.0175 12.8172 26.0852 13.3537ZM31.1496 20.2258C31.3628 20.272 31.5843 20.3015 31.8141 20.3145C31.9232 20.3206 32.011 20.4092 32.011 20.5185V21.4887C32.011 21.5991 32.1005 21.6887 32.211 21.6887H32.6518C32.7622 21.6887 32.8518 21.5991 32.8518 21.4887V20.4709C32.8518 20.37 32.9271 20.2853 33.0269 20.2694C33.3316 20.2207 33.6219 20.1446 33.8977 20.0412C34.2258 19.9181 34.5129 19.7541 34.759 19.549C35.0097 19.3439 35.2079 19.0978 35.3537 18.8107C35.4996 18.5191 35.5725 18.1795 35.5725 17.7922C35.5725 17.4048 35.4927 17.0721 35.3332 16.7941C35.1737 16.5116 34.9664 16.27 34.7112 16.0695C34.4559 15.869 34.1666 15.7004 33.843 15.5637C33.5698 15.4466 33.2933 15.3429 33.0135 15.2525C32.9298 15.2255 32.8723 15.1481 32.8723 15.0602V12.7569C32.8723 12.6384 32.9749 12.5453 33.092 12.5634C33.1889 12.5784 33.282 12.5964 33.3713 12.6174C33.5308 12.6538 33.6766 12.704 33.8088 12.7678C33.9455 12.8316 34.0663 12.9113 34.1711 13.007C34.2307 13.0614 34.2844 13.1225 34.3322 13.1902C34.3943 13.2781 34.5084 13.3203 34.6064 13.2758L35.2649 12.976C35.3552 12.9349 35.4029 12.8333 35.3672 12.7407C35.3143 12.6032 35.2483 12.4801 35.1692 12.3713C35.0598 12.2163 34.9322 12.0864 34.7863 11.9816C34.6405 11.8722 34.4833 11.7834 34.3147 11.715C34.1506 11.6467 33.982 11.592 33.8088 11.551C33.6402 11.5054 33.4761 11.4735 33.3166 11.4553C33.2286 11.4452 33.1448 11.4365 33.0652 11.4293C32.9605 11.4197 32.8791 11.3327 32.8791 11.2276V10.5137C32.8791 10.4032 32.7896 10.3137 32.6791 10.3137H32.2315C32.121 10.3137 32.0315 10.4032 32.0315 10.5137V11.2573C32.0315 11.3586 31.9557 11.4434 31.8557 11.4591C31.5775 11.5028 31.3103 11.5699 31.0539 11.6603C30.7486 11.7697 30.4774 11.9201 30.2404 12.1115C30.008 12.2984 29.8212 12.5285 29.6799 12.8019C29.5432 13.0708 29.4748 13.383 29.4748 13.7385C29.4748 14.0757 29.5158 14.3719 29.5979 14.6271C29.6845 14.8778 29.8257 15.1034 30.0217 15.3039C30.2222 15.4999 30.4843 15.6776 30.8078 15.8371C31.099 15.9765 31.4529 16.1122 31.8695 16.2443C31.9534 16.2709 32.011 16.3484 32.011 16.4364V18.9622C32.011 19.0768 31.9147 19.1687 31.8009 19.1553C31.6242 19.1345 31.4618 19.0994 31.3137 19.05C31.1132 18.9771 30.9354 18.8905 30.7805 18.7902C30.6255 18.6854 30.4934 18.5737 30.384 18.4553C30.3288 18.3932 30.2783 18.3317 30.2324 18.2708C30.1623 18.1778 30.0303 18.1513 29.9347 18.2176C29.8611 18.2686 29.7876 18.3182 29.7141 18.3664C29.6253 18.4235 29.5342 18.485 29.441 18.5509C29.3676 18.6028 29.339 18.6983 29.3748 18.7807C29.4797 19.0218 29.6088 19.2323 29.7619 19.4123C29.9442 19.6219 30.1516 19.7951 30.384 19.9318C30.621 20.064 30.8762 20.162 31.1496 20.2258ZM34.1164 17.4162C34.1893 17.5484 34.2258 17.7033 34.2258 17.881C34.2258 18.0269 34.1985 18.1681 34.1438 18.3049C34.0936 18.4416 34.0139 18.5669 33.9045 18.6808C33.7951 18.7948 33.6539 18.8928 33.4807 18.9748C33.3672 19.03 33.2382 19.0728 33.0938 19.1033C32.9768 19.1279 32.8723 19.034 32.8723 18.9144V16.8435C32.8723 16.7038 33.0118 16.6073 33.1398 16.6629C33.2261 16.7004 33.3101 16.7396 33.3918 16.7804C33.5559 16.8579 33.6994 16.9491 33.8225 17.0539C33.9455 17.1587 34.0435 17.2795 34.1164 17.4162ZM30.8762 14.1486C30.8169 14.021 30.7873 13.8683 30.7873 13.6906C30.7873 13.5995 30.801 13.4992 30.8283 13.3898C30.8602 13.2759 30.9195 13.1665 31.0061 13.0617C31.0972 12.9523 31.2225 12.8543 31.382 12.7678C31.4943 12.7054 31.63 12.6526 31.7892 12.6095C31.9102 12.5767 32.0246 12.6719 32.0246 12.7973V14.6573C32.0246 14.7957 31.8873 14.8923 31.7596 14.8388C31.6807 14.8058 31.605 14.7717 31.5324 14.7365C31.382 14.6636 31.2499 14.5793 31.136 14.4836C31.0266 14.3879 30.94 14.2762 30.8762 14.1486Z" fill="#DEE0CA"/>
</svg>
