<svg width="52" height="26" viewBox="0 0 52 26" fill="none" xmlns="http://www.w3.org/2000/svg">
<path fill-rule="evenodd" clip-rule="evenodd" d="M49.7575 2.20012C49.7575 2.08967 49.6679 2.00012 49.5575 2.00012H2.41921C2.30875 2.00012 2.21921 2.08967 2.21921 2.20012V3.13345C2.21921 3.24391 2.30875 3.33345 2.41921 3.33345H48.0947C48.2052 3.33345 48.2947 3.423 48.2947 3.53345V23.8001C48.2947 23.9106 48.3843 24.0001 48.4947 24.0001H49.5575C49.6679 24.0001 49.7575 23.9106 49.7575 23.8001V2.20012Z" fill="#B98671"/>
<path fill-rule="evenodd" clip-rule="evenodd" d="M51.7575 0.200122C51.7575 0.0896651 51.6679 0.00012207 51.5575 0.00012207H4.16265C4.05219 0.00012207 3.96265 0.0896653 3.96265 0.200122V1.13347C3.96265 1.24392 4.05219 1.33347 4.16265 1.33347H50.0862C50.1967 1.33347 50.2862 1.42301 50.2862 1.53347V21.8001C50.2862 21.9106 50.3757 22.0001 50.4862 22.0001H51.5575C51.6679 22.0001 51.7575 21.9106 51.7575 21.8001V0.200122Z" fill="#B98671"/>
<path fill-rule="evenodd" clip-rule="evenodd" d="M47.7574 4.20023C47.7574 4.08977 47.6679 4.00023 47.5574 4.00023H0.578723C0.468266 4.00023 0.378723 4.08977 0.378723 4.20023V25.8002C0.378723 25.9107 0.468267 26.0002 0.578724 26.0002H47.5574C47.6679 26.0002 47.7574 25.9107 47.7574 25.8002V4.20023ZM18.4912 10.4827C18.0623 10.7797 17.7062 11.2296 17.4228 11.8327C17.3736 11.9373 17.4284 12.0598 17.5376 12.0977L18.2766 12.3546C18.3776 12.3897 18.4879 12.339 18.5329 12.242C18.5714 12.1592 18.6144 12.0741 18.6621 11.9866C18.7442 11.8362 18.8513 11.6972 18.9834 11.5696C19.1156 11.442 19.2797 11.3372 19.4756 11.2552C19.6716 11.1686 19.9108 11.1253 20.1934 11.1253C20.4668 11.1253 20.697 11.1709 20.8838 11.262C21.0707 11.3531 21.2211 11.4716 21.335 11.6175C21.4489 11.7587 21.531 11.9183 21.5811 12.096C21.6312 12.2692 21.6563 12.4401 21.6563 12.6087C21.6563 12.8548 21.5993 13.1123 21.4854 13.3811C21.376 13.65 21.2256 13.9257 21.0342 14.2083C20.8428 14.4908 20.6218 14.778 20.3711 15.0696C20.1205 15.3613 19.8584 15.6507 19.585 15.9378L17.2888 18.3407C17.2533 18.378 17.2334 18.4274 17.2334 18.4789V19.3882C17.2334 19.4986 17.323 19.5882 17.4334 19.5882H22.9739C23.0843 19.5882 23.1739 19.4986 23.1739 19.3882V18.6261C23.1739 18.5156 23.0843 18.4261 22.9739 18.4261H19.2242C19.0474 18.4261 18.9575 18.2135 19.0807 18.0867L20.3848 16.7444C20.8633 16.2477 21.2666 15.8033 21.5948 15.4114C21.9274 15.0195 22.194 14.6617 22.3946 14.3382C22.5996 14.01 22.7455 13.7047 22.8321 13.4222C22.9232 13.1396 22.9688 12.8616 22.9688 12.5882C22.9688 12.1416 22.8981 11.7565 22.7569 11.4329C22.6156 11.1048 22.4242 10.8336 22.1826 10.6194C21.9411 10.4052 21.6586 10.248 21.335 10.1477C21.0114 10.0429 20.6673 9.99052 20.3028 9.99052C19.569 9.99052 18.9652 10.1546 18.4912 10.4827ZM25.4658 19.0702C26.0538 19.5088 26.8938 19.7282 27.9858 19.7282C28.5458 19.7282 29.0918 19.6675 29.6238 19.5462C30.0936 19.439 30.4796 19.321 30.782 19.192C30.8533 19.1616 30.8978 19.0907 30.8978 19.0133V18.3139C30.8978 18.1692 30.7485 18.0716 30.6135 18.1237C30.3337 18.2317 30.0085 18.3372 29.6378 18.4402C29.1431 18.5708 28.6298 18.6362 28.0978 18.6362C26.5951 18.6362 25.8438 18.0948 25.8438 17.0122C25.8438 16.7975 25.8578 16.6295 25.8858 16.5082C25.9065 16.4184 25.94 16.3235 25.9863 16.2236C26.0173 16.1565 26.0859 16.1162 26.1598 16.1162H31.2858C31.3963 16.1162 31.4858 16.0266 31.4858 15.9162V15.4202C31.4858 15.3097 31.3963 15.2202 31.2858 15.2202H27.6754C27.5188 15.2202 27.4873 15.0597 27.6358 15.0102V15.0102C27.9158 14.9168 28.2285 14.8048 28.5738 14.6742C28.9191 14.5435 29.2505 14.4035 29.5678 14.2542C29.8452 14.1155 30.0584 13.9804 30.2074 13.8488C30.2472 13.8137 30.2976 13.7922 30.3507 13.7922H31.2858C31.3963 13.7922 31.4858 13.7026 31.4858 13.5922V13.0962C31.4858 12.9857 31.3963 12.8962 31.2858 12.8962H31.0394C30.8907 12.8962 30.7909 12.7373 30.8287 12.5935C30.8456 12.529 30.8594 12.4619 30.8698 12.3922C30.8978 12.1962 30.9118 12.0002 30.9118 11.8042C30.9118 11.0108 30.6365 10.4228 30.0858 10.0402C29.5445 9.64817 28.8025 9.45217 27.8598 9.45217C27.3745 9.45217 26.8751 9.50817 26.3618 9.62017C25.9229 9.71594 25.542 9.83217 25.219 9.96888C25.127 10.0079 25.0823 10.1112 25.1125 10.2066L25.3408 10.9282C25.3773 11.0436 25.5071 11.1002 25.6184 11.0526C25.8822 10.9398 26.172 10.8357 26.4878 10.7402C26.8985 10.6188 27.3325 10.5582 27.7898 10.5582C28.4245 10.5582 28.8911 10.6842 29.1898 10.9362C29.4885 11.1788 29.6378 11.5195 29.6378 11.9582C29.6378 12.1728 29.6191 12.3502 29.5818 12.4902C29.5611 12.5937 29.5276 12.6948 29.4814 12.7932C29.4508 12.8582 29.3835 12.8962 29.3117 12.8962H24.2798C24.1694 12.8962 24.0798 12.9857 24.0798 13.0962V13.5922C24.0798 13.7026 24.1694 13.7922 24.2798 13.7922H27.8508C27.9856 13.7922 28.0147 13.9428 27.8878 13.9882V13.9882C27.6265 14.0722 27.3231 14.1748 26.9778 14.2962C26.6418 14.4175 26.3151 14.5575 25.9978 14.7162C25.7216 14.8501 25.4942 14.999 25.3156 15.1629C25.2765 15.1988 25.226 15.2202 25.173 15.2202H24.2798C24.1694 15.2202 24.0798 15.3097 24.0798 15.4202V15.9162C24.0798 16.0266 24.1694 16.1162 24.2798 16.1162H24.4546C24.5928 16.1162 24.6899 16.2533 24.6587 16.3879C24.6088 16.6034 24.5838 16.8349 24.5838 17.0822C24.5838 17.9688 24.8778 18.6315 25.4658 19.0702Z" fill="#B98671"/>
</svg>
