<svg width="52" height="26" viewBox="0 0 52 26" fill="none" xmlns="http://www.w3.org/2000/svg">
<path fill-rule="evenodd" clip-rule="evenodd" d="M49.3787 2.2C49.3787 2.08954 49.2892 2 49.1787 2H2.04048C1.93003 2 1.84048 2.08954 1.84048 2.2V3.13333C1.84048 3.24379 1.93003 3.33333 2.04048 3.33333H47.716C47.8264 3.33333 47.916 3.42287 47.916 3.53333V23.8C47.916 23.9105 48.0055 24 48.116 24H49.1787C49.2892 24 49.3787 23.9105 49.3787 23.8V2.2Z" fill="#E5E0CD"/>
<path fill-rule="evenodd" clip-rule="evenodd" d="M51.3787 0.2C51.3787 0.089543 51.2892 0 51.1787 0H3.78392C3.67347 0 3.58392 0.0895433 3.58392 0.2V1.13334C3.58392 1.2438 3.67347 1.33334 3.78392 1.33334H49.7075C49.8179 1.33334 49.9075 1.42289 49.9075 1.53334V21.8C49.9075 21.9105 49.997 22 50.1075 22H51.1787C51.2892 22 51.3787 21.9105 51.3787 21.8V0.2Z" fill="#E5E0CD"/>
<path fill-rule="evenodd" clip-rule="evenodd" d="M47.3787 4.20012C47.3787 4.08967 47.2891 4.00012 47.1787 4.00012H0.2C0.0895431 4.00012 0 4.08967 0 4.20012V25.8001C0 25.9106 0.0895436 26.0001 0.200001 26.0001H47.1787C47.2891 26.0001 47.3787 25.9106 47.3787 25.8001V4.20012ZM17.9445 10.1818C17.4478 10.5257 17.0365 11.0492 16.7106 11.7522C16.662 11.857 16.7167 11.9796 16.8258 12.0175L17.7251 12.33C17.826 12.3651 17.9364 12.3145 17.9808 12.2172C18.0275 12.1148 18.0806 12.0092 18.1399 11.9006C18.2336 11.7287 18.356 11.5698 18.507 11.424C18.6581 11.2782 18.8456 11.1584 19.0695 11.0646C19.2935 10.9657 19.5669 10.9162 19.8899 10.9162C20.2024 10.9162 20.4654 10.9683 20.6789 11.0724C20.8925 11.1766 21.0643 11.312 21.1945 11.4787C21.3248 11.6401 21.4185 11.8224 21.4758 12.0256C21.5331 12.2235 21.5617 12.4188 21.5617 12.6115C21.5617 12.8928 21.4966 13.187 21.3664 13.4943C21.2414 13.8016 21.0695 14.1167 20.8508 14.4396C20.632 14.7625 20.3794 15.0907 20.093 15.424C19.8065 15.7573 19.507 16.0881 19.1945 16.4162L16.5624 19.1707C16.5269 19.2079 16.507 19.2574 16.507 19.3089V20.3881C16.507 20.4985 16.5966 20.5881 16.707 20.5881H23.0961C23.2066 20.5881 23.2961 20.4985 23.2961 20.3881V19.4599C23.2961 19.3495 23.2066 19.2599 23.0961 19.2599H18.7146C18.5378 19.2599 18.4479 19.0474 18.5711 18.9206L20.1086 17.3381C20.6555 16.7704 21.1164 16.2625 21.4914 15.8146C21.8716 15.3667 22.1763 14.9579 22.4055 14.5881C22.6399 14.2131 22.8065 13.8641 22.9055 13.5412C23.0097 13.2183 23.0617 12.9006 23.0617 12.5881C23.0617 12.0776 22.981 11.6375 22.8195 11.2678C22.6581 10.8928 22.4393 10.5829 22.1633 10.3381C21.8873 10.0933 21.5643 9.91359 21.1945 9.799C20.8248 9.67921 20.4315 9.61932 20.0149 9.61932C19.1763 9.61932 18.4862 9.80682 17.9445 10.1818ZM26.6028 20.2258C26.8159 20.2719 27.0374 20.3015 27.2672 20.3145C27.3763 20.3206 27.4641 20.4092 27.4641 20.5185V21.4887C27.4641 21.5991 27.5536 21.6887 27.6641 21.6887H28.1049C28.2154 21.6887 28.3049 21.5991 28.3049 21.4887V20.4709C28.3049 20.37 28.3803 20.2853 28.48 20.2694C28.7847 20.2207 29.075 20.1446 29.3508 20.0412C29.6789 19.9181 29.966 19.7541 30.2121 19.549C30.4628 19.3439 30.661 19.0978 30.8069 18.8107C30.9527 18.5191 31.0256 18.1795 31.0256 17.7922C31.0256 17.4048 30.9459 17.0721 30.7863 16.7941C30.6268 16.5116 30.4195 16.27 30.1643 16.0695C29.9091 15.869 29.6197 15.7004 29.2961 15.5637C29.023 15.4466 28.7465 15.3429 28.4666 15.2525C28.3829 15.2255 28.3254 15.1481 28.3254 15.0602V12.7569C28.3254 12.6384 28.428 12.5453 28.5452 12.5634C28.642 12.5784 28.7351 12.5964 28.8244 12.6174C28.9839 12.6538 29.1298 12.704 29.2619 12.7678C29.3986 12.8316 29.5194 12.9113 29.6242 13.007C29.6838 13.0614 29.7375 13.1225 29.7854 13.1902C29.8475 13.2781 29.9616 13.3203 30.0595 13.2758L30.718 12.976C30.8083 12.9349 30.856 12.8333 30.8203 12.7407C30.7675 12.6032 30.7014 12.4801 30.6223 12.3713C30.5129 12.2163 30.3853 12.0864 30.2395 11.9816C30.0936 11.8722 29.9364 11.7834 29.7678 11.715C29.6037 11.6467 29.4351 11.592 29.2619 11.551C29.0933 11.5054 28.9292 11.4735 28.7697 11.4553C28.6818 11.4452 28.598 11.4365 28.5183 11.4293C28.4136 11.4197 28.3322 11.3327 28.3322 11.2276V10.5137C28.3322 10.4032 28.2427 10.3137 28.1322 10.3137H27.6846C27.5741 10.3137 27.4846 10.4032 27.4846 10.5137V11.2573C27.4846 11.3586 27.4088 11.4434 27.3088 11.4591C27.0307 11.5028 26.7634 11.5699 26.507 11.6603C26.2017 11.7697 25.9306 11.9201 25.6936 12.1115C25.4611 12.2984 25.2743 12.5285 25.133 12.8019C24.9963 13.0708 24.9279 13.383 24.9279 13.7385C24.9279 14.0757 24.969 14.3719 25.051 14.6271C25.1376 14.8778 25.2789 15.1034 25.4748 15.3039C25.6753 15.4999 25.9374 15.6776 26.261 15.8371C26.5521 15.9765 26.906 16.1122 27.3226 16.2443C27.4065 16.2709 27.4641 16.3484 27.4641 16.4364V18.9622C27.4641 19.0768 27.3678 19.1687 27.2541 19.1553C27.0774 19.1345 26.915 19.0994 26.7668 19.05C26.5663 18.9771 26.3886 18.8905 26.2336 18.7902C26.0787 18.6854 25.9465 18.5737 25.8371 18.4553C25.7819 18.3932 25.7314 18.3317 25.6855 18.2708C25.6155 18.1778 25.4834 18.1513 25.3878 18.2176C25.3143 18.2686 25.2407 18.3182 25.1672 18.3664C25.0784 18.4235 24.9873 18.485 24.8941 18.5509C24.8207 18.6028 24.7921 18.6983 24.828 18.7807C24.9329 19.0218 25.0619 19.2323 25.2151 19.4123C25.3973 19.6219 25.6047 19.7951 25.8371 19.9318C26.0741 20.064 26.3293 20.162 26.6028 20.2258ZM29.5695 17.4162C29.6425 17.5484 29.6789 17.7033 29.6789 17.881C29.6789 18.0269 29.6516 18.1681 29.5969 18.3049C29.5468 18.4416 29.467 18.5669 29.3576 18.6808C29.2483 18.7948 29.107 18.8928 28.9338 18.9748C28.8203 19.03 28.6914 19.0728 28.5469 19.1033C28.4299 19.1279 28.3254 19.034 28.3254 18.9144V16.8435C28.3254 16.7038 28.4649 16.6073 28.593 16.6629C28.6792 16.7004 28.7632 16.7396 28.8449 16.7804C29.009 16.8579 29.1526 16.9491 29.2756 17.0539C29.3986 17.1587 29.4966 17.2795 29.5695 17.4162ZM26.3293 14.1486C26.2701 14.021 26.2404 13.8683 26.2404 13.6906C26.2404 13.5995 26.2541 13.4992 26.2815 13.3898C26.3134 13.2759 26.3726 13.1665 26.4592 13.0617C26.5503 12.9523 26.6757 12.8543 26.8352 12.7678C26.9474 12.7054 27.0831 12.6526 27.2423 12.6095C27.3634 12.5767 27.4778 12.6719 27.4778 12.7973V14.6573C27.4778 14.7957 27.3404 14.8923 27.2127 14.8388C27.1338 14.8058 27.0581 14.7717 26.9856 14.7365C26.8352 14.6636 26.703 14.5793 26.5891 14.4836C26.4797 14.3879 26.3931 14.2762 26.3293 14.1486Z" fill="#E5E0CD"/>
</svg>
