<svg width="52" height="26" viewBox="0 0 52 26" fill="none" xmlns="http://www.w3.org/2000/svg">
<path fill-rule="evenodd" clip-rule="evenodd" d="M49.3787 2.2C49.3787 2.08954 49.2892 2 49.1787 2H2.04048C1.93003 2 1.84048 2.08954 1.84048 2.2V3.13333C1.84048 3.24379 1.93003 3.33333 2.04048 3.33333H47.716C47.8264 3.33333 47.916 3.42287 47.916 3.53333V23.8C47.916 23.9105 48.0055 24 48.116 24H49.1787C49.2892 24 49.3787 23.9105 49.3787 23.8V2.2Z" fill="#CC93BB"/>
<path fill-rule="evenodd" clip-rule="evenodd" d="M51.3787 0.2C51.3787 0.089543 51.2892 0 51.1787 0H3.78392C3.67347 0 3.58392 0.0895433 3.58392 0.2V1.13334C3.58392 1.2438 3.67347 1.33334 3.78392 1.33334H49.7075C49.8179 1.33334 49.9075 1.42289 49.9075 1.53334V21.8C49.9075 21.9105 49.997 22 50.1075 22H51.1787C51.2892 22 51.3787 21.9105 51.3787 21.8V0.2Z" fill="#CC93BB"/>
<path fill-rule="evenodd" clip-rule="evenodd" d="M47.3787 4.20012C47.3787 4.08967 47.2891 4.00012 47.1787 4.00012H0.2C0.0895431 4.00012 0 4.08967 0 4.20012V25.8001C0 25.9106 0.0895436 26.0001 0.200001 26.0001H47.1787C47.2891 26.0001 47.3787 25.9106 47.3787 25.8001V4.20012ZM11.76 13.9865C11.3485 13.8146 10.885 13.7287 10.3694 13.7287C9.96831 13.7287 9.61154 13.7886 9.29904 13.9084C9.13579 13.9682 8.98533 14.0309 8.84766 14.0965C8.70003 14.1668 8.51937 14.0545 8.53163 13.8915L8.72263 11.3512C8.73048 11.2469 8.81743 11.1662 8.92207 11.1662H12.8412C12.9517 11.1662 13.0412 11.0766 13.0412 10.9662V10.0303C13.0412 9.9198 12.9517 9.83025 12.8412 9.83025H7.61623C7.50577 9.83025 7.41623 9.9198 7.41623 10.0303V15.4845C7.41623 15.5736 7.47516 15.652 7.56076 15.6767L8.05182 15.8184C8.1264 15.8399 8.20626 15.8159 8.26082 15.7607C8.3171 15.7038 8.38193 15.6436 8.45529 15.5803C8.56987 15.4813 8.70269 15.3901 8.85373 15.3068C9.00477 15.2183 9.17404 15.1454 9.36154 15.0881C9.55425 15.0256 9.76258 14.9943 9.98654 14.9943C10.6845 14.9943 11.2261 15.1818 11.6115 15.5568C11.997 15.9318 12.1897 16.4631 12.1897 17.1506C12.1897 17.4318 12.1506 17.7131 12.0725 17.9943C11.9996 18.2704 11.872 18.5178 11.6897 18.7365C11.5126 18.9553 11.2756 19.1323 10.9787 19.2678C10.6871 19.4032 10.3251 19.4709 9.89279 19.4709C9.7105 19.4709 9.51779 19.4474 9.31467 19.4006C9.11154 19.3537 8.91362 19.2834 8.72092 19.1896C8.53342 19.0907 8.35894 18.9657 8.19748 18.8146C8.09358 18.7174 8.00369 18.6073 7.92783 18.4842C7.86153 18.3766 7.71809 18.3357 7.61473 18.4084L7.01387 18.831C6.94193 18.8816 6.91077 18.9736 6.9426 19.0556C7.03775 19.3007 7.16437 19.5198 7.32248 19.7131C7.51519 19.937 7.73914 20.1271 7.99435 20.2834C8.25477 20.4344 8.54123 20.549 8.85373 20.6271C9.17144 20.7053 9.50217 20.7443 9.84592 20.7443C10.4501 20.7443 10.9891 20.6584 11.4631 20.4865C11.9423 20.3094 12.3459 20.0646 12.674 19.7521C13.0074 19.4344 13.26 19.0542 13.4319 18.6115C13.6089 18.1636 13.6975 17.6662 13.6975 17.1193C13.6975 16.6297 13.6194 16.1766 13.4631 15.7599C13.3121 15.3433 13.0933 14.9865 12.8069 14.6896C12.5204 14.3875 12.1714 14.1532 11.76 13.9865ZM15.6115 13.8849C15.5751 14.3224 15.5569 14.7469 15.5569 15.1584C15.5569 15.5698 15.5751 15.9969 15.6115 16.4396C15.648 16.8771 15.7131 17.3042 15.8069 17.7209C15.9006 18.1375 16.0308 18.5334 16.1975 18.9084C16.3641 19.2782 16.5777 19.6037 16.8381 19.8849C17.0985 20.161 17.411 20.3823 17.7756 20.549C18.1454 20.7105 18.5803 20.7912 19.0803 20.7912C19.549 20.7912 19.9605 20.7157 20.3147 20.5646C20.674 20.4084 20.9839 20.1974 21.2444 19.9318C21.5048 19.6662 21.7235 19.3537 21.9006 18.9943C22.0777 18.6297 22.2183 18.2391 22.3225 17.8224C22.4266 17.4058 22.4996 16.9709 22.5412 16.5178C22.5881 16.0646 22.6115 15.6115 22.6115 15.1584C22.6115 14.7053 22.5881 14.2521 22.5412 13.799C22.4996 13.3459 22.4266 12.911 22.3225 12.4943C22.2183 12.0776 22.0777 11.6896 21.9006 11.3303C21.7235 10.9657 21.5048 10.6506 21.2444 10.3849C20.9839 10.1193 20.674 9.91098 20.3147 9.75994C19.9605 9.60369 19.549 9.52557 19.0803 9.52557C18.5803 9.52557 18.1454 9.6089 17.7756 9.77557C17.411 9.93702 17.0985 10.1584 16.8381 10.4396C16.5777 10.7157 16.3641 11.0412 16.1975 11.4162C16.0308 11.786 15.9006 12.1792 15.8069 12.5959C15.7131 13.0125 15.648 13.4422 15.6115 13.8849ZM21.01 13.3537C21.0777 13.8849 21.1115 14.4865 21.1115 15.1584C21.1115 15.8303 21.0777 16.4344 21.01 16.9709C20.9423 17.5021 20.8303 17.9553 20.674 18.3303C20.5178 18.7053 20.3095 18.9943 20.049 19.1974C19.7886 19.3954 19.4683 19.4943 19.0881 19.4943C18.6714 19.4943 18.3303 19.3797 18.0647 19.1506C17.799 18.9162 17.5907 18.6037 17.4397 18.2131C17.2886 17.8172 17.1845 17.3563 17.1272 16.8303C17.0699 16.3042 17.0412 15.7469 17.0412 15.1584C17.0412 14.5698 17.0699 14.0125 17.1272 13.4865C17.1845 12.9605 17.2886 12.5021 17.4397 12.1115C17.5907 11.7157 17.799 11.4032 18.0647 11.174C18.3303 10.9396 18.6714 10.8224 19.0881 10.8224C19.4683 10.8224 19.7886 10.924 20.049 11.1271C20.3095 11.325 20.5178 11.6115 20.674 11.9865C20.8303 12.3615 20.9423 12.8172 21.01 13.3537ZM24.7053 13.8849C24.6688 14.3224 24.6506 14.7469 24.6506 15.1584C24.6506 15.5698 24.6688 15.9969 24.7053 16.4396C24.7417 16.8771 24.8069 17.3042 24.9006 17.7209C24.9944 18.1375 25.1246 18.5334 25.2912 18.9084C25.4579 19.2782 25.6714 19.6037 25.9319 19.8849C26.1923 20.161 26.5048 20.3823 26.8694 20.549C27.2391 20.7105 27.674 20.7912 28.174 20.7912C28.6428 20.7912 29.0542 20.7157 29.4084 20.5646C29.7678 20.4084 30.0777 20.1974 30.3381 19.9318C30.5985 19.6662 30.8173 19.3537 30.9944 18.9943C31.1714 18.6297 31.3121 18.2391 31.4162 17.8224C31.5204 17.4058 31.5933 16.9709 31.635 16.5178C31.6819 16.0646 31.7053 15.6115 31.7053 15.1584C31.7053 14.7053 31.6819 14.2521 31.635 13.799C31.5933 13.3459 31.5204 12.911 31.4162 12.4943C31.3121 12.0776 31.1714 11.6896 30.9944 11.3303C30.8173 10.9657 30.5985 10.6506 30.3381 10.3849C30.0777 10.1193 29.7678 9.91098 29.4084 9.75994C29.0542 9.60369 28.6428 9.52557 28.174 9.52557C27.674 9.52557 27.2391 9.6089 26.8694 9.77557C26.5048 9.93702 26.1923 10.1584 25.9319 10.4396C25.6714 10.7157 25.4579 11.0412 25.2912 11.4162C25.1246 11.786 24.9944 12.1792 24.9006 12.5959C24.8069 13.0125 24.7417 13.4422 24.7053 13.8849ZM30.1037 13.3537C30.1714 13.8849 30.2053 14.4865 30.2053 15.1584C30.2053 15.8303 30.1714 16.4344 30.1037 16.9709C30.036 17.5021 29.924 17.9553 29.7678 18.3303C29.6115 18.7053 29.4032 18.9943 29.1428 19.1974C28.8824 19.3954 28.5621 19.4943 28.1819 19.4943C27.7652 19.4943 27.424 19.3797 27.1584 19.1506C26.8928 18.9162 26.6845 18.6037 26.5334 18.2131C26.3824 17.8172 26.2782 17.3563 26.2209 16.8303C26.1636 16.3042 26.135 15.7469 26.135 15.1584C26.135 14.5698 26.1636 14.0125 26.2209 13.4865C26.2782 12.9605 26.3824 12.5021 26.5334 12.1115C26.6845 11.7157 26.8928 11.4032 27.1584 11.174C27.424 10.9396 27.7652 10.8224 28.1819 10.8224C28.5621 10.8224 28.8824 10.924 29.1428 11.1271C29.4032 11.325 29.6115 11.6115 29.7678 11.9865C29.924 12.3615 30.036 12.8172 30.1037 13.3537ZM40.4934 18.6056C40.5166 18.4971 40.534 18.3967 40.5456 18.3043C40.5592 18.1953 40.4732 18.1031 40.3635 18.0986L39.5564 18.0662C39.4524 18.062 39.3634 18.1386 39.344 18.2408C39.2623 18.6719 39.0872 19.0077 38.8186 19.2482C38.5132 19.5217 38.1259 19.6584 37.6565 19.6584C37.3739 19.6584 37.121 19.6037 36.8977 19.4943C36.6789 19.3804 36.4875 19.2277 36.3235 19.0363C36.1594 18.8403 36.0204 18.6102 35.9065 18.3459C35.8227 18.1517 35.7513 17.9451 35.6922 17.7263C35.6589 17.6029 35.7541 17.4846 35.882 17.4846H37.838C37.9253 17.4846 38.0025 17.428 38.0287 17.3448L38.1895 16.8356C38.2302 16.7067 38.134 16.5754 37.9988 16.5754H35.7007C35.6026 16.5754 35.5182 16.5043 35.5077 16.4067C35.4955 16.2943 35.4895 16.1819 35.4895 16.0695C35.4895 15.992 35.4917 15.9146 35.4963 15.8371L35.5029 15.7813C35.5147 15.6806 35.6001 15.6047 35.7015 15.6047H38.2629C38.3496 15.6047 38.4265 15.5487 38.4532 15.4662L38.6178 14.957C38.6596 14.8278 38.5633 14.6955 38.4275 14.6955H35.8583C35.7315 14.6955 35.6365 14.5788 35.6681 14.456C35.7346 14.1971 35.8186 13.9556 35.9201 13.7316C36.0569 13.4354 36.2164 13.1825 36.3987 12.9728C36.5855 12.7586 36.7906 12.5946 37.0139 12.4806C37.2417 12.3622 37.4833 12.3029 37.7385 12.3029C37.7795 12.3029 37.8433 12.3075 37.9299 12.3166C38.021 12.3257 38.1213 12.3485 38.2307 12.3849C38.3401 12.4214 38.454 12.4761 38.5725 12.549C38.691 12.6174 38.8003 12.7153 38.9006 12.8429C39.0009 12.966 39.0852 13.1209 39.1535 13.3078C39.2052 13.4457 39.2426 13.6071 39.2656 13.7919C39.2786 13.8962 39.365 13.9777 39.4701 13.9777H40.3312C40.4455 13.9777 40.5371 13.882 40.5259 13.7682C40.4889 13.39 40.4029 13.0542 40.2678 12.7609C40.1083 12.41 39.9009 12.1183 39.6457 11.8859C39.3951 11.6535 39.1057 11.4803 38.7776 11.3664C38.4494 11.2479 38.1031 11.1887 37.7385 11.1887C37.2737 11.1887 36.8498 11.2752 36.467 11.4484C36.0842 11.617 35.747 11.8563 35.4553 12.1662C35.1636 12.4761 34.9198 12.8475 34.7238 13.2804C34.5492 13.6622 34.418 14.0784 34.3302 14.529C34.3115 14.6249 34.2285 14.6955 34.1308 14.6955H33.6936C33.6068 14.6955 33.53 14.7514 33.5033 14.834L33.3387 15.3431C33.2969 15.4723 33.3932 15.6047 33.529 15.6047H33.9759C34.0968 15.6047 34.1912 15.7114 34.185 15.8322C34.1846 15.8406 34.1842 15.849 34.1838 15.8576C34.1792 15.9533 34.177 16.0331 34.177 16.0969C34.177 16.1789 34.1792 16.2609 34.1838 16.3429C34.184 16.3458 34.1841 16.3486 34.1843 16.3514C34.1916 16.4709 34.0991 16.5754 33.9794 16.5754H33.6889C33.6011 16.5754 33.5236 16.6326 33.4977 16.7165L33.3408 17.2256C33.3011 17.3543 33.3973 17.4846 33.5319 17.4846H34.1453C34.2426 17.4846 34.3255 17.5547 34.3443 17.6502C34.4303 18.0862 34.5522 18.4845 34.7102 18.8449C34.8925 19.2505 35.1226 19.5969 35.4006 19.884C35.6786 20.1665 36.0067 20.3853 36.385 20.5402C36.7678 20.6906 37.203 20.7658 37.6906 20.7658C38.0689 20.7658 38.4016 20.7202 38.6887 20.6291C38.9804 20.5379 39.231 20.4172 39.4406 20.2668C39.6503 20.1164 39.8257 19.9478 39.967 19.7609C40.1083 19.5695 40.2222 19.3758 40.3088 19.1799C40.3954 18.9839 40.4569 18.7925 40.4934 18.6056Z" fill="#CC93BB"/>
</svg>
