<svg width="52" height="26" viewBox="0 0 52 26" fill="none" xmlns="http://www.w3.org/2000/svg">
<path fill-rule="evenodd" clip-rule="evenodd" d="M49.3787 2.2C49.3787 2.08954 49.2892 2 49.1787 2H2.04045C1.93 2 1.84045 2.08954 1.84045 2.2V3.13333C1.84045 3.24379 1.93 3.33333 2.04045 3.33333H47.716C47.8264 3.33333 47.916 3.42287 47.916 3.53333V23.8C47.916 23.9105 48.0055 24 48.116 24H49.1787C49.2892 24 49.3787 23.9105 49.3787 23.8V2.2Z" fill="#C3A4AA"/>
<path fill-rule="evenodd" clip-rule="evenodd" d="M51.3787 0.2C51.3787 0.089543 51.2892 0 51.1787 0H3.78392C3.67347 0 3.58392 0.0895433 3.58392 0.2V1.13334C3.58392 1.2438 3.67347 1.33334 3.78392 1.33334H49.7075C49.8179 1.33334 49.9075 1.42289 49.9075 1.53334V21.8C49.9075 21.9105 49.997 22 50.1075 22H51.1787C51.2892 22 51.3787 21.9105 51.3787 21.8V0.2Z" fill="#C3A4AA"/>
<path fill-rule="evenodd" clip-rule="evenodd" d="M47.3787 4.20012C47.3787 4.08967 47.2891 4.00012 47.1787 4.00012H0.2C0.0895431 4.00012 0 4.08967 0 4.20012V25.8001C0 25.9106 0.0895436 26.0001 0.200001 26.0001H47.1787C47.2891 26.0001 47.3787 25.9106 47.3787 25.8001V4.20012ZM12.2453 13.9865C11.8339 13.8146 11.3703 13.7287 10.8547 13.7287C10.4537 13.7287 10.0969 13.7886 9.78439 13.9084C9.62114 13.9682 9.47068 14.0309 9.33301 14.0965C9.18538 14.1668 9.00473 14.0545 9.01698 13.8915L9.20798 11.3512C9.21583 11.2469 9.30278 11.1662 9.40742 11.1662H13.3266C13.437 11.1662 13.5266 11.0766 13.5266 10.9662V10.0303C13.5266 9.9198 13.437 9.83025 13.3266 9.83025H8.10158C7.99112 9.83025 7.90158 9.9198 7.90158 10.0303V15.4845C7.90158 15.5736 7.96051 15.652 8.04611 15.6767L8.53718 15.8184C8.61175 15.8399 8.69161 15.8159 8.74617 15.7607C8.80245 15.7038 8.86728 15.6436 8.94064 15.5803C9.05523 15.4813 9.18804 15.3901 9.33908 15.3068C9.49012 15.2183 9.65939 15.1454 9.84689 15.0881C10.0396 15.0256 10.2479 14.9943 10.4719 14.9943C11.1698 14.9943 11.7115 15.1818 12.0969 15.5568C12.4823 15.9318 12.675 16.4631 12.675 17.1506C12.675 17.4318 12.636 17.7131 12.5578 17.9943C12.4849 18.2704 12.3573 18.5178 12.175 18.7365C11.9979 18.9553 11.761 19.1323 11.4641 19.2678C11.1724 19.4032 10.8104 19.4709 10.3781 19.4709C10.1959 19.4709 10.0031 19.4474 9.80002 19.4006C9.59689 19.3537 9.39898 19.2834 9.20627 19.1896C9.01877 19.0907 8.84429 18.9657 8.68283 18.8146C8.57893 18.7174 8.48904 18.6073 8.41318 18.4842C8.34688 18.3766 8.20344 18.3357 8.10009 18.4084L7.49922 18.831C7.42728 18.8816 7.39612 18.9736 7.42795 19.0556C7.5231 19.3007 7.64972 19.5198 7.80783 19.7131C8.00054 19.937 8.2245 20.1271 8.4797 20.2834C8.74012 20.4344 9.02658 20.549 9.33908 20.6271C9.65679 20.7053 9.98752 20.7443 10.3313 20.7443C10.9354 20.7443 11.4745 20.6584 11.9485 20.4865C12.4276 20.3094 12.8313 20.0646 13.1594 19.7521C13.4927 19.4344 13.7453 19.0542 13.9172 18.6115C14.0943 18.1636 14.1828 17.6662 14.1828 17.1193C14.1828 16.6297 14.1047 16.1766 13.9485 15.7599C13.7974 15.3433 13.5787 14.9865 13.2922 14.6896C13.0057 14.3875 12.6568 14.1532 12.2453 13.9865ZM16.0969 13.8849C16.0604 14.3224 16.0422 14.7469 16.0422 15.1584C16.0422 15.5698 16.0604 15.9969 16.0969 16.4396C16.1334 16.8771 16.1985 17.3042 16.2922 17.7209C16.386 18.1375 16.5162 18.5334 16.6828 18.9084C16.8495 19.2782 17.063 19.6037 17.3235 19.8849C17.5839 20.161 17.8964 20.3823 18.261 20.549C18.6307 20.7105 19.0656 20.7912 19.5656 20.7912C20.0344 20.7912 20.4459 20.7157 20.8 20.5646C21.1594 20.4084 21.4693 20.1974 21.7297 19.9318C21.9901 19.6662 22.2089 19.3537 22.386 18.9943C22.563 18.6297 22.7037 18.2391 22.8078 17.8224C22.912 17.4058 22.9849 16.9709 23.0266 16.5178C23.0735 16.0646 23.0969 15.6115 23.0969 15.1584C23.0969 14.7053 23.0735 14.2521 23.0266 13.799C22.9849 13.3459 22.912 12.911 22.8078 12.4943C22.7037 12.0776 22.563 11.6896 22.386 11.3303C22.2089 10.9657 21.9901 10.6506 21.7297 10.3849C21.4693 10.1193 21.1594 9.91098 20.8 9.75994C20.4459 9.60369 20.0344 9.52557 19.5656 9.52557C19.0656 9.52557 18.6307 9.6089 18.261 9.77557C17.8964 9.93702 17.5839 10.1584 17.3235 10.4396C17.063 10.7157 16.8495 11.0412 16.6828 11.4162C16.5162 11.786 16.386 12.1792 16.2922 12.5959C16.1985 13.0125 16.1334 13.4422 16.0969 13.8849ZM21.4953 13.3537C21.563 13.8849 21.5969 14.4865 21.5969 15.1584C21.5969 15.8303 21.563 16.4344 21.4953 16.9709C21.4276 17.5021 21.3156 17.9553 21.1594 18.3303C21.0031 18.7053 20.7948 18.9943 20.5344 19.1974C20.274 19.3954 19.9537 19.4943 19.5735 19.4943C19.1568 19.4943 18.8156 19.3797 18.55 19.1506C18.2844 18.9162 18.0761 18.6037 17.925 18.2131C17.774 17.8172 17.6698 17.3563 17.6125 16.8303C17.5552 16.3042 17.5266 15.7469 17.5266 15.1584C17.5266 14.5698 17.5552 14.0125 17.6125 13.4865C17.6698 12.9605 17.774 12.5021 17.925 12.1115C18.0761 11.7157 18.2844 11.4032 18.55 11.174C18.8156 10.9396 19.1568 10.8224 19.5735 10.8224C19.9537 10.8224 20.274 10.924 20.5344 11.1271C20.7948 11.325 21.0031 11.6115 21.1594 11.9865C21.3156 12.3615 21.4276 12.8172 21.4953 13.3537ZM25.1906 13.8849C25.1542 14.3224 25.136 14.7469 25.136 15.1584C25.136 15.5698 25.1542 15.9969 25.1906 16.4396C25.2271 16.8771 25.2922 17.3042 25.386 17.7209C25.4797 18.1375 25.6099 18.5334 25.7766 18.9084C25.9432 19.2782 26.1568 19.6037 26.4172 19.8849C26.6776 20.161 26.9901 20.3823 27.3547 20.549C27.7245 20.7105 28.1594 20.7912 28.6594 20.7912C29.1281 20.7912 29.5396 20.7157 29.8938 20.5646C30.2531 20.4084 30.563 20.1974 30.8235 19.9318C31.0839 19.6662 31.3026 19.3537 31.4797 18.9943C31.6568 18.6297 31.7974 18.2391 31.9016 17.8224C32.0057 17.4058 32.0787 16.9709 32.1203 16.5178C32.1672 16.0646 32.1906 15.6115 32.1906 15.1584C32.1906 14.7053 32.1672 14.2521 32.1203 13.799C32.0787 13.3459 32.0057 12.911 31.9016 12.4943C31.7974 12.0776 31.6568 11.6896 31.4797 11.3303C31.3026 10.9657 31.0839 10.6506 30.8235 10.3849C30.563 10.1193 30.2531 9.91098 29.8938 9.75994C29.5396 9.60369 29.1281 9.52557 28.6594 9.52557C28.1594 9.52557 27.7245 9.6089 27.3547 9.77557C26.9901 9.93702 26.6776 10.1584 26.4172 10.4396C26.1568 10.7157 25.9432 11.0412 25.7766 11.4162C25.6099 11.786 25.4797 12.1792 25.386 12.5959C25.2922 13.0125 25.2271 13.4422 25.1906 13.8849ZM30.5891 13.3537C30.6568 13.8849 30.6906 14.4865 30.6906 15.1584C30.6906 15.8303 30.6568 16.4344 30.5891 16.9709C30.5214 17.5021 30.4094 17.9553 30.2531 18.3303C30.0969 18.7053 29.8886 18.9943 29.6281 19.1974C29.3677 19.3954 29.0474 19.4943 28.6672 19.4943C28.2505 19.4943 27.9094 19.3797 27.6438 19.1506C27.3781 18.9162 27.1698 18.6037 27.0188 18.2131C26.8677 17.8172 26.7636 17.3563 26.7063 16.8303C26.649 16.3042 26.6203 15.7469 26.6203 15.1584C26.6203 14.5698 26.649 14.0125 26.7063 13.4865C26.7636 12.9605 26.8677 12.5021 27.0188 12.1115C27.1698 11.7157 27.3781 11.4032 27.6438 11.174C27.9094 10.9396 28.2505 10.8224 28.6672 10.8224C29.0474 10.8224 29.3677 10.924 29.6281 11.1271C29.8886 11.325 30.0969 11.6115 30.2531 11.9865C30.4094 12.3615 30.5214 12.8172 30.5891 13.3537ZM34.7463 20.0701C35.3343 20.5087 36.1743 20.7281 37.2663 20.7281C37.8263 20.7281 38.3723 20.6674 38.9043 20.5461C39.374 20.4389 39.7601 20.3209 40.0625 20.1919C40.1337 20.1615 40.1783 20.0906 40.1783 20.0131V19.3138C40.1783 19.1691 40.029 19.0715 39.8939 19.1236C39.6142 19.2316 39.2889 19.3371 38.9183 19.4401C38.4236 19.5707 37.9103 19.6361 37.3783 19.6361C35.8756 19.6361 35.1243 19.0947 35.1243 18.0121C35.1243 17.7974 35.1383 17.6294 35.1663 17.5081C35.187 17.4183 35.2205 17.3234 35.2667 17.2235C35.2977 17.1564 35.3664 17.1161 35.4403 17.1161H40.5663C40.6767 17.1161 40.7663 17.0265 40.7663 16.9161V16.4201C40.7663 16.3096 40.6767 16.2201 40.5663 16.2201H36.9558C36.7992 16.2201 36.7677 16.0596 36.9163 16.0101V16.0101C37.1963 15.9167 37.5089 15.8047 37.8543 15.6741C38.1996 15.5434 38.5309 15.4034 38.8483 15.2541C39.1256 15.1154 39.3388 14.9803 39.4878 14.8487C39.5276 14.8136 39.5781 14.7921 39.6311 14.7921H40.5663C40.6767 14.7921 40.7663 14.7025 40.7663 14.5921V14.0961C40.7663 13.9856 40.6767 13.8961 40.5663 13.8961H40.3199C40.1712 13.8961 40.0713 13.7372 40.1091 13.5934C40.1261 13.5289 40.1398 13.4618 40.1503 13.3921C40.1783 13.1961 40.1923 13.0001 40.1923 12.8041C40.1923 12.0107 39.9169 11.4227 39.3663 11.0401C38.8249 10.6481 38.0829 10.4521 37.1403 10.4521C36.6549 10.4521 36.1556 10.5081 35.6423 10.6201C35.2033 10.7158 34.8224 10.8321 34.4995 10.9688C34.4074 11.0078 34.3628 11.1111 34.3929 11.2064L34.6213 11.9281C34.6578 12.0435 34.7876 12.1001 34.8988 12.0525C35.1626 11.9397 35.4525 11.8355 35.7683 11.7401C36.1789 11.6187 36.6129 11.5581 37.0703 11.5581C37.7049 11.5581 38.1716 11.6841 38.4703 11.9361C38.7689 12.1787 38.9183 12.5194 38.9183 12.9581C38.9183 13.1727 38.8996 13.3501 38.8623 13.4901C38.8416 13.5936 38.8081 13.6947 38.7618 13.7931C38.7313 13.8581 38.664 13.8961 38.5922 13.8961H33.5603C33.4498 13.8961 33.3603 13.9856 33.3603 14.0961V14.5921C33.3603 14.7025 33.4498 14.7921 33.5603 14.7921H37.1313C37.2661 14.7921 37.2952 14.9427 37.1683 14.9881V14.9881C36.9069 15.0721 36.6036 15.1747 36.2583 15.2961C35.9223 15.4174 35.5956 15.5574 35.2783 15.7161C35.0021 15.85 34.7747 15.9989 34.5961 16.1628C34.557 16.1987 34.5065 16.2201 34.4534 16.2201H33.5603C33.4498 16.2201 33.3603 16.3096 33.3603 16.4201V16.9161C33.3603 17.0265 33.4498 17.1161 33.5603 17.1161H33.7351C33.8732 17.1161 33.9703 17.2532 33.9391 17.3878C33.8892 17.6033 33.8643 17.8348 33.8643 18.0821C33.8643 18.9687 34.1583 19.6314 34.7463 20.0701Z" fill="#C3A4AA"/>
</svg>
