<svg width="52" height="26" viewBox="0 0 52 26" fill="none" xmlns="http://www.w3.org/2000/svg">
<path fill-rule="evenodd" clip-rule="evenodd" d="M49.3787 2.2C49.3787 2.08954 49.2892 2 49.1787 2H2.04045C1.93 2 1.84045 2.08954 1.84045 2.2V3.13333C1.84045 3.24379 1.93 3.33333 2.04045 3.33333H47.716C47.8264 3.33333 47.916 3.42287 47.916 3.53333V23.8C47.916 23.9105 48.0055 24 48.116 24H49.1787C49.2892 24 49.3787 23.9105 49.3787 23.8V2.2Z" fill="#C4A5C4"/>
<path fill-rule="evenodd" clip-rule="evenodd" d="M51.3787 0.2C51.3787 0.089543 51.2892 0 51.1787 0H3.78392C3.67347 0 3.58392 0.0895433 3.58392 0.2V1.13334C3.58392 1.2438 3.67347 1.33334 3.78392 1.33334H49.7075C49.8179 1.33334 49.9075 1.42289 49.9075 1.53334V21.8C49.9075 21.9105 49.997 22 50.1075 22H51.1787C51.2892 22 51.3787 21.9105 51.3787 21.8V0.2Z" fill="#C4A5C4"/>
<path fill-rule="evenodd" clip-rule="evenodd" d="M47.3787 4.20011C47.3787 4.08965 47.2891 4.00011 47.1787 4.00011H0.2C0.0895431 4.00011 0 4.08965 0 4.20011V25.8001C0 25.9106 0.0895436 26.0001 0.200001 26.0001H47.1787C47.2891 26.0001 47.3787 25.9106 47.3787 25.8001V4.20011ZM12.0129 13.9865C11.6014 13.8146 11.1379 13.7287 10.6223 13.7287C10.2212 13.7287 9.86447 13.7886 9.55197 13.9084C9.38872 13.9682 9.23826 14.0309 9.10059 14.0965C8.95296 14.1668 8.7723 14.0545 8.78456 13.8914L8.97556 11.3512C8.98341 11.2468 9.07036 11.1662 9.175 11.1662H13.0942C13.2046 11.1662 13.2942 11.0766 13.2942 10.9662V10.0302C13.2942 9.91978 13.2046 9.83024 13.0942 9.83024H7.86916C7.7587 9.83024 7.66916 9.91978 7.66916 10.0302V15.4845C7.66916 15.5736 7.72809 15.6519 7.81369 15.6766L8.30475 15.8184C8.37933 15.8399 8.45919 15.8159 8.51375 15.7607C8.57003 15.7038 8.63486 15.6436 8.70822 15.5802C8.8228 15.4813 8.95562 15.3901 9.10666 15.3068C9.2577 15.2183 9.42697 15.1453 9.61447 15.0881C9.80718 15.0256 10.0155 14.9943 10.2395 14.9943C10.9374 14.9943 11.4791 15.1818 11.8645 15.5568C12.2499 15.9318 12.4426 16.4631 12.4426 17.1506C12.4426 17.4318 12.4035 17.7131 12.3254 17.9943C12.2525 18.2703 12.1249 18.5177 11.9426 18.7365C11.7655 18.9552 11.5285 19.1323 11.2317 19.2677C10.94 19.4032 10.578 19.4709 10.1457 19.4709C9.96343 19.4709 9.77072 19.4474 9.5676 19.4006C9.36447 19.3537 9.16655 19.2834 8.97385 19.1896C8.78635 19.0907 8.61187 18.9657 8.45041 18.8146C8.34651 18.7174 8.25662 18.6073 8.18076 18.4842C8.11446 18.3766 7.97102 18.3357 7.86766 18.4084L7.2668 18.831C7.19486 18.8816 7.1637 18.9736 7.19553 19.0556C7.29068 19.3006 7.4173 19.5198 7.57541 19.7131C7.76812 19.937 7.99207 20.1271 8.24728 20.2834C8.5077 20.4344 8.79416 20.549 9.10666 20.6271C9.42437 20.7052 9.7551 20.7443 10.0988 20.7443C10.703 20.7443 11.2421 20.6584 11.716 20.4865C12.1952 20.3094 12.5988 20.0646 12.927 19.7521C13.2603 19.4344 13.5129 19.0542 13.6848 18.6115C13.8619 18.1636 13.9504 17.6662 13.9504 17.1193C13.9504 16.6297 13.8723 16.1766 13.716 15.7599C13.565 15.3433 13.3462 14.9865 13.0598 14.6896C12.7733 14.3875 12.4244 14.1532 12.0129 13.9865ZM15.8645 13.8849C15.828 14.3224 15.8098 14.7469 15.8098 15.1584C15.8098 15.5698 15.828 15.9969 15.8645 16.4396C15.9009 16.8771 15.966 17.3042 16.0598 17.7209C16.1535 18.1375 16.2837 18.5334 16.4504 18.9084C16.6171 19.2782 16.8306 19.6037 17.091 19.8849C17.3514 20.161 17.6639 20.3823 18.0285 20.549C18.3983 20.7104 18.8332 20.7912 19.3332 20.7912C19.802 20.7912 20.2134 20.7157 20.5676 20.5646C20.927 20.4084 21.2369 20.1974 21.4973 19.9318C21.7577 19.6662 21.9764 19.3537 22.1535 18.9943C22.3306 18.6297 22.4712 18.2391 22.5754 17.8224C22.6796 17.4058 22.7525 16.9709 22.7942 16.5177C22.841 16.0646 22.8645 15.6115 22.8645 15.1584C22.8645 14.7052 22.841 14.2521 22.7942 13.799C22.7525 13.3459 22.6796 12.911 22.5754 12.4943C22.4712 12.0776 22.3306 11.6896 22.1535 11.3302C21.9764 10.9657 21.7577 10.6506 21.4973 10.3849C21.2369 10.1193 20.927 9.91097 20.5676 9.75993C20.2134 9.60368 19.802 9.52555 19.3332 9.52555C18.8332 9.52555 18.3983 9.60888 18.0285 9.77555C17.6639 9.93701 17.3514 10.1584 17.091 10.4396C16.8306 10.7157 16.6171 11.0412 16.4504 11.4162C16.2837 11.786 16.1535 12.1792 16.0598 12.5959C15.966 13.0125 15.9009 13.4422 15.8645 13.8849ZM21.2629 13.3537C21.3306 13.8849 21.3645 14.4865 21.3645 15.1584C21.3645 15.8302 21.3306 16.4344 21.2629 16.9709C21.1952 17.5021 21.0832 17.9552 20.927 18.3302C20.7707 18.7052 20.5624 18.9943 20.302 19.1974C20.0416 19.3953 19.7212 19.4943 19.341 19.4943C18.9244 19.4943 18.5832 19.3797 18.3176 19.1506C18.052 18.9162 17.8436 18.6037 17.6926 18.2131C17.5416 17.8172 17.4374 17.3563 17.3801 16.8302C17.3228 16.3042 17.2942 15.7469 17.2942 15.1584C17.2942 14.5698 17.3228 14.0125 17.3801 13.4865C17.4374 12.9604 17.5416 12.5021 17.6926 12.1115C17.8436 11.7157 18.052 11.4032 18.3176 11.174C18.5832 10.9396 18.9244 10.8224 19.341 10.8224C19.7212 10.8224 20.0416 10.924 20.302 11.1271C20.5624 11.325 20.7707 11.6115 20.927 11.9865C21.0832 12.3615 21.1952 12.8172 21.2629 13.3537ZM24.9582 13.8849C24.9218 14.3224 24.9035 14.7469 24.9035 15.1584C24.9035 15.5698 24.9218 15.9969 24.9582 16.4396C24.9947 16.8771 25.0598 17.3042 25.1535 17.7209C25.2473 18.1375 25.3775 18.5334 25.5442 18.9084C25.7108 19.2782 25.9244 19.6037 26.1848 19.8849C26.4452 20.161 26.7577 20.3823 27.1223 20.549C27.4921 20.7104 27.927 20.7912 28.427 20.7912C28.8957 20.7912 29.3072 20.7157 29.6613 20.5646C30.0207 20.4084 30.3306 20.1974 30.591 19.9318C30.8514 19.6662 31.0702 19.3537 31.2473 18.9943C31.4244 18.6297 31.565 18.2391 31.6692 17.8224C31.7733 17.4058 31.8462 16.9709 31.8879 16.5177C31.9348 16.0646 31.9582 15.6115 31.9582 15.1584C31.9582 14.7052 31.9348 14.2521 31.8879 13.799C31.8462 13.3459 31.7733 12.911 31.6692 12.4943C31.565 12.0776 31.4244 11.6896 31.2473 11.3302C31.0702 10.9657 30.8514 10.6506 30.591 10.3849C30.3306 10.1193 30.0207 9.91097 29.6613 9.75993C29.3072 9.60368 28.8957 9.52555 28.427 9.52555C27.927 9.52555 27.4921 9.60888 27.1223 9.77555C26.7577 9.93701 26.4452 10.1584 26.1848 10.4396C25.9244 10.7157 25.7108 11.0412 25.5442 11.4162C25.3775 11.786 25.2473 12.1792 25.1535 12.5959C25.0598 13.0125 24.9947 13.4422 24.9582 13.8849ZM30.3567 13.3537C30.4244 13.8849 30.4582 14.4865 30.4582 15.1584C30.4582 15.8302 30.4244 16.4344 30.3567 16.9709C30.2889 17.5021 30.177 17.9552 30.0207 18.3302C29.8645 18.7052 29.6561 18.9943 29.3957 19.1974C29.1353 19.3953 28.815 19.4943 28.4348 19.4943C28.0181 19.4943 27.677 19.3797 27.4113 19.1506C27.1457 18.9162 26.9374 18.6037 26.7863 18.2131C26.6353 17.8172 26.5311 17.3563 26.4738 16.8302C26.4166 16.3042 26.3879 15.7469 26.3879 15.1584C26.3879 14.5698 26.4166 14.0125 26.4738 13.4865C26.5311 12.9604 26.6353 12.5021 26.7863 12.1115C26.9374 11.7157 27.1457 11.4032 27.4113 11.174C27.677 10.9396 28.0181 10.8224 28.4348 10.8224C28.815 10.8224 29.1353 10.924 29.3957 11.1271C29.6561 11.325 29.8645 11.6115 30.0207 11.9865C30.177 12.3615 30.2889 12.8172 30.3567 13.3537ZM34.1318 18.6841C34.2423 18.6841 34.3318 18.7736 34.3318 18.8841V20.3881C34.3318 20.4985 34.4214 20.5881 34.5318 20.5881H35.3918C35.5023 20.5881 35.5918 20.4985 35.5918 20.3881V18.8841C35.5918 18.7736 35.6814 18.6841 35.7918 18.6841H37.7018C37.8123 18.6841 37.9018 18.5945 37.9018 18.4841V17.9741C37.9018 17.8636 37.8123 17.7741 37.7018 17.7741H35.7918C35.6814 17.7741 35.5918 17.6845 35.5918 17.5741V16.7281C35.5918 16.6176 35.6814 16.5281 35.7918 16.5281H36.7678C38.0185 16.5281 38.9658 16.2621 39.6098 15.7301C40.2538 15.1887 40.5758 14.442 40.5758 13.4901C40.5758 12.5474 40.2772 11.8287 39.6798 11.3341C39.0918 10.8394 38.1865 10.5921 36.9638 10.5921H34.5318C34.4214 10.5921 34.3318 10.6816 34.3318 10.7921V15.2641C34.3318 15.3745 34.2423 15.4641 34.1318 15.4641H33.3138C33.2034 15.4641 33.1138 15.5536 33.1138 15.6641V16.3281C33.1138 16.4385 33.2034 16.5281 33.3138 16.5281H34.1318C34.2423 16.5281 34.3318 16.6176 34.3318 16.7281V17.5741C34.3318 17.6845 34.2423 17.7741 34.1318 17.7741H33.3138C33.2034 17.7741 33.1138 17.8636 33.1138 17.9741V18.4841C33.1138 18.5945 33.2034 18.6841 33.3138 18.6841H34.1318ZM38.5598 15.0441C38.0932 15.3241 37.4352 15.4641 36.5858 15.4641H35.7918C35.6814 15.4641 35.5918 15.3745 35.5918 15.2641V11.8561C35.5918 11.7456 35.6814 11.6561 35.7918 11.6561H36.8518C37.6825 11.6561 38.2938 11.8101 38.6858 12.1181C39.0778 12.4261 39.2738 12.8974 39.2738 13.5321C39.2738 14.2601 39.0358 14.7641 38.5598 15.0441Z" fill="#C4A5C4"/>
</svg>
