<svg width="52" height="26" viewBox="0 0 52 26" fill="none" xmlns="http://www.w3.org/2000/svg">
<path fill-rule="evenodd" clip-rule="evenodd" d="M49.3787 2.2C49.3787 2.08954 49.2892 2 49.1787 2H2.04045C1.93 2 1.84045 2.08954 1.84045 2.2V3.13333C1.84045 3.24379 1.93 3.33333 2.04045 3.33333H47.716C47.8264 3.33333 47.916 3.42287 47.916 3.53333V23.8C47.916 23.9105 48.0055 24 48.116 24H49.1787C49.2892 24 49.3787 23.9105 49.3787 23.8V2.2Z" fill="#FED893"/>
<path fill-rule="evenodd" clip-rule="evenodd" d="M51.3787 0.2C51.3787 0.089543 51.2892 0 51.1787 0H3.78392C3.67347 0 3.58392 0.0895433 3.58392 0.2V1.13334C3.58392 1.2438 3.67347 1.33334 3.78392 1.33334H49.7075C49.8179 1.33334 49.9075 1.42289 49.9075 1.53334V21.8C49.9075 21.9105 49.997 22 50.1075 22H51.1787C51.2892 22 51.3787 21.9105 51.3787 21.8V0.2Z" fill="#FED893"/>
<path fill-rule="evenodd" clip-rule="evenodd" d="M47.3787 4.20012C47.3787 4.08967 47.2891 4.00012 47.1787 4.00012H0.2C0.0895431 4.00012 0 4.08967 0 4.20012V25.8001C0 25.9106 0.0895436 26.0001 0.200001 26.0001H47.1787C47.2891 26.0001 47.3787 25.9106 47.3787 25.8001V4.20012ZM16.3069 13.9865C15.8954 13.8146 15.4319 13.7287 14.9162 13.7287C14.5152 13.7287 14.1584 13.7886 13.8459 13.9084C13.6827 13.9682 13.5322 14.0309 13.3945 14.0965C13.2469 14.1668 13.0662 14.0545 13.0785 13.8915L13.2695 11.3512C13.2774 11.2469 13.3643 11.1662 13.4689 11.1662H17.3881C17.4986 11.1662 17.5881 11.0766 17.5881 10.9662V10.0303C17.5881 9.9198 17.4986 9.83025 17.3881 9.83025H12.1631C12.0526 9.83025 11.9631 9.9198 11.9631 10.0303V15.4845C11.9631 15.5736 12.022 15.652 12.1076 15.6767L12.5987 15.8184C12.6733 15.8399 12.7531 15.8159 12.8077 15.7607C12.864 15.7038 12.9288 15.6436 13.0022 15.5803C13.1167 15.4813 13.2496 15.3901 13.4006 15.3068C13.5516 15.2183 13.7209 15.1454 13.9084 15.0881C14.1011 15.0256 14.3095 14.9943 14.5334 14.9943C15.2313 14.9943 15.773 15.1818 16.1584 15.5568C16.5438 15.9318 16.7365 16.4631 16.7365 17.1506C16.7365 17.4318 16.6975 17.7131 16.6194 17.9943C16.5464 18.2704 16.4188 18.5178 16.2365 18.7365C16.0595 18.9553 15.8225 19.1323 15.5256 19.2678C15.2339 19.4032 14.872 19.4709 14.4397 19.4709C14.2574 19.4709 14.0647 19.4474 13.8615 19.4006C13.6584 19.3537 13.4605 19.2834 13.2678 19.1896C13.0803 19.0907 12.9058 18.9657 12.7444 18.8146C12.6405 18.7174 12.5506 18.6073 12.4747 18.4842C12.4084 18.3766 12.265 18.3357 12.1616 18.4084L11.5607 18.831C11.4888 18.8816 11.4576 18.9736 11.4895 19.0556C11.5846 19.3007 11.7112 19.5198 11.8694 19.7131C12.0621 19.937 12.286 20.1271 12.5412 20.2834C12.8016 20.4344 13.0881 20.549 13.4006 20.6271C13.7183 20.7053 14.049 20.7443 14.3928 20.7443C14.997 20.7443 15.536 20.6584 16.01 20.4865C16.4891 20.3094 16.8928 20.0646 17.2209 19.7521C17.5542 19.4344 17.8069 19.0542 17.9787 18.6115C18.1558 18.1636 18.2444 17.6662 18.2444 17.1193C18.2444 16.6297 18.1662 16.1766 18.01 15.7599C17.8589 15.3433 17.6402 14.9865 17.3537 14.6896C17.0673 14.3875 16.7183 14.1532 16.3069 13.9865ZM20.1584 13.8849C20.122 14.3224 20.1037 14.7469 20.1037 15.1584C20.1037 15.5698 20.122 15.9969 20.1584 16.4396C20.1949 16.8771 20.26 17.3042 20.3537 17.7209C20.4475 18.1375 20.5777 18.5334 20.7444 18.9084C20.911 19.2782 21.1246 19.6037 21.385 19.8849C21.6454 20.161 21.9579 20.3823 22.3225 20.549C22.6923 20.7105 23.1272 20.7912 23.6272 20.7912C24.0959 20.7912 24.5074 20.7157 24.8615 20.5646C25.2209 20.4084 25.5308 20.1974 25.7912 19.9318C26.0516 19.6662 26.2704 19.3537 26.4475 18.9943C26.6246 18.6297 26.7652 18.2391 26.8694 17.8224C26.9735 17.4058 27.0464 16.9709 27.0881 16.5178C27.135 16.0646 27.1584 15.6115 27.1584 15.1584C27.1584 14.7053 27.135 14.2521 27.0881 13.799C27.0464 13.3459 26.9735 12.911 26.8694 12.4943C26.7652 12.0776 26.6246 11.6896 26.4475 11.3303C26.2704 10.9657 26.0516 10.6506 25.7912 10.3849C25.5308 10.1193 25.2209 9.91098 24.8615 9.75994C24.5074 9.60369 24.0959 9.52557 23.6272 9.52557C23.1272 9.52557 22.6923 9.6089 22.3225 9.77557C21.9579 9.93702 21.6454 10.1584 21.385 10.4396C21.1246 10.7157 20.911 11.0412 20.7444 11.4162C20.5777 11.786 20.4475 12.1792 20.3537 12.5959C20.26 13.0125 20.1949 13.4422 20.1584 13.8849ZM25.5569 13.3537C25.6246 13.8849 25.6584 14.4865 25.6584 15.1584C25.6584 15.8303 25.6246 16.4344 25.5569 16.9709C25.4891 17.5021 25.3772 17.9553 25.2209 18.3303C25.0647 18.7053 24.8563 18.9943 24.5959 19.1974C24.3355 19.3954 24.0152 19.4943 23.635 19.4943C23.2183 19.4943 22.8772 19.3797 22.6115 19.1506C22.3459 18.9162 22.1376 18.6037 21.9865 18.2131C21.8355 17.8172 21.7313 17.3563 21.674 16.8303C21.6167 16.3042 21.5881 15.7469 21.5881 15.1584C21.5881 14.5698 21.6167 14.0125 21.674 13.4865C21.7313 12.9605 21.8355 12.5021 21.9865 12.1115C22.1376 11.7157 22.3459 11.4032 22.6115 11.174C22.8772 10.9396 23.2183 10.8224 23.635 10.8224C24.0152 10.8224 24.3355 10.924 24.5959 11.1271C24.8563 11.325 25.0647 11.6115 25.2209 11.9865C25.3772 12.3615 25.4891 12.8172 25.5569 13.3537ZM35.9465 18.6056C35.9698 18.4971 35.9871 18.3967 35.9987 18.3043C36.0123 18.1953 35.9264 18.1031 35.8166 18.0986L35.0095 18.0662C34.9055 18.062 34.8165 18.1386 34.7972 18.2408C34.7155 18.6719 34.5403 19.0077 34.2717 19.2482C33.9664 19.5217 33.579 19.6584 33.1096 19.6584C32.827 19.6584 32.5741 19.6037 32.3508 19.4943C32.132 19.3804 31.9406 19.2277 31.7766 19.0363C31.6125 18.8403 31.4735 18.6102 31.3596 18.3459C31.2759 18.1517 31.2045 17.9451 31.1454 17.7263C31.112 17.6029 31.2073 17.4846 31.3351 17.4846H33.2911C33.3784 17.4846 33.4556 17.428 33.4819 17.3448L33.6426 16.8356C33.6834 16.7067 33.5871 16.5754 33.4519 16.5754H31.1538C31.0557 16.5754 30.9714 16.5043 30.9608 16.4067C30.9487 16.2943 30.9426 16.1819 30.9426 16.0695C30.9426 15.992 30.9449 15.9146 30.9494 15.8371L30.956 15.7813C30.9678 15.6806 31.0532 15.6047 31.1546 15.6047H33.716C33.8028 15.6047 33.8796 15.5487 33.9063 15.4662L34.0709 14.957C34.1127 14.8278 34.0164 14.6955 33.8806 14.6955H31.3115C31.1847 14.6955 31.0896 14.5788 31.1212 14.456C31.1877 14.1971 31.2718 13.9556 31.3733 13.7316C31.51 13.4354 31.6695 13.1825 31.8518 12.9728C32.0386 12.7586 32.2437 12.5946 32.467 12.4806C32.6949 12.3622 32.9364 12.3029 33.1916 12.3029C33.2326 12.3029 33.2964 12.3075 33.383 12.3166C33.4742 12.3257 33.5744 12.3485 33.6838 12.3849C33.7932 12.4214 33.9071 12.4761 34.0256 12.549C34.1441 12.6174 34.2535 12.7153 34.3537 12.8429C34.454 12.966 34.5383 13.1209 34.6067 13.3078C34.6584 13.4457 34.6957 13.6071 34.7188 13.7919C34.7318 13.8962 34.8181 13.9777 34.9232 13.9777H35.7843C35.8986 13.9777 35.9902 13.882 35.9791 13.7682C35.942 13.39 35.856 13.0542 35.7209 12.7609C35.5614 12.41 35.3541 12.1183 35.0988 11.8859C34.8482 11.6535 34.5588 11.4803 34.2307 11.3664C33.9026 11.2479 33.5562 11.1887 33.1916 11.1887C32.7268 11.1887 32.3029 11.2752 31.9201 11.4484C31.5373 11.617 31.2001 11.8563 30.9084 12.1662C30.6167 12.4761 30.3729 12.8475 30.177 13.2804C30.0023 13.6622 29.8711 14.0784 29.7833 14.529C29.7647 14.6249 29.6816 14.6955 29.584 14.6955H29.1467C29.06 14.6955 28.9831 14.7514 28.9564 14.834L28.7918 15.3431C28.75 15.4723 28.8463 15.6047 28.9821 15.6047H29.429C29.55 15.6047 29.6443 15.7114 29.6382 15.8322C29.6377 15.8406 29.6373 15.849 29.6369 15.8576C29.6324 15.9533 29.6301 16.0331 29.6301 16.0969C29.6301 16.1789 29.6324 16.2609 29.6369 16.3429C29.6371 16.3458 29.6373 16.3486 29.6374 16.3514C29.6447 16.4709 29.5523 16.5754 29.4325 16.5754H29.142C29.0542 16.5754 28.9767 16.6326 28.9509 16.7165L28.7939 17.2256C28.7542 17.3543 28.8504 17.4846 28.985 17.4846H29.5984C29.6957 17.4846 29.7786 17.5547 29.7974 17.6502C29.8834 18.0862 30.0053 18.4845 30.1633 18.8449C30.3456 19.2505 30.5757 19.5969 30.8537 19.884C31.1317 20.1665 31.4598 20.3853 31.8381 20.5402C32.2209 20.6906 32.6561 20.7658 33.1438 20.7658C33.522 20.7658 33.8547 20.7202 34.1418 20.6291C34.4335 20.5379 34.6841 20.4172 34.8938 20.2668C35.1034 20.1164 35.2789 19.9478 35.4201 19.7609C35.5614 19.5695 35.6753 19.3758 35.7619 19.1799C35.8485 18.9839 35.91 18.7925 35.9465 18.6056Z" fill="#FED893"/>
</svg>
