<svg width="52" height="26" viewBox="0 0 52 26" fill="none" xmlns="http://www.w3.org/2000/svg">
<path fill-rule="evenodd" clip-rule="evenodd" d="M49.3787 2.2C49.3787 2.08954 49.2892 2 49.1787 2H2.04048C1.93003 2 1.84048 2.08954 1.84048 2.2V3.13333C1.84048 3.24379 1.93003 3.33333 2.04048 3.33333H47.716C47.8264 3.33333 47.916 3.42287 47.916 3.53333V23.8C47.916 23.9105 48.0055 24 48.116 24H49.1787C49.2892 24 49.3787 23.9105 49.3787 23.8V2.2Z" fill="#AC8FAA"/>
<path fill-rule="evenodd" clip-rule="evenodd" d="M51.3787 0.2C51.3787 0.089543 51.2892 0 51.1787 0H3.78392C3.67347 0 3.58392 0.0895433 3.58392 0.2V1.13334C3.58392 1.2438 3.67347 1.33334 3.78392 1.33334H49.7075C49.8179 1.33334 49.9075 1.42289 49.9075 1.53334V21.8C49.9075 21.9105 49.997 22 50.1075 22H51.1787C51.2892 22 51.3787 21.9105 51.3787 21.8V0.2Z" fill="#AC8FAA"/>
<path fill-rule="evenodd" clip-rule="evenodd" d="M47.3787 4.20012C47.3787 4.08967 47.2891 4.00012 47.1787 4.00012H0.2C0.0895431 4.00012 0 4.08967 0 4.20012V25.8001C0 25.9106 0.0895436 26.0001 0.200001 26.0001H47.1787C47.2891 26.0001 47.3787 25.9106 47.3787 25.8001V4.20012ZM17.176 13.8117C16.816 13.6613 16.4104 13.5861 15.9592 13.5861C15.6083 13.5861 15.2961 13.6385 15.0227 13.7433C14.8972 13.7893 14.7804 13.8373 14.6722 13.8871C14.5237 13.9555 14.3426 13.8426 14.3549 13.6795L14.5166 11.5289C14.5244 11.4246 14.6114 11.3439 14.716 11.3439H18.0971C18.2075 11.3439 18.2971 11.2544 18.2971 11.1439V10.375C18.2971 10.2645 18.2075 10.175 18.0971 10.175H13.5752C13.4648 10.175 13.3752 10.2645 13.3752 10.375V15.1036C13.3752 15.1927 13.4341 15.2711 13.5197 15.2958L13.9161 15.4102C13.9907 15.4317 14.0705 15.4077 14.1255 15.3529C14.172 15.3064 14.225 15.2575 14.2844 15.2062C14.3847 15.1196 14.5009 15.0399 14.633 14.967C14.7652 14.8895 14.9133 14.8257 15.0774 14.7756C15.246 14.7209 15.4283 14.6935 15.6242 14.6935C16.2349 14.6935 16.7089 14.8576 17.0461 15.1857C17.3834 15.5138 17.552 15.9787 17.552 16.5803C17.552 16.8263 17.5178 17.0724 17.4494 17.3185C17.3856 17.5601 17.274 17.7765 17.1145 17.9679C16.9595 18.1594 16.7522 18.3143 16.4924 18.4328C16.2372 18.5513 15.9205 18.6105 15.5422 18.6105C15.3827 18.6105 15.2141 18.59 15.0363 18.549C14.8586 18.508 14.6854 18.4465 14.5168 18.3644C14.3528 18.2778 14.2001 18.1685 14.0588 18.0363C13.9752 17.9581 13.902 17.8704 13.8392 17.773C13.7706 17.6669 13.6273 17.6257 13.5239 17.6984L13.0383 18.04C12.9663 18.0906 12.9351 18.1826 12.9676 18.2644C13.05 18.4719 13.1586 18.6579 13.2932 18.8224C13.4618 19.0184 13.6578 19.1847 13.8811 19.3215C14.1089 19.4536 14.3596 19.5539 14.633 19.6222C14.911 19.6906 15.2004 19.7248 15.5012 19.7248C16.0298 19.7248 16.5015 19.6496 16.9162 19.4992C17.3355 19.3443 17.6887 19.1301 17.9758 18.8566C18.2675 18.5786 18.4885 18.2459 18.6389 17.8586C18.7938 17.4666 18.8713 17.0314 18.8713 16.5529C18.8713 16.1245 18.8029 15.728 18.6662 15.3635C18.5341 14.9989 18.3427 14.6867 18.092 14.4269C17.8414 14.1626 17.536 13.9575 17.176 13.8117ZM20.5461 13.7228C20.5142 14.1056 20.4983 14.4771 20.4983 14.8371C20.4983 15.1971 20.5142 15.5708 20.5461 15.9582C20.578 16.341 20.635 16.7147 20.717 17.0793C20.799 17.4439 20.913 17.7902 21.0588 18.1183C21.2046 18.4419 21.3915 18.7267 21.6194 18.9728C21.8472 19.2144 22.1207 19.4081 22.4397 19.5539C22.7632 19.6952 23.1438 19.7658 23.5813 19.7658C23.9914 19.7658 24.3514 19.6997 24.6613 19.5676C24.9758 19.4308 25.247 19.2463 25.4748 19.0138C25.7027 18.7814 25.8941 18.508 26.049 18.1935C26.204 17.8745 26.327 17.5327 26.4182 17.1681C26.5093 16.8036 26.5731 16.423 26.6096 16.0265C26.6506 15.6301 26.6711 15.2336 26.6711 14.8371C26.6711 14.4406 26.6506 14.0441 26.6096 13.6476C26.5731 13.2512 26.5093 12.8706 26.4182 12.506C26.327 12.1415 26.204 11.8019 26.049 11.4875C25.8941 11.1685 25.7027 10.8928 25.4748 10.6603C25.247 10.4279 24.9758 10.2456 24.6613 10.1135C24.3514 9.97674 23.9914 9.90838 23.5813 9.90838C23.1438 9.90838 22.7632 9.9813 22.4397 10.1271C22.1207 10.2684 21.8472 10.4621 21.6194 10.7082C21.3915 10.9497 21.2046 11.2346 21.0588 11.5627C20.913 11.8862 20.799 12.2303 20.717 12.5949C20.635 12.9595 20.578 13.3355 20.5461 13.7228ZM25.2697 13.258C25.329 13.7228 25.3586 14.2492 25.3586 14.8371C25.3586 15.425 25.329 15.9536 25.2697 16.423C25.2105 16.8879 25.1125 17.2844 24.9758 17.6125C24.8391 17.9406 24.6568 18.1935 24.4289 18.3713C24.2011 18.5444 23.9208 18.631 23.5881 18.631C23.2235 18.631 22.925 18.5308 22.6926 18.3303C22.4602 18.1252 22.2779 17.8517 22.1457 17.5099C22.0136 17.1636 21.9224 16.7603 21.8723 16.3C21.8222 15.8397 21.7971 15.3521 21.7971 14.8371C21.7971 14.3221 21.8222 13.8345 21.8723 13.3742C21.9224 12.9139 22.0136 12.5129 22.1457 12.1711C22.2779 11.8247 22.4602 11.5513 22.6926 11.3508C22.925 11.1457 23.2235 11.0431 23.5881 11.0431C23.9208 11.0431 24.2011 11.132 24.4289 11.3097C24.6568 11.4829 24.8391 11.7336 24.9758 12.0617C25.1125 12.3898 25.2105 12.7886 25.2697 13.258ZM29.0998 19.0701C29.6878 19.5087 30.5278 19.7281 31.6198 19.7281C32.1798 19.7281 32.7258 19.6674 33.2578 19.5461C33.7275 19.4389 34.1136 19.3209 34.416 19.1919C34.4873 19.1615 34.5318 19.0906 34.5318 19.0131V18.3138C34.5318 18.1691 34.3825 18.0715 34.2475 18.1236C33.9677 18.2316 33.6424 18.3371 33.2718 18.4401C32.7771 18.5707 32.2638 18.6361 31.7318 18.6361C30.2291 18.6361 29.4778 18.0947 29.4778 17.0121C29.4778 16.7974 29.4918 16.6294 29.5198 16.5081C29.5405 16.4183 29.574 16.3234 29.6202 16.2235C29.6513 16.1564 29.7199 16.1161 29.7938 16.1161H34.9198C35.0302 16.1161 35.1198 16.0265 35.1198 15.9161V15.4201C35.1198 15.3096 35.0302 15.2201 34.9198 15.2201H31.3093C31.1528 15.2201 31.1213 15.0596 31.2698 15.0101V15.0101C31.5498 14.9167 31.8624 14.8047 32.2078 14.6741C32.5531 14.5434 32.8844 14.4034 33.2018 14.2541C33.4791 14.1154 33.6923 13.9803 33.8414 13.8487C33.8811 13.8136 33.9316 13.7921 33.9846 13.7921H34.9198C35.0302 13.7921 35.1198 13.7025 35.1198 13.5921V13.0961C35.1198 12.9856 35.0302 12.8961 34.9198 12.8961H34.6734C34.5247 12.8961 34.4248 12.7372 34.4626 12.5934C34.4796 12.5289 34.4933 12.4618 34.5038 12.3921C34.5318 12.1961 34.5458 12.0001 34.5458 11.8041C34.5458 11.0107 34.2705 10.4227 33.7198 10.0401C33.1785 9.64807 32.4365 9.45207 31.4938 9.45207C31.0084 9.45207 30.5091 9.50807 29.9958 9.62007C29.5569 9.71583 29.1759 9.83207 28.853 9.96877C28.7609 10.0078 28.7163 10.1111 28.7464 10.2064L28.9748 10.9281C29.0113 11.0435 29.1411 11.1001 29.2524 11.0525C29.5162 10.9397 29.806 10.8355 30.1218 10.7401C30.5324 10.6187 30.9664 10.5581 31.4238 10.5581C32.0584 10.5581 32.5251 10.6841 32.8238 10.9361C33.1225 11.1787 33.2718 11.5194 33.2718 11.9581C33.2718 12.1727 33.2531 12.3501 33.2158 12.4901C33.1951 12.5936 33.1616 12.6947 33.1153 12.7931C33.0848 12.8581 33.0175 12.8961 32.9457 12.8961H27.9138C27.8033 12.8961 27.7138 12.9856 27.7138 13.0961V13.5921C27.7138 13.7025 27.8033 13.7921 27.9138 13.7921H31.4848C31.6196 13.7921 31.6487 13.9427 31.5218 13.9881V13.9881C31.2605 14.0721 30.9571 14.1747 30.6118 14.2961C30.2758 14.4174 29.9491 14.5574 29.6318 14.7161C29.3556 14.85 29.1282 14.9989 28.9496 15.1628C28.9105 15.1987 28.86 15.2201 28.8069 15.2201H27.9138C27.8033 15.2201 27.7138 15.3096 27.7138 15.4201V15.9161C27.7138 16.0265 27.8033 16.1161 27.9138 16.1161H28.0886C28.2267 16.1161 28.3238 16.2532 28.2927 16.3878C28.2427 16.6033 28.2178 16.8348 28.2178 17.0821C28.2178 17.9687 28.5118 18.6314 29.0998 19.0701Z" fill="#AC8FAA"/>
</svg>
