<svg width="52" height="26" viewBox="0 0 52 26" fill="none" xmlns="http://www.w3.org/2000/svg">
<path fill-rule="evenodd" clip-rule="evenodd" d="M49.7575 2.2C49.7575 2.08954 49.6679 2 49.5575 2H2.41921C2.30875 2 2.21921 2.08954 2.21921 2.2V3.13333C2.21921 3.24379 2.30875 3.33333 2.41921 3.33333H48.0947C48.2052 3.33333 48.2947 3.42287 48.2947 3.53333V23.8C48.2947 23.9105 48.3843 24 48.4947 24H49.5575C49.6679 24 49.7575 23.9105 49.7575 23.8V2.2Z" fill="#7791A6"/>
<path fill-rule="evenodd" clip-rule="evenodd" d="M51.7575 0.2C51.7575 0.089543 51.6679 0 51.5575 0H4.16265C4.05219 0 3.96265 0.0895433 3.96265 0.2V1.13334C3.96265 1.2438 4.05219 1.33334 4.16265 1.33334H50.0862C50.1967 1.33334 50.2862 1.42289 50.2862 1.53334V21.8C50.2862 21.9105 50.3757 22 50.4862 22H51.5575C51.6679 22 51.7575 21.9105 51.7575 21.8V0.2Z" fill="#7791A6"/>
<path fill-rule="evenodd" clip-rule="evenodd" d="M47.7574 4.20011C47.7574 4.08965 47.6679 4.00011 47.5574 4.00011H0.578723C0.468266 4.00011 0.378723 4.08965 0.378723 4.20011V25.8001C0.378723 25.9106 0.468267 26.0001 0.578724 26.0001H47.5574C47.6679 26.0001 47.7574 25.9106 47.7574 25.8001V4.20011ZM16.9385 13.9865C16.527 13.8146 16.0635 13.7287 15.5479 13.7287C15.1468 13.7287 14.7901 13.7886 14.4776 13.9084C14.3143 13.9682 14.1639 14.0309 14.0262 14.0965C13.8786 14.1668 13.6979 14.0545 13.7102 13.8914L13.9012 11.3512C13.909 11.2468 13.996 11.1662 14.1006 11.1662H18.0198C18.1302 11.1662 18.2198 11.0766 18.2198 10.9662V10.0302C18.2198 9.91978 18.1302 9.83024 18.0198 9.83024H12.7948C12.6843 9.83024 12.5948 9.91978 12.5948 10.0302V15.4845C12.5948 15.5736 12.6537 15.6519 12.7393 15.6766L13.2304 15.8184C13.3049 15.8399 13.3848 15.8159 13.4393 15.7607C13.4956 15.7038 13.5605 15.6436 13.6338 15.5802C13.7484 15.4813 13.8812 15.3901 14.0323 15.3068C14.1833 15.2183 14.3526 15.1453 14.5401 15.0881C14.7328 15.0256 14.9411 14.9943 15.1651 14.9943C15.863 14.9943 16.4047 15.1818 16.7901 15.5568C17.1755 15.9318 17.3682 16.4631 17.3682 17.1506C17.3682 17.4318 17.3291 17.7131 17.251 17.9943C17.1781 18.2703 17.0505 18.5177 16.8682 18.7365C16.6911 18.9552 16.4541 19.1323 16.1573 19.2677C15.8656 19.4032 15.5036 19.4709 15.0713 19.4709C14.889 19.4709 14.6963 19.4474 14.4932 19.4006C14.2901 19.3537 14.0922 19.2834 13.8994 19.1896C13.7119 19.0907 13.5375 18.9657 13.376 18.8146C13.2721 18.7174 13.1822 18.6073 13.1064 18.4842C13.0401 18.3766 12.8966 18.3357 12.7933 18.4084L12.1924 18.831C12.1205 18.8816 12.0893 18.9736 12.1211 19.0556C12.2163 19.3006 12.3429 19.5198 12.501 19.7131C12.6937 19.937 12.9177 20.1271 13.1729 20.2834C13.4333 20.4344 13.7198 20.549 14.0323 20.6271C14.35 20.7052 14.6807 20.7443 15.0244 20.7443C15.6286 20.7443 16.1677 20.6584 16.6416 20.4865C17.1208 20.3094 17.5244 20.0646 17.8526 19.7521C18.1859 19.4344 18.4385 19.0542 18.6104 18.6115C18.7875 18.1636 18.876 17.6662 18.876 17.1193C18.876 16.6297 18.7979 16.1766 18.6416 15.7599C18.4906 15.3433 18.2718 14.9865 17.9854 14.6896C17.6989 14.3875 17.35 14.1532 16.9385 13.9865ZM20.7901 13.8849C20.7536 14.3224 20.7354 14.7469 20.7354 15.1584C20.7354 15.5698 20.7536 15.9969 20.7901 16.4396C20.8265 16.8771 20.8916 17.3042 20.9854 17.7209C21.0791 18.1375 21.2093 18.5334 21.376 18.9084C21.5427 19.2782 21.7562 19.6037 22.0166 19.8849C22.277 20.161 22.5895 20.3823 22.9541 20.549C23.3239 20.7104 23.7588 20.7912 24.2588 20.7912C24.7276 20.7912 25.139 20.7157 25.4932 20.5646C25.8526 20.4084 26.1625 20.1974 26.4229 19.9318C26.6833 19.6662 26.902 19.3537 27.0791 18.9943C27.2562 18.6297 27.3968 18.2391 27.501 17.8224C27.6052 17.4058 27.6781 16.9709 27.7198 16.5177C27.7666 16.0646 27.7901 15.6115 27.7901 15.1584C27.7901 14.7052 27.7666 14.2521 27.7198 13.799C27.6781 13.3459 27.6052 12.911 27.501 12.4943C27.3968 12.0776 27.2562 11.6896 27.0791 11.3302C26.902 10.9657 26.6833 10.6506 26.4229 10.3849C26.1625 10.1193 25.8526 9.91097 25.4932 9.75993C25.139 9.60368 24.7276 9.52555 24.2588 9.52555C23.7588 9.52555 23.3239 9.60888 22.9541 9.77555C22.5895 9.93701 22.277 10.1584 22.0166 10.4396C21.7562 10.7157 21.5427 11.0412 21.376 11.4162C21.2093 11.786 21.0791 12.1792 20.9854 12.5959C20.8916 13.0125 20.8265 13.4422 20.7901 13.8849ZM26.1885 13.3537C26.2562 13.8849 26.2901 14.4865 26.2901 15.1584C26.2901 15.8302 26.2562 16.4344 26.1885 16.9709C26.1208 17.5021 26.0088 17.9552 25.8526 18.3302C25.6963 18.7052 25.488 18.9943 25.2276 19.1974C24.9672 19.3953 24.6468 19.4943 24.2666 19.4943C23.85 19.4943 23.5088 19.3797 23.2432 19.1506C22.9776 18.9162 22.7692 18.6037 22.6182 18.2131C22.4672 17.8172 22.363 17.3563 22.3057 16.8302C22.2484 16.3042 22.2198 15.7469 22.2198 15.1584C22.2198 14.5698 22.2484 14.0125 22.3057 13.4865C22.363 12.9604 22.4672 12.5021 22.6182 12.1115C22.7692 11.7157 22.9776 11.4032 23.2432 11.174C23.5088 10.9396 23.85 10.8224 24.2666 10.8224C24.6468 10.8224 24.9672 10.924 25.2276 11.1271C25.488 11.325 25.6963 11.6115 25.8526 11.9865C26.0088 12.3615 26.1208 12.8172 26.1885 13.3537ZM29.9637 18.6841C30.0742 18.6841 30.1637 18.7736 30.1637 18.8841V20.3881C30.1637 20.4985 30.2532 20.5881 30.3637 20.5881H31.2237C31.3342 20.5881 31.4237 20.4985 31.4237 20.3881V18.8841C31.4237 18.7736 31.5132 18.6841 31.6237 18.6841H33.5337C33.6441 18.6841 33.7337 18.5945 33.7337 18.4841V17.9741C33.7337 17.8636 33.6441 17.7741 33.5337 17.7741H31.6237C31.5132 17.7741 31.4237 17.6845 31.4237 17.5741V16.7281C31.4237 16.6176 31.5132 16.5281 31.6237 16.5281H32.5997C33.8504 16.5281 34.7977 16.2621 35.4417 15.7301C36.0857 15.1887 36.4077 14.442 36.4077 13.4901C36.4077 12.5474 36.109 11.8287 35.5117 11.3341C34.9237 10.8394 34.0184 10.5921 32.7957 10.5921H30.3637C30.2532 10.5921 30.1637 10.6816 30.1637 10.7921V15.2641C30.1637 15.3745 30.0742 15.4641 29.9637 15.4641H29.1457C29.0352 15.4641 28.9457 15.5536 28.9457 15.6641V16.3281C28.9457 16.4385 29.0352 16.5281 29.1457 16.5281H29.9637C30.0742 16.5281 30.1637 16.6176 30.1637 16.7281V17.5741C30.1637 17.6845 30.0742 17.7741 29.9637 17.7741H29.1457C29.0352 17.7741 28.9457 17.8636 28.9457 17.9741V18.4841C28.9457 18.5945 29.0352 18.6841 29.1457 18.6841H29.9637ZM34.3917 15.0441C33.925 15.3241 33.267 15.4641 32.4177 15.4641H31.6237C31.5132 15.4641 31.4237 15.3745 31.4237 15.2641V11.8561C31.4237 11.7456 31.5132 11.6561 31.6237 11.6561H32.6837C33.5144 11.6561 34.1257 11.8101 34.5177 12.1181C34.9097 12.4261 35.1057 12.8974 35.1057 13.5321C35.1057 14.2601 34.8677 14.7641 34.3917 15.0441Z" fill="#7791A6"/>
</svg>
