<svg width="52" height="26" viewBox="0 0 52 26" fill="none" xmlns="http://www.w3.org/2000/svg">
<path fill-rule="evenodd" clip-rule="evenodd" d="M49.3787 2.2C49.3787 2.08954 49.2892 2 49.1787 2H2.04048C1.93003 2 1.84048 2.08954 1.84048 2.2V3.13333C1.84048 3.24379 1.93003 3.33333 2.04048 3.33333H47.716C47.8264 3.33333 47.916 3.42287 47.916 3.53333V23.8C47.916 23.9105 48.0055 24 48.116 24H49.1787C49.2892 24 49.3787 23.9105 49.3787 23.8V2.2Z" fill="#E8C4AE"/>
<path fill-rule="evenodd" clip-rule="evenodd" d="M51.3787 0.2C51.3787 0.089543 51.2892 0 51.1787 0H3.78392C3.67347 0 3.58392 0.0895433 3.58392 0.2V1.13334C3.58392 1.2438 3.67347 1.33334 3.78392 1.33334H49.7075C49.8179 1.33334 49.9075 1.42289 49.9075 1.53334V21.8C49.9075 21.9105 49.997 22 50.1075 22H51.1787C51.2892 22 51.3787 21.9105 51.3787 21.8V0.2Z" fill="#E8C4AE"/>
<path fill-rule="evenodd" clip-rule="evenodd" d="M47.3787 4.20012C47.3787 4.08967 47.2891 4.00012 47.1787 4.00012H0.2C0.0895431 4.00012 0 4.08967 0 4.20012V25.8001C0 25.9106 0.0895436 26.0001 0.200001 26.0001H47.1787C47.2891 26.0001 47.3787 25.9106 47.3787 25.8001V4.20012ZM16.8742 13.9865C16.4628 13.8146 15.9992 13.7287 15.4836 13.7287C15.0826 13.7287 14.7258 13.7886 14.4133 13.9084C14.25 13.9682 14.0996 14.0309 13.9619 14.0965C13.8143 14.1668 13.6336 14.0545 13.6459 13.8915L13.8369 11.3512C13.8447 11.2469 13.9317 11.1662 14.0363 11.1662H17.9555C18.0659 11.1662 18.1555 11.0766 18.1555 10.9662V10.0303C18.1555 9.9198 18.0659 9.83025 17.9555 9.83025H12.7305C12.62 9.83025 12.5305 9.9198 12.5305 10.0303V15.4845C12.5305 15.5736 12.5894 15.652 12.675 15.6767L13.1661 15.8184C13.2407 15.8399 13.3205 15.8159 13.3751 15.7607C13.4314 15.7038 13.4962 15.6436 13.5695 15.5803C13.6841 15.4813 13.8169 15.3901 13.968 15.3068C14.119 15.2183 14.2883 15.1454 14.4758 15.0881C14.6685 15.0256 14.8768 14.9943 15.1008 14.9943C15.7987 14.9943 16.3404 15.1818 16.7258 15.5568C17.1112 15.9318 17.3039 16.4631 17.3039 17.1506C17.3039 17.4318 17.2649 17.7131 17.1867 17.9943C17.1138 18.2704 16.9862 18.5178 16.8039 18.7365C16.6268 18.9553 16.3899 19.1323 16.093 19.2678C15.8013 19.4032 15.4393 19.4709 15.007 19.4709C14.8248 19.4709 14.632 19.4474 14.4289 19.4006C14.2258 19.3537 14.0279 19.2834 13.8352 19.1896C13.6477 19.0907 13.4732 18.9657 13.3117 18.8146C13.2078 18.7174 13.118 18.6073 13.0421 18.4842C12.9758 18.3766 12.8323 18.3357 12.729 18.4084L12.1281 18.831C12.0562 18.8816 12.025 18.9736 12.0569 19.0556C12.152 19.3007 12.2786 19.5198 12.4367 19.7131C12.6294 19.937 12.8534 20.1271 13.1086 20.2834C13.369 20.4344 13.6555 20.549 13.968 20.6271C14.2857 20.7053 14.6164 20.7443 14.9602 20.7443C15.5643 20.7443 16.1034 20.6584 16.5774 20.4865C17.0565 20.3094 17.4602 20.0646 17.7883 19.7521C18.1216 19.4344 18.3742 19.0542 18.5461 18.6115C18.7232 18.1636 18.8117 17.6662 18.8117 17.1193C18.8117 16.6297 18.7336 16.1766 18.5774 15.7599C18.4263 15.3433 18.2076 14.9865 17.9211 14.6896C17.6347 14.3875 17.2857 14.1532 16.8742 13.9865ZM20.7258 13.8849C20.6893 14.3224 20.6711 14.7469 20.6711 15.1584C20.6711 15.5698 20.6893 15.9969 20.7258 16.4396C20.7623 16.8771 20.8274 17.3042 20.9211 17.7209C21.0149 18.1375 21.1451 18.5334 21.3117 18.9084C21.4784 19.2782 21.6919 19.6037 21.9524 19.8849C22.2128 20.161 22.5253 20.3823 22.8899 20.549C23.2597 20.7105 23.6945 20.7912 24.1945 20.7912C24.6633 20.7912 25.0748 20.7157 25.4289 20.5646C25.7883 20.4084 26.0982 20.1974 26.3586 19.9318C26.619 19.6662 26.8378 19.3537 27.0149 18.9943C27.1919 18.6297 27.3326 18.2391 27.4367 17.8224C27.5409 17.4058 27.6138 16.9709 27.6555 16.5178C27.7024 16.0646 27.7258 15.6115 27.7258 15.1584C27.7258 14.7053 27.7024 14.2521 27.6555 13.799C27.6138 13.3459 27.5409 12.911 27.4367 12.4943C27.3326 12.0776 27.1919 11.6896 27.0149 11.3303C26.8378 10.9657 26.619 10.6506 26.3586 10.3849C26.0982 10.1193 25.7883 9.91098 25.4289 9.75994C25.0748 9.60369 24.6633 9.52557 24.1945 9.52557C23.6945 9.52557 23.2597 9.6089 22.8899 9.77557C22.5253 9.93702 22.2128 10.1584 21.9524 10.4396C21.6919 10.7157 21.4784 11.0412 21.3117 11.4162C21.1451 11.786 21.0149 12.1792 20.9211 12.5959C20.8274 13.0125 20.7623 13.4422 20.7258 13.8849ZM26.1242 13.3537C26.1919 13.8849 26.2258 14.4865 26.2258 15.1584C26.2258 15.8303 26.1919 16.4344 26.1242 16.9709C26.0565 17.5021 25.9445 17.9553 25.7883 18.3303C25.632 18.7053 25.4237 18.9943 25.1633 19.1974C24.9029 19.3954 24.5826 19.4943 24.2024 19.4943C23.7857 19.4943 23.4445 19.3797 23.1789 19.1506C22.9133 18.9162 22.705 18.6037 22.5539 18.2131C22.4029 17.8172 22.2987 17.3563 22.2414 16.8303C22.1841 16.3042 22.1555 15.7469 22.1555 15.1584C22.1555 14.5698 22.1841 14.0125 22.2414 13.4865C22.2987 12.9605 22.4029 12.5021 22.5539 12.1115C22.705 11.7157 22.9133 11.4032 23.1789 11.174C23.4445 10.9396 23.7857 10.8224 24.2024 10.8224C24.5826 10.8224 24.9029 10.924 25.1633 11.1271C25.4237 11.325 25.632 11.6115 25.7883 11.9865C25.9445 12.3615 26.0565 12.8172 26.1242 13.3537ZM31.1887 20.2258C31.4019 20.272 31.6234 20.3015 31.8532 20.3145C31.9623 20.3206 32.05 20.4092 32.05 20.5185V21.4887C32.05 21.5991 32.1396 21.6887 32.25 21.6887H32.6908C32.8013 21.6887 32.8908 21.5991 32.8908 21.4887V20.4709C32.8908 20.37 32.9662 20.2853 33.0659 20.2694C33.3707 20.2207 33.661 20.1446 33.9367 20.0412C34.2649 19.9181 34.552 19.7541 34.7981 19.549C35.0487 19.3439 35.247 19.0978 35.3928 18.8107C35.5386 18.5191 35.6115 18.1795 35.6115 17.7922C35.6115 17.4048 35.5318 17.0721 35.3723 16.7941C35.2128 16.5116 35.0054 16.27 34.7502 16.0695C34.495 15.869 34.2056 15.7004 33.882 15.5637C33.6089 15.4466 33.3324 15.3429 33.0526 15.2525C32.9689 15.2255 32.9113 15.1481 32.9113 15.0602V12.7569C32.9113 12.6384 33.014 12.5453 33.1311 12.5634C33.228 12.5784 33.3211 12.5964 33.4104 12.6174C33.5699 12.6538 33.7157 12.704 33.8479 12.7678C33.9846 12.8316 34.1054 12.9113 34.2102 13.007C34.2698 13.0614 34.3235 13.1225 34.3713 13.1902C34.4334 13.2781 34.5475 13.3203 34.6454 13.2758L35.3039 12.976C35.3942 12.9349 35.4419 12.8333 35.4063 12.7407C35.3534 12.6032 35.2874 12.4801 35.2082 12.3713C35.0988 12.2163 34.9712 12.0864 34.8254 11.9816C34.6796 11.8722 34.5223 11.7834 34.3537 11.715C34.1897 11.6467 34.021 11.592 33.8479 11.551C33.6792 11.5054 33.5152 11.4735 33.3557 11.4553C33.2677 11.4452 33.1839 11.4365 33.1042 11.4293C32.9996 11.4197 32.9182 11.3327 32.9182 11.2276V10.5137C32.9182 10.4032 32.8286 10.3137 32.7182 10.3137H32.2705C32.1601 10.3137 32.0705 10.4032 32.0705 10.5137V11.2573C32.0705 11.3586 31.9948 11.4434 31.8948 11.4591C31.6166 11.5028 31.3493 11.5699 31.093 11.6603C30.7876 11.7697 30.5165 11.9201 30.2795 12.1115C30.0471 12.2984 29.8602 12.5285 29.719 12.8019C29.5822 13.0708 29.5139 13.383 29.5139 13.7385C29.5139 14.0757 29.5549 14.3719 29.6369 14.6271C29.7235 14.8778 29.8648 15.1034 30.0608 15.3039C30.2613 15.4999 30.5233 15.6776 30.8469 15.8371C31.138 15.9765 31.4919 16.1122 31.9085 16.2443C31.9924 16.2709 32.05 16.3484 32.05 16.4364V18.9622C32.05 19.0768 31.9538 19.1687 31.84 19.1553C31.6633 19.1345 31.5009 19.0994 31.3528 19.05C31.1522 18.9771 30.9745 18.8905 30.8195 18.7902C30.6646 18.6854 30.5324 18.5737 30.4231 18.4553C30.3679 18.3932 30.3173 18.3317 30.2714 18.2708C30.2014 18.1778 30.0693 18.1513 29.9737 18.2176C29.9002 18.2686 29.8267 18.3182 29.7531 18.3664C29.6643 18.4235 29.5733 18.485 29.48 18.5509C29.4067 18.6028 29.378 18.6983 29.4139 18.7807C29.5188 19.0218 29.6478 19.2323 29.801 19.4123C29.9833 19.6219 30.1906 19.7951 30.4231 19.9318C30.66 20.064 30.9153 20.162 31.1887 20.2258ZM34.1555 17.4162C34.2284 17.5484 34.2649 17.7033 34.2649 17.881C34.2649 18.0269 34.2375 18.1681 34.1828 18.3049C34.1327 18.4416 34.0529 18.5669 33.9436 18.6808C33.8342 18.7948 33.6929 18.8928 33.5197 18.9748C33.4063 19.03 33.2773 19.0728 33.1328 19.1033C33.0159 19.1279 32.9113 19.034 32.9113 18.9144V16.8435C32.9113 16.7038 33.0508 16.6073 33.1789 16.6629C33.2652 16.7004 33.3492 16.7396 33.4309 16.7804C33.5949 16.8579 33.7385 16.9491 33.8615 17.0539C33.9846 17.1587 34.0826 17.2795 34.1555 17.4162ZM30.9153 14.1486C30.856 14.021 30.8264 13.8683 30.8264 13.6906C30.8264 13.5995 30.8401 13.4992 30.8674 13.3898C30.8993 13.2759 30.9585 13.1665 31.0451 13.0617C31.1363 12.9523 31.2616 12.8543 31.4211 12.7678C31.5334 12.7054 31.6691 12.6526 31.8283 12.6095C31.9493 12.5767 32.0637 12.6719 32.0637 12.7973V14.6573C32.0637 14.7957 31.9263 14.8923 31.7986 14.8388C31.7198 14.8058 31.644 14.7717 31.5715 14.7365C31.4211 14.6636 31.2889 14.5793 31.175 14.4836C31.0656 14.3879 30.9791 14.2762 30.9153 14.1486Z" fill="#E8C4AE"/>
</svg>
