<svg width="52" height="26" viewBox="0 0 52 26" fill="none" xmlns="http://www.w3.org/2000/svg">
<path fill-rule="evenodd" clip-rule="evenodd" d="M49.3787 2.2C49.3787 2.08954 49.2892 2 49.1787 2H2.04048C1.93003 2 1.84048 2.08954 1.84048 2.2V3.13333C1.84048 3.24379 1.93003 3.33333 2.04048 3.33333H47.716C47.8264 3.33333 47.916 3.42287 47.916 3.53333V23.8C47.916 23.9105 48.0055 24 48.116 24H49.1787C49.2892 24 49.3787 23.9105 49.3787 23.8V2.2Z" fill="#C5CED4"/>
<path fill-rule="evenodd" clip-rule="evenodd" d="M51.3787 0.2C51.3787 0.089543 51.2892 0 51.1787 0H3.78392C3.67347 0 3.58392 0.0895433 3.58392 0.2V1.13334C3.58392 1.2438 3.67347 1.33334 3.78392 1.33334H49.7075C49.8179 1.33334 49.9075 1.42289 49.9075 1.53334V21.8C49.9075 21.9105 49.997 22 50.1075 22H51.1787C51.2892 22 51.3787 21.9105 51.3787 21.8V0.2Z" fill="#C5CED4"/>
<path fill-rule="evenodd" clip-rule="evenodd" d="M47.3787 4.20012C47.3787 4.08967 47.2891 4.00012 47.1787 4.00012H0.2C0.0895431 4.00012 0 4.08967 0 4.20012V25.8001C0 25.9106 0.0895436 26.0001 0.200001 26.0001H47.1787C47.2891 26.0001 47.3787 25.9106 47.3787 25.8001V4.20012ZM20.8537 13.9865C20.4423 13.8146 19.9787 13.7287 19.4631 13.7287C19.0621 13.7287 18.7053 13.7886 18.3928 13.9084C18.2295 13.9682 18.0791 14.0309 17.9414 14.0965C17.7938 14.1668 17.6131 14.0545 17.6254 13.8915L17.8164 11.3512C17.8242 11.2469 17.9112 11.1662 18.0158 11.1662H21.935C22.0454 11.1662 22.135 11.0766 22.135 10.9662V10.0303C22.135 9.9198 22.0454 9.83025 21.935 9.83025H16.71C16.5995 9.83025 16.51 9.9198 16.51 10.0303V15.4845C16.51 15.5736 16.5689 15.652 16.6545 15.6767L17.1456 15.8184C17.2201 15.8399 17.3 15.8159 17.3546 15.7607C17.4109 15.7038 17.4757 15.6436 17.549 15.5803C17.6636 15.4813 17.7964 15.3901 17.9475 15.3068C18.0985 15.2183 18.2678 15.1454 18.4553 15.0881C18.648 15.0256 18.8563 14.9943 19.0803 14.9943C19.7782 14.9943 20.3199 15.1818 20.7053 15.5568C21.0907 15.9318 21.2834 16.4631 21.2834 17.1506C21.2834 17.4318 21.2444 17.7131 21.1662 17.9943C21.0933 18.2704 20.9657 18.5178 20.7834 18.7365C20.6063 18.9553 20.3694 19.1323 20.0725 19.2678C19.7808 19.4032 19.4188 19.4709 18.9865 19.4709C18.8042 19.4709 18.6115 19.4474 18.4084 19.4006C18.2053 19.3537 18.0074 19.2834 17.8147 19.1896C17.6272 19.0907 17.4527 18.9657 17.2912 18.8146C17.1873 18.7174 17.0974 18.6073 17.0216 18.4842C16.9553 18.3766 16.8118 18.3357 16.7085 18.4084L16.1076 18.831C16.0357 18.8816 16.0045 18.9736 16.0363 19.0556C16.1315 19.3007 16.2581 19.5198 16.4162 19.7131C16.6089 19.937 16.8329 20.1271 17.0881 20.2834C17.3485 20.4344 17.635 20.549 17.9475 20.6271C18.2652 20.7053 18.5959 20.7443 18.9397 20.7443C19.5438 20.7443 20.0829 20.6584 20.5569 20.4865C21.036 20.3094 21.4397 20.0646 21.7678 19.7521C22.1011 19.4344 22.3537 19.0542 22.5256 18.6115C22.7027 18.1636 22.7912 17.6662 22.7912 17.1193C22.7912 16.6297 22.7131 16.1766 22.5569 15.7599C22.4058 15.3433 22.1871 14.9865 21.9006 14.6896C21.6141 14.3875 21.2652 14.1532 20.8537 13.9865ZM31.3996 18.6056C31.4229 18.4971 31.4403 18.3967 31.4518 18.3043C31.4654 18.1953 31.3795 18.1031 31.2697 18.0986L30.4626 18.0662C30.3586 18.062 30.2697 18.1386 30.2503 18.2408C30.1686 18.6719 29.9934 19.0077 29.7248 19.2482C29.4195 19.5217 29.0321 19.6584 28.5627 19.6584C28.2802 19.6584 28.0272 19.6037 27.8039 19.4943C27.5852 19.3804 27.3938 19.2277 27.2297 19.0363C27.0656 18.8403 26.9266 18.6102 26.8127 18.3459C26.729 18.1517 26.6576 17.9451 26.5985 17.7263C26.5651 17.6029 26.6604 17.4846 26.7882 17.4846H28.7443C28.8315 17.4846 28.9087 17.428 28.935 17.3448L29.0958 16.8356C29.1365 16.7067 29.0402 16.5754 28.9051 16.5754H26.6069C26.5088 16.5754 26.4245 16.5043 26.4139 16.4067C26.4018 16.2943 26.3957 16.1819 26.3957 16.0695C26.3957 15.992 26.398 15.9146 26.4026 15.8371L26.4091 15.7813C26.421 15.6806 26.5063 15.6047 26.6077 15.6047H29.1691C29.2559 15.6047 29.3327 15.5487 29.3594 15.4662L29.5241 14.957C29.5658 14.8278 29.4695 14.6955 29.3338 14.6955H26.7646C26.6378 14.6955 26.5427 14.5788 26.5743 14.456C26.6409 14.1971 26.7249 13.9556 26.8264 13.7316C26.9631 13.4354 27.1226 13.1825 27.3049 12.9728C27.4917 12.7586 27.6968 12.5946 27.9201 12.4806C28.148 12.3622 28.3895 12.3029 28.6447 12.3029C28.6858 12.3029 28.7496 12.3075 28.8361 12.3166C28.9273 12.3257 29.0276 12.3485 29.1369 12.3849C29.2463 12.4214 29.3602 12.4761 29.4787 12.549C29.5972 12.6174 29.7066 12.7153 29.8069 12.8429C29.9071 12.966 29.9914 13.1209 30.0598 13.3078C30.1115 13.4457 30.1489 13.6071 30.1719 13.7919C30.1849 13.8962 30.2712 13.9777 30.3763 13.9777H31.2374C31.3517 13.9777 31.4433 13.882 31.4322 13.7682C31.3952 13.39 31.3091 13.0542 31.174 12.7609C31.0145 12.41 30.8072 12.1183 30.552 11.8859C30.3013 11.6535 30.0119 11.4803 29.6838 11.3664C29.3557 11.2479 29.0093 11.1887 28.6447 11.1887C28.1799 11.1887 27.7561 11.2752 27.3733 11.4484C26.9904 11.617 26.6532 11.8563 26.3615 12.1662C26.0699 12.4761 25.8261 12.8475 25.6301 13.2804C25.4554 13.6622 25.3242 14.0784 25.2365 14.529C25.2178 14.6249 25.1347 14.6955 25.0371 14.6955H24.5998C24.5131 14.6955 24.4362 14.7514 24.4095 14.834L24.2449 15.3431C24.2032 15.4723 24.2995 15.6047 24.4352 15.6047H24.8821C25.0031 15.6047 25.0974 15.7114 25.0913 15.8322C25.0909 15.8406 25.0904 15.849 25.0901 15.8576C25.0855 15.9533 25.0832 16.0331 25.0832 16.0969C25.0832 16.1789 25.0855 16.2609 25.0901 16.3429C25.0902 16.3458 25.0904 16.3486 25.0906 16.3514C25.0978 16.4709 25.0054 16.5754 24.8857 16.5754H24.5951C24.5073 16.5754 24.4298 16.6326 24.404 16.7165L24.247 17.2256C24.2074 17.3543 24.3035 17.4846 24.4381 17.4846H25.0515C25.1488 17.4846 25.2317 17.5547 25.2505 17.6502C25.3365 18.0862 25.4585 18.4845 25.6164 18.8449C25.7987 19.2505 26.0289 19.5969 26.3069 19.884C26.5848 20.1665 26.913 20.3853 27.2912 20.5402C27.674 20.6906 28.1093 20.7658 28.5969 20.7658C28.9751 20.7658 29.3078 20.7202 29.5949 20.6291C29.8866 20.5379 30.1373 20.4172 30.3469 20.2668C30.5565 20.1164 30.732 19.9478 30.8733 19.7609C31.0145 19.5695 31.1285 19.3758 31.2151 19.1799C31.3016 18.9839 31.3632 18.7925 31.3996 18.6056Z" fill="#C5CED4"/>
</svg>
