<svg width="53" height="26" viewBox="0 0 53 26" fill="none" xmlns="http://www.w3.org/2000/svg">
<path fill-rule="evenodd" clip-rule="evenodd" d="M50.1362 2.20012C50.1362 2.08967 50.0466 2.00012 49.9362 2.00012H2.79793C2.68747 2.00012 2.59793 2.08967 2.59793 2.20012V3.13345C2.59793 3.24391 2.68747 3.33345 2.79793 3.33345H48.4734C48.5839 3.33345 48.6734 3.423 48.6734 3.53345V23.8001C48.6734 23.9106 48.763 24.0001 48.8734 24.0001H49.9362C50.0466 24.0001 50.1362 23.9106 50.1362 23.8001V2.20012Z" fill="#8492AC"/>
<path fill-rule="evenodd" clip-rule="evenodd" d="M52.1362 0.200122C52.1362 0.0896651 52.0466 0.00012207 51.9362 0.00012207H4.54137C4.43091 0.00012207 4.34137 0.0896653 4.34137 0.200122V1.13347C4.34137 1.24392 4.43091 1.33347 4.54137 1.33347H50.4649C50.5754 1.33347 50.6649 1.42301 50.6649 1.53347V21.8001C50.6649 21.9106 50.7545 22.0001 50.8649 22.0001H51.9362C52.0466 22.0001 52.1362 21.9106 52.1362 21.8001V0.200122Z" fill="#8492AC"/>
<path fill-rule="evenodd" clip-rule="evenodd" d="M48.1361 4.20023C48.1361 4.08977 48.0466 4.00023 47.9361 4.00023H0.957446C0.846989 4.00023 0.757446 4.08977 0.757446 4.20023V25.8002C0.757446 25.9107 0.84699 26.0002 0.957447 26.0002H47.9361C48.0466 26.0002 48.1361 25.9107 48.1361 25.8002V4.20023ZM21.912 13.8118C21.5519 13.6614 21.1463 13.5862 20.6952 13.5862C20.3442 13.5862 20.0321 13.6386 19.7586 13.7434C19.6332 13.7894 19.5164 13.8374 19.4082 13.8872C19.2597 13.9556 19.0786 13.8427 19.0908 13.6797L19.2525 11.529C19.2604 11.4247 19.3473 11.344 19.452 11.344H22.833C22.9435 11.344 23.033 11.2545 23.033 11.144V10.3751C23.033 10.2646 22.9435 10.1751 22.833 10.1751H18.3112C18.2007 10.1751 18.1112 10.2646 18.1112 10.3751V15.1038C18.1112 15.1928 18.1701 15.2712 18.2557 15.2959L18.652 15.4103C18.7266 15.4318 18.8065 15.4078 18.8614 15.353C18.908 15.3065 18.961 15.2576 19.0204 15.2063C19.1206 15.1197 19.2368 15.04 19.369 14.9671C19.5011 14.8896 19.6493 14.8258 19.8133 14.7757C19.9819 14.721 20.1642 14.6936 20.3602 14.6936C20.9709 14.6936 21.4448 14.8577 21.7821 15.1858C22.1193 15.514 22.2879 15.9788 22.2879 16.5804C22.2879 16.8265 22.2538 17.0725 22.1854 17.3186C22.1216 17.5602 22.0099 17.7766 21.8504 17.9681C21.6955 18.1595 21.4881 18.3144 21.2284 18.4329C20.9732 18.5514 20.6564 18.6106 20.2782 18.6106C20.1187 18.6106 19.95 18.5901 19.7723 18.5491C19.5946 18.5081 19.4214 18.4466 19.2528 18.3645C19.0887 18.278 18.936 18.1686 18.7948 18.0364C18.7112 17.9582 18.638 17.8705 18.5751 17.7731C18.5066 17.667 18.3632 17.6258 18.2599 17.6985L17.7742 18.0401C17.7023 18.0907 17.671 18.1827 17.7035 18.2645C17.786 18.472 17.8945 18.658 18.0291 18.8225C18.1978 19.0185 18.3937 19.1849 18.617 19.3216C18.8449 19.4537 19.0955 19.554 19.369 19.6224C19.647 19.6907 19.9364 19.7249 20.2372 19.7249C20.7658 19.7249 21.2375 19.6497 21.6522 19.4993C22.0715 19.3444 22.4247 19.1302 22.7118 18.8567C23.0034 18.5787 23.2245 18.2461 23.3748 17.8587C23.5298 17.4668 23.6073 17.0315 23.6073 16.553C23.6073 16.1246 23.5389 15.7281 23.4022 15.3636C23.27 14.999 23.0786 14.6868 22.828 14.427C22.5773 14.1627 22.272 13.9576 21.912 13.8118ZM25.8787 19.0702C26.4667 19.5088 27.3067 19.7282 28.3987 19.7282C28.9587 19.7282 29.5047 19.6675 30.0367 19.5462C30.5065 19.439 30.8925 19.321 31.1949 19.192C31.2662 19.1616 31.3107 19.0907 31.3107 19.0133V18.3139C31.3107 18.1692 31.1614 18.0716 31.0264 18.1237C30.7466 18.2317 30.4214 18.3372 30.0507 18.4402C29.556 18.5708 29.0427 18.6362 28.5107 18.6362C27.008 18.6362 26.2567 18.0948 26.2567 17.0122C26.2567 16.7975 26.2707 16.6295 26.2987 16.5082C26.3194 16.4184 26.3529 16.3235 26.3992 16.2236C26.4302 16.1565 26.4989 16.1162 26.5727 16.1162H31.6987C31.8092 16.1162 31.8987 16.0266 31.8987 15.9162V15.4202C31.8987 15.3097 31.8092 15.2202 31.6987 15.2202H28.0883C27.9317 15.2202 27.9002 15.0597 28.0487 15.0102V15.0102C28.3287 14.9168 28.6414 14.8048 28.9867 14.6742C29.332 14.5435 29.6634 14.4035 29.9807 14.2542C30.2581 14.1155 30.4713 13.9804 30.6203 13.8488C30.6601 13.8137 30.7105 13.7922 30.7636 13.7922H31.6987C31.8092 13.7922 31.8987 13.7026 31.8987 13.5922V13.0962C31.8987 12.9857 31.8092 12.8962 31.6987 12.8962H31.4523C31.3036 12.8962 31.2038 12.7373 31.2416 12.5935C31.2585 12.529 31.2723 12.4619 31.2827 12.3922C31.3107 12.1962 31.3247 12.0002 31.3247 11.8042C31.3247 11.0108 31.0494 10.4228 30.4987 10.0402C29.9574 9.64817 29.2154 9.45217 28.2727 9.45217C27.7874 9.45217 27.288 9.50817 26.7747 9.62017C26.3358 9.71594 25.9549 9.83217 25.6319 9.96888C25.5399 10.0079 25.4952 10.1112 25.5254 10.2066L25.7537 10.9282C25.7902 11.0436 25.92 11.1002 26.0313 11.0526C26.2951 10.9398 26.5849 10.8357 26.9007 10.7402C27.3114 10.6188 27.7454 10.5582 28.2027 10.5582C28.8374 10.5582 29.304 10.6842 29.6027 10.9362C29.9014 11.1788 30.0507 11.5195 30.0507 11.9582C30.0507 12.1728 30.032 12.3502 29.9947 12.4902C29.974 12.5937 29.9405 12.6948 29.8943 12.7932C29.8637 12.8582 29.7964 12.8962 29.7246 12.8962H24.6927C24.5823 12.8962 24.4927 12.9857 24.4927 13.0962V13.5922C24.4927 13.7026 24.5823 13.7922 24.6927 13.7922H28.2637C28.3985 13.7922 28.4276 13.9428 28.3007 13.9882V13.9882C28.0394 14.0722 27.736 14.1748 27.3907 14.2962C27.0547 14.4175 26.728 14.5575 26.4107 14.7162C26.1345 14.8501 25.9072 14.999 25.7285 15.1629C25.6895 15.1988 25.6389 15.2202 25.5859 15.2202H24.6927C24.5823 15.2202 24.4927 15.3097 24.4927 15.4202V15.9162C24.4927 16.0266 24.5823 16.1162 24.6927 16.1162H24.8675C25.0057 16.1162 25.1028 16.2533 25.0716 16.3879C25.0217 16.6034 24.9967 16.8349 24.9967 17.0822C24.9967 17.9688 25.2907 18.6315 25.8787 19.0702Z" fill="#8492AC"/>
</svg>
