<svg width="52" height="26" viewBox="0 0 52 26" fill="none" xmlns="http://www.w3.org/2000/svg">
<path fill-rule="evenodd" clip-rule="evenodd" d="M49.3787 2.2C49.3787 2.08954 49.2892 2 49.1787 2H2.04048C1.93003 2 1.84048 2.08954 1.84048 2.2V3.13333C1.84048 3.24379 1.93003 3.33333 2.04048 3.33333H47.716C47.8264 3.33333 47.916 3.42287 47.916 3.53333V23.8C47.916 23.9105 48.0055 24 48.116 24H49.1787C49.2892 24 49.3787 23.9105 49.3787 23.8V2.2Z" fill="#E1C7C7"/>
<path fill-rule="evenodd" clip-rule="evenodd" d="M51.3787 0.2C51.3787 0.089543 51.2892 0 51.1787 0H3.78392C3.67347 0 3.58392 0.0895433 3.58392 0.2V1.13334C3.58392 1.2438 3.67347 1.33334 3.78392 1.33334H49.7075C49.8179 1.33334 49.9075 1.42289 49.9075 1.53334V21.8C49.9075 21.9105 49.997 22 50.1075 22H51.1787C51.2892 22 51.3787 21.9105 51.3787 21.8V0.2Z" fill="#E1C7C7"/>
<path fill-rule="evenodd" clip-rule="evenodd" d="M47.3787 4.20012C47.3787 4.08967 47.2891 4.00012 47.1787 4.00012H0.2C0.0895431 4.00012 0 4.08967 0 4.20012V25.8001C0 25.9106 0.0895436 26.0001 0.200001 26.0001H47.1787C47.2891 26.0001 47.3787 25.9106 47.3787 25.8001V4.20012ZM21.4211 13.9865C21.0097 13.8146 20.5461 13.7287 20.0305 13.7287C19.6294 13.7287 19.2727 13.7886 18.9602 13.9084C18.7969 13.9682 18.6465 14.0309 18.5088 14.0965C18.3612 14.1668 18.1805 14.0545 18.1928 13.8915L18.3838 11.3512C18.3916 11.2469 18.4786 11.1662 18.5832 11.1662H22.5024C22.6128 11.1662 22.7024 11.0766 22.7024 10.9662V10.0303C22.7024 9.9198 22.6128 9.83025 22.5024 9.83025H17.2774C17.1669 9.83025 17.0774 9.9198 17.0774 10.0303V15.4845C17.0774 15.5736 17.1363 15.652 17.2219 15.6767L17.713 15.8184C17.7875 15.8399 17.8674 15.8159 17.922 15.7607C17.9782 15.7038 18.0431 15.6436 18.1164 15.5803C18.231 15.4813 18.3638 15.3901 18.5149 15.3068C18.6659 15.2183 18.8352 15.1454 19.0227 15.0881C19.2154 15.0256 19.4237 14.9943 19.6477 14.9943C20.3456 14.9943 20.8873 15.1818 21.2727 15.5568C21.6581 15.9318 21.8508 16.4631 21.8508 17.1506C21.8508 17.4318 21.8117 17.7131 21.7336 17.9943C21.6607 18.2704 21.5331 18.5178 21.3508 18.7365C21.1737 18.9553 20.9367 19.1323 20.6399 19.2678C20.3482 19.4032 19.9862 19.4709 19.5539 19.4709C19.3716 19.4709 19.1789 19.4474 18.9758 19.4006C18.7727 19.3537 18.5748 19.2834 18.382 19.1896C18.1945 19.0907 18.0201 18.9657 17.8586 18.8146C17.7547 18.7174 17.6648 18.6073 17.589 18.4842C17.5227 18.3766 17.3792 18.3357 17.2759 18.4084L16.675 18.831C16.6031 18.8816 16.5719 18.9736 16.6037 19.0556C16.6989 19.3007 16.8255 19.5198 16.9836 19.7131C17.1763 19.937 17.4003 20.1271 17.6555 20.2834C17.9159 20.4344 18.2024 20.549 18.5149 20.6271C18.8326 20.7053 19.1633 20.7443 19.507 20.7443C20.1112 20.7443 20.6503 20.6584 21.1242 20.4865C21.6034 20.3094 22.007 20.0646 22.3352 19.7521C22.6685 19.4344 22.9211 19.0542 23.093 18.6115C23.2701 18.1636 23.3586 17.6662 23.3586 17.1193C23.3586 16.6297 23.2805 16.1766 23.1242 15.7599C22.9732 15.3433 22.7544 14.9865 22.468 14.6896C22.1815 14.3875 21.8326 14.1532 21.4211 13.9865ZM26.6418 20.2258C26.855 20.2719 27.0765 20.3015 27.3063 20.3145C27.4154 20.3206 27.5031 20.4092 27.5031 20.5185V21.4887C27.5031 21.5991 27.5927 21.6887 27.7031 21.6887H28.144C28.2544 21.6887 28.344 21.5991 28.344 21.4887V20.4709C28.344 20.37 28.4193 20.2853 28.519 20.2694C28.8238 20.2207 29.1141 20.1446 29.3899 20.0412C29.718 19.9181 30.0051 19.7541 30.2512 19.549C30.5018 19.3439 30.7001 19.0978 30.8459 18.8107C30.9917 18.5191 31.0647 18.1795 31.0647 17.7922C31.0647 17.4048 30.9849 17.0721 30.8254 16.7941C30.6659 16.5116 30.4585 16.27 30.2033 16.0695C29.9481 15.869 29.6587 15.7004 29.3352 15.5637C29.062 15.4466 28.7855 15.3429 28.5057 15.2525C28.422 15.2255 28.3645 15.1481 28.3645 15.0602V12.7569C28.3645 12.6384 28.4671 12.5453 28.5842 12.5634C28.6811 12.5784 28.7742 12.5964 28.8635 12.6174C29.023 12.6538 29.1688 12.704 29.301 12.7678C29.4377 12.8316 29.5585 12.9113 29.6633 13.007C29.7229 13.0614 29.7766 13.1225 29.8244 13.1902C29.8865 13.2781 30.0006 13.3203 30.0986 13.2758L30.757 12.976C30.8473 12.9349 30.895 12.8333 30.8594 12.7407C30.8065 12.6032 30.7405 12.4801 30.6613 12.3713C30.552 12.2163 30.4244 12.0864 30.2785 11.9816C30.1327 11.8722 29.9755 11.7834 29.8069 11.715C29.6428 11.6467 29.4742 11.592 29.301 11.551C29.1324 11.5054 28.9683 11.4735 28.8088 11.4553C28.7208 11.4452 28.637 11.4365 28.5574 11.4293C28.4527 11.4197 28.3713 11.3327 28.3713 11.2276V10.5137C28.3713 10.4032 28.2818 10.3137 28.1713 10.3137H27.7236C27.6132 10.3137 27.5236 10.4032 27.5236 10.5137V11.2573C27.5236 11.3586 27.4479 11.4434 27.3479 11.4591C27.0697 11.5028 26.8025 11.5699 26.5461 11.6603C26.2408 11.7697 25.9696 11.9201 25.7326 12.1115C25.5002 12.2984 25.3134 12.5285 25.1721 12.8019C25.0354 13.0708 24.967 13.383 24.967 13.7385C24.967 14.0757 25.008 14.3719 25.0901 14.6271C25.1766 14.8778 25.3179 15.1034 25.5139 15.3039C25.7144 15.4999 25.9764 15.6776 26.3 15.8371C26.5912 15.9765 26.945 16.1122 27.3617 16.2443C27.4455 16.2709 27.5031 16.3484 27.5031 16.4364V18.9622C27.5031 19.0768 27.4069 19.1687 27.2931 19.1553C27.1164 19.1345 26.954 19.0994 26.8059 19.05C26.6054 18.9771 26.4276 18.8905 26.2727 18.7902C26.1177 18.6854 25.9856 18.5737 25.8762 18.4553C25.821 18.3932 25.7705 18.3317 25.7246 18.2708C25.6545 18.1778 25.5225 18.1513 25.4269 18.2176C25.3533 18.2686 25.2798 18.3182 25.2063 18.3664C25.1174 18.4235 25.0264 18.485 24.9332 18.5509C24.8598 18.6028 24.8312 18.6983 24.867 18.7807C24.9719 19.0218 25.101 19.2323 25.2541 19.4123C25.4364 19.6219 25.6438 19.7951 25.8762 19.9318C26.1132 20.064 26.3684 20.162 26.6418 20.2258ZM29.6086 17.4162C29.6815 17.5484 29.718 17.7033 29.718 17.881C29.718 18.0269 29.6906 18.1681 29.636 18.3049C29.5858 18.4416 29.5061 18.5669 29.3967 18.6808C29.2873 18.7948 29.146 18.8928 28.9729 18.9748C28.8594 19.03 28.7304 19.0728 28.586 19.1033C28.469 19.1279 28.3645 19.034 28.3645 18.9144V16.8435C28.3645 16.7038 28.504 16.6073 28.632 16.6629C28.7183 16.7004 28.8023 16.7396 28.884 16.7804C29.0481 16.8579 29.1916 16.9491 29.3147 17.0539C29.4377 17.1587 29.5357 17.2795 29.6086 17.4162ZM26.3684 14.1486C26.3091 14.021 26.2795 13.8683 26.2795 13.6906C26.2795 13.5995 26.2932 13.4992 26.3205 13.3898C26.3524 13.2759 26.4117 13.1665 26.4983 13.0617C26.5894 12.9523 26.7147 12.8543 26.8742 12.7678C26.9865 12.7054 27.1222 12.6526 27.2814 12.6095C27.4024 12.5767 27.5168 12.6719 27.5168 12.7973V14.6573C27.5168 14.7957 27.3795 14.8923 27.2518 14.8388C27.1729 14.8058 27.0972 14.7717 27.0246 14.7365C26.8742 14.6636 26.7421 14.5793 26.6281 14.4836C26.5188 14.3879 26.4322 14.2762 26.3684 14.1486Z" fill="#E1C7C7"/>
</svg>
