<svg width="20" height="20" viewBox="0 0 20 20" fill="none" xmlns="http://www.w3.org/2000/svg">
<mask id="mask0" mask-type="alpha" maskUnits="userSpaceOnUse" x="0" y="0" width="20" height="20">
<rect width="20" height="20" fill="#C4C4C4"/>
</mask>
<g mask="url(#mask0)">
<path fill-rule="evenodd" clip-rule="evenodd" d="M14 15.9658C14.3905 16.3563 15.0237 16.3563 15.4142 15.9658L15.9658 15.4142C16.3563 15.0237 16.3563 14.3905 15.9658 14L12.0935 10.1278L15.9626 6.25868C16.3531 5.86812 16.3531 5.23494 15.9626 4.84444L15.4142 4.2961C15.0237 3.90553 14.3905 3.90553 14 4.29604L10.1309 8.16518L6.25865 4.29292C5.86811 3.90236 5.23495 3.90236 4.84443 4.29292L4.29289 4.84444C3.90237 5.23494 3.90237 5.86812 4.29289 6.25862L8.16517 10.1309L4.29292 14.0032C3.9024 14.3937 3.9024 15.0269 4.29292 15.4174L4.84129 15.9658C5.23182 16.3563 5.86499 16.3563 6.2555 15.9658L10.1278 12.0935L14 15.9658Z" fill="white"/>
</g>
</svg>
