<svg width="20" height="20" viewBox="0 0 20 20" fill="none" xmlns="http://www.w3.org/2000/svg">
<mask id="mask0" mask-type="alpha" maskUnits="userSpaceOnUse" x="0" y="0" width="20" height="20">
<rect width="20" height="20" fill="#C4C4C4"/>
</mask>
<g mask="url(#mask0)">
<path fill-rule="evenodd" clip-rule="evenodd" d="M10.2696 1.18454C10.167 0.938486 9.81843 0.938486 9.71583 1.18454L2.52424 18.4316C2.41379 18.6965 2.70259 18.9504 2.95113 18.8069L9.84272 14.828C9.93554 14.7744 10.0499 14.7744 10.1427 14.828L17.0343 18.8069C17.2829 18.9504 17.5717 18.6965 17.4612 18.4316L10.2696 1.18454ZM6.78471 13.7272L9.4185 6.57836C9.5343 6.26405 10 6.34711 10 6.68208V12.3259C10 12.4336 9.94231 12.533 9.84884 12.5864L7.21506 14.0914C6.97194 14.2303 6.68791 13.99 6.78471 13.7272Z" fill="white"/>
</g>
</svg>
